<svg width="43" height="43" viewBox="0 0 43 43" fill="none" xmlns="http://www.w3.org/2000/svg">
<path d="M21.8845 42.4977C33.4825 42.4977 42.8845 33.0957 42.8845 21.4977C42.8845 9.8997 33.4825 0.497681 21.8845 0.497681C10.2865 0.497681 0.884521 9.8997 0.884521 21.4977C0.884521 33.0957 10.2865 42.4977 21.8845 42.4977Z" fill="#E4F5FD"/>
<path d="M32.8491 30.7913C32.8491 30.7913 27.9342 30.7913 21.8755 30.7913C15.8167 30.7913 10.9019 30.7913 10.9019 30.7913C10.9019 30.7913 15.8167 30.7913 21.8755 30.7913C27.9431 30.7913 32.8491 30.7913 32.8491 30.7913Z" fill="#AFD6FF" stroke="#003B96" stroke-width="1.5" stroke-miterlimit="10" stroke-linecap="round" stroke-linejoin="round"/>
<path d="M27.8718 12.4004H16.6926V30.791H27.8718V12.4004Z" fill="#3A6FCB" stroke="#003B96" stroke-width="1.5" stroke-miterlimit="10" stroke-linejoin="round"/>
<path d="M24.5386 33.7313L14.262 30.5678V11.3997L24.5386 9.26404V33.7313Z" fill="#AFD6FF" stroke="#003B96" stroke-width="1.5" stroke-miterlimit="10" stroke-linecap="round" stroke-linejoin="round"/>
<path d="M21.1963 21.5962C22.1257 21.5962 22.2776 21.5962 22.2776 21.5962C22.2776 21.5962 22.1167 21.5962 21.1963 21.5962Z" fill="#AFD6FF" stroke="#003B96" stroke-width="1.5" stroke-miterlimit="10" stroke-linecap="round" stroke-linejoin="round"/>
</svg>
