<svg width="258" height="273" viewBox="0 0 258 273" fill="none" xmlns="http://www.w3.org/2000/svg">
<path d="M250.078 10.6504C251.751 10.6504 253.108 9.29383 253.108 7.62039C253.108 5.94695 251.751 4.59033 250.078 4.59033C248.404 4.59033 247.048 5.94695 247.048 7.62039C247.048 9.29383 248.404 10.6504 250.078 10.6504Z" fill="#C0D7E0" fill-opacity="0.5"/>
<path d="M250.078 25.8005C251.751 25.8005 253.108 24.444 253.108 22.7705C253.108 21.0971 251.751 19.7405 250.078 19.7405C248.404 19.7405 247.048 21.0971 247.048 22.7705C247.048 24.444 248.404 25.8005 250.078 25.8005Z" fill="#C0D7E0" fill-opacity="0.5"/>
<path d="M250.078 40.9507C251.751 40.9507 253.108 39.5941 253.108 37.9207C253.108 36.2472 251.751 34.8906 250.078 34.8906C248.404 34.8906 247.048 36.2472 247.048 37.9207C247.048 39.5941 248.404 40.9507 250.078 40.9507Z" fill="#C0D7E0" fill-opacity="0.5"/>
<path d="M250.078 56.1008C251.751 56.1008 253.108 54.7443 253.108 53.0708C253.108 51.3974 251.751 50.0408 250.078 50.0408C248.404 50.0408 247.048 51.3974 247.048 53.0708C247.048 54.7443 248.404 56.1008 250.078 56.1008Z" fill="#C0D7E0" fill-opacity="0.5"/>
<path d="M250.078 71.251C251.751 71.251 253.108 69.8944 253.108 68.221C253.108 66.5475 251.751 65.1909 250.078 65.1909C248.404 65.1909 247.048 66.5475 247.048 68.221C247.048 69.8944 248.404 71.251 250.078 71.251Z" fill="#C0D7E0" fill-opacity="0.5"/>
<path d="M250.078 86.4011C251.751 86.4011 253.108 85.0446 253.108 83.3711C253.108 81.6977 251.751 80.3411 250.078 80.3411C248.404 80.3411 247.048 81.6977 247.048 83.3711C247.048 85.0446 248.404 86.4011 250.078 86.4011Z" fill="#C0D7E0" fill-opacity="0.5"/>
<path d="M250.078 101.551C251.751 101.551 253.108 100.195 253.108 98.5213C253.108 96.8478 251.751 95.4912 250.078 95.4912C248.404 95.4912 247.048 96.8478 247.048 98.5213C247.048 100.195 248.404 101.551 250.078 101.551Z" fill="#C0D7E0" fill-opacity="0.5"/>
<path d="M250.078 116.701C251.751 116.701 253.108 115.345 253.108 113.671C253.108 111.998 251.751 110.641 250.078 110.641C248.404 110.641 247.048 111.998 247.048 113.671C247.048 115.345 248.404 116.701 250.078 116.701Z" fill="#C0D7E0" fill-opacity="0.5"/>
<path d="M250.078 131.852C251.751 131.852 253.108 130.495 253.108 128.822C253.108 127.148 251.751 125.792 250.078 125.792C248.404 125.792 247.048 127.148 247.048 128.822C247.048 130.495 248.404 131.852 250.078 131.852Z" fill="#C0D7E0" fill-opacity="0.5"/>
<path d="M250.078 147.002C251.751 147.002 253.108 145.645 253.108 143.972C253.108 142.298 251.751 140.942 250.078 140.942C248.404 140.942 247.048 142.298 247.048 143.972C247.048 145.645 248.404 147.002 250.078 147.002Z" fill="#C0D7E0" fill-opacity="0.5"/>
<path d="M250.078 162.152C251.751 162.152 253.108 160.795 253.108 159.122C253.108 157.448 251.751 156.092 250.078 156.092C248.404 156.092 247.048 157.448 247.048 159.122C247.048 160.795 248.404 162.152 250.078 162.152Z" fill="#C0D7E0" fill-opacity="0.5"/>
<path d="M250.078 177.302C251.751 177.302 253.108 175.945 253.108 174.272C253.108 172.599 251.751 171.242 250.078 171.242C248.404 171.242 247.048 172.599 247.048 174.272C247.048 175.945 248.404 177.302 250.078 177.302Z" fill="#C0D7E0" fill-opacity="0.5"/>
<path d="M250.078 192.452C251.751 192.452 253.108 191.096 253.108 189.422C253.108 187.749 251.751 186.392 250.078 186.392C248.404 186.392 247.048 187.749 247.048 189.422C247.048 191.096 248.404 192.452 250.078 192.452Z" fill="#C0D7E0" fill-opacity="0.5"/>
<path d="M250.078 207.602C251.751 207.602 253.108 206.246 253.108 204.572C253.108 202.899 251.751 201.542 250.078 201.542C248.404 201.542 247.048 202.899 247.048 204.572C247.048 206.246 248.404 207.602 250.078 207.602Z" fill="#C0D7E0" fill-opacity="0.5"/>
<path d="M250.078 222.752C251.751 222.752 253.108 221.396 253.108 219.722C253.108 218.049 251.751 216.692 250.078 216.692C248.404 216.692 247.048 218.049 247.048 219.722C247.048 221.396 248.404 222.752 250.078 222.752Z" fill="#C0D7E0" fill-opacity="0.5"/>
<path d="M250.078 237.903C251.751 237.903 253.108 236.546 253.108 234.873C253.108 233.199 251.751 231.843 250.078 231.843C248.404 231.843 247.048 233.199 247.048 234.873C247.048 236.546 248.404 237.903 250.078 237.903Z" fill="#C0D7E0" fill-opacity="0.5"/>
<path d="M250.078 253.053C251.751 253.053 253.108 251.696 253.108 250.023C253.108 248.349 251.751 246.993 250.078 246.993C248.404 246.993 247.048 248.349 247.048 250.023C247.048 251.696 248.404 253.053 250.078 253.053Z" fill="#C0D7E0" fill-opacity="0.5"/>
<path d="M250.078 268.203C251.751 268.203 253.108 266.846 253.108 265.173C253.108 263.499 251.751 262.143 250.078 262.143C248.404 262.143 247.048 263.499 247.048 265.173C247.048 266.846 248.404 268.203 250.078 268.203Z" fill="#C0D7E0" fill-opacity="0.5"/>
<path d="M234.928 10.6504C236.601 10.6504 237.958 9.29383 237.958 7.62039C237.958 5.94695 236.601 4.59033 234.928 4.59033C233.254 4.59033 231.898 5.94695 231.898 7.62039C231.898 9.29383 233.254 10.6504 234.928 10.6504Z" fill="#C0D7E0" fill-opacity="0.5"/>
<path d="M234.928 25.8005C236.601 25.8005 237.958 24.444 237.958 22.7705C237.958 21.0971 236.601 19.7405 234.928 19.7405C233.254 19.7405 231.898 21.0971 231.898 22.7705C231.898 24.444 233.254 25.8005 234.928 25.8005Z" fill="#C0D7E0" fill-opacity="0.5"/>
<path d="M234.928 40.9507C236.601 40.9507 237.958 39.5941 237.958 37.9207C237.958 36.2472 236.601 34.8906 234.928 34.8906C233.254 34.8906 231.898 36.2472 231.898 37.9207C231.898 39.5941 233.254 40.9507 234.928 40.9507Z" fill="#C0D7E0" fill-opacity="0.5"/>
<path d="M234.928 56.1008C236.601 56.1008 237.958 54.7443 237.958 53.0708C237.958 51.3974 236.601 50.0408 234.928 50.0408C233.254 50.0408 231.898 51.3974 231.898 53.0708C231.898 54.7443 233.254 56.1008 234.928 56.1008Z" fill="#C0D7E0" fill-opacity="0.5"/>
<path d="M234.928 71.251C236.601 71.251 237.958 69.8944 237.958 68.221C237.958 66.5475 236.601 65.1909 234.928 65.1909C233.254 65.1909 231.898 66.5475 231.898 68.221C231.898 69.8944 233.254 71.251 234.928 71.251Z" fill="#C0D7E0" fill-opacity="0.5"/>
<path d="M234.928 86.4011C236.601 86.4011 237.958 85.0446 237.958 83.3711C237.958 81.6977 236.601 80.3411 234.928 80.3411C233.254 80.3411 231.898 81.6977 231.898 83.3711C231.898 85.0446 233.254 86.4011 234.928 86.4011Z" fill="#C0D7E0" fill-opacity="0.5"/>
<path d="M234.928 101.551C236.601 101.551 237.958 100.195 237.958 98.5213C237.958 96.8478 236.601 95.4912 234.928 95.4912C233.254 95.4912 231.898 96.8478 231.898 98.5213C231.898 100.195 233.254 101.551 234.928 101.551Z" fill="#C0D7E0" fill-opacity="0.5"/>
<path d="M234.928 116.701C236.601 116.701 237.958 115.345 237.958 113.671C237.958 111.998 236.601 110.641 234.928 110.641C233.254 110.641 231.898 111.998 231.898 113.671C231.898 115.345 233.254 116.701 234.928 116.701Z" fill="#C0D7E0" fill-opacity="0.5"/>
<path d="M234.928 131.852C236.601 131.852 237.958 130.495 237.958 128.822C237.958 127.148 236.601 125.792 234.928 125.792C233.254 125.792 231.898 127.148 231.898 128.822C231.898 130.495 233.254 131.852 234.928 131.852Z" fill="#C0D7E0" fill-opacity="0.5"/>
<path d="M234.928 147.002C236.601 147.002 237.958 145.645 237.958 143.972C237.958 142.298 236.601 140.942 234.928 140.942C233.254 140.942 231.898 142.298 231.898 143.972C231.898 145.645 233.254 147.002 234.928 147.002Z" fill="#C0D7E0" fill-opacity="0.5"/>
<path d="M234.928 162.152C236.601 162.152 237.958 160.795 237.958 159.122C237.958 157.448 236.601 156.092 234.928 156.092C233.254 156.092 231.898 157.448 231.898 159.122C231.898 160.795 233.254 162.152 234.928 162.152Z" fill="#C0D7E0" fill-opacity="0.5"/>
<path d="M234.928 177.302C236.601 177.302 237.958 175.945 237.958 174.272C237.958 172.599 236.601 171.242 234.928 171.242C233.254 171.242 231.898 172.599 231.898 174.272C231.898 175.945 233.254 177.302 234.928 177.302Z" fill="#C0D7E0" fill-opacity="0.5"/>
<path d="M234.928 192.452C236.601 192.452 237.958 191.096 237.958 189.422C237.958 187.749 236.601 186.392 234.928 186.392C233.254 186.392 231.898 187.749 231.898 189.422C231.898 191.096 233.254 192.452 234.928 192.452Z" fill="#C0D7E0" fill-opacity="0.5"/>
<path d="M234.928 207.602C236.601 207.602 237.958 206.246 237.958 204.572C237.958 202.899 236.601 201.542 234.928 201.542C233.254 201.542 231.898 202.899 231.898 204.572C231.898 206.246 233.254 207.602 234.928 207.602Z" fill="#C0D7E0" fill-opacity="0.5"/>
<path d="M234.928 222.752C236.601 222.752 237.958 221.396 237.958 219.722C237.958 218.049 236.601 216.692 234.928 216.692C233.254 216.692 231.898 218.049 231.898 219.722C231.898 221.396 233.254 222.752 234.928 222.752Z" fill="#C0D7E0" fill-opacity="0.5"/>
<path d="M234.928 237.903C236.601 237.903 237.958 236.546 237.958 234.873C237.958 233.199 236.601 231.843 234.928 231.843C233.254 231.843 231.898 233.199 231.898 234.873C231.898 236.546 233.254 237.903 234.928 237.903Z" fill="#C0D7E0" fill-opacity="0.5"/>
<path d="M234.928 253.053C236.601 253.053 237.958 251.696 237.958 250.023C237.958 248.349 236.601 246.993 234.928 246.993C233.254 246.993 231.898 248.349 231.898 250.023C231.898 251.696 233.254 253.053 234.928 253.053Z" fill="#C0D7E0" fill-opacity="0.5"/>
<path d="M234.928 268.203C236.601 268.203 237.958 266.846 237.958 265.173C237.958 263.499 236.601 262.143 234.928 262.143C233.254 262.143 231.898 263.499 231.898 265.173C231.898 266.846 233.254 268.203 234.928 268.203Z" fill="#C0D7E0" fill-opacity="0.5"/>
<path d="M219.777 10.6504C221.451 10.6504 222.808 9.29383 222.808 7.62039C222.808 5.94695 221.451 4.59033 219.777 4.59033C218.104 4.59033 216.747 5.94695 216.747 7.62039C216.747 9.29383 218.104 10.6504 219.777 10.6504Z" fill="#C0D7E0" fill-opacity="0.5"/>
<path d="M219.777 25.8005C221.451 25.8005 222.808 24.444 222.808 22.7705C222.808 21.0971 221.451 19.7405 219.777 19.7405C218.104 19.7405 216.747 21.0971 216.747 22.7705C216.747 24.444 218.104 25.8005 219.777 25.8005Z" fill="#C0D7E0" fill-opacity="0.5"/>
<path d="M219.777 40.9507C221.451 40.9507 222.808 39.5941 222.808 37.9207C222.808 36.2472 221.451 34.8906 219.777 34.8906C218.104 34.8906 216.747 36.2472 216.747 37.9207C216.747 39.5941 218.104 40.9507 219.777 40.9507Z" fill="#C0D7E0" fill-opacity="0.5"/>
<path d="M219.777 56.1008C221.451 56.1008 222.808 54.7443 222.808 53.0708C222.808 51.3974 221.451 50.0408 219.777 50.0408C218.104 50.0408 216.747 51.3974 216.747 53.0708C216.747 54.7443 218.104 56.1008 219.777 56.1008Z" fill="#C0D7E0" fill-opacity="0.5"/>
<path d="M219.777 71.251C221.451 71.251 222.808 69.8944 222.808 68.221C222.808 66.5475 221.451 65.1909 219.777 65.1909C218.104 65.1909 216.747 66.5475 216.747 68.221C216.747 69.8944 218.104 71.251 219.777 71.251Z" fill="#C0D7E0" fill-opacity="0.5"/>
<path d="M219.777 86.4011C221.451 86.4011 222.808 85.0446 222.808 83.3711C222.808 81.6977 221.451 80.3411 219.777 80.3411C218.104 80.3411 216.747 81.6977 216.747 83.3711C216.747 85.0446 218.104 86.4011 219.777 86.4011Z" fill="#C0D7E0" fill-opacity="0.5"/>
<path d="M219.777 101.551C221.451 101.551 222.808 100.195 222.808 98.5213C222.808 96.8478 221.451 95.4912 219.777 95.4912C218.104 95.4912 216.747 96.8478 216.747 98.5213C216.747 100.195 218.104 101.551 219.777 101.551Z" fill="#C0D7E0" fill-opacity="0.5"/>
<path d="M219.777 116.701C221.451 116.701 222.808 115.345 222.808 113.671C222.808 111.998 221.451 110.641 219.777 110.641C218.104 110.641 216.747 111.998 216.747 113.671C216.747 115.345 218.104 116.701 219.777 116.701Z" fill="#C0D7E0" fill-opacity="0.5"/>
<path d="M219.777 131.852C221.451 131.852 222.808 130.495 222.808 128.822C222.808 127.148 221.451 125.792 219.777 125.792C218.104 125.792 216.747 127.148 216.747 128.822C216.747 130.495 218.104 131.852 219.777 131.852Z" fill="#C0D7E0" fill-opacity="0.5"/>
<path d="M219.777 147.002C221.451 147.002 222.808 145.645 222.808 143.972C222.808 142.298 221.451 140.942 219.777 140.942C218.104 140.942 216.747 142.298 216.747 143.972C216.747 145.645 218.104 147.002 219.777 147.002Z" fill="#C0D7E0" fill-opacity="0.5"/>
<path d="M219.777 162.152C221.451 162.152 222.808 160.795 222.808 159.122C222.808 157.448 221.451 156.092 219.777 156.092C218.104 156.092 216.747 157.448 216.747 159.122C216.747 160.795 218.104 162.152 219.777 162.152Z" fill="#C0D7E0" fill-opacity="0.5"/>
<path d="M219.777 177.302C221.451 177.302 222.808 175.945 222.808 174.272C222.808 172.599 221.451 171.242 219.777 171.242C218.104 171.242 216.747 172.599 216.747 174.272C216.747 175.945 218.104 177.302 219.777 177.302Z" fill="#C0D7E0" fill-opacity="0.5"/>
<path d="M219.777 192.452C221.451 192.452 222.808 191.096 222.808 189.422C222.808 187.749 221.451 186.392 219.777 186.392C218.104 186.392 216.747 187.749 216.747 189.422C216.747 191.096 218.104 192.452 219.777 192.452Z" fill="#C0D7E0" fill-opacity="0.5"/>
<path d="M219.777 207.602C221.451 207.602 222.808 206.246 222.808 204.572C222.808 202.899 221.451 201.542 219.777 201.542C218.104 201.542 216.747 202.899 216.747 204.572C216.747 206.246 218.104 207.602 219.777 207.602Z" fill="#C0D7E0" fill-opacity="0.5"/>
<path d="M219.777 222.752C221.451 222.752 222.808 221.396 222.808 219.722C222.808 218.049 221.451 216.692 219.777 216.692C218.104 216.692 216.747 218.049 216.747 219.722C216.747 221.396 218.104 222.752 219.777 222.752Z" fill="#C0D7E0" fill-opacity="0.5"/>
<path d="M219.777 237.903C221.451 237.903 222.808 236.546 222.808 234.873C222.808 233.199 221.451 231.843 219.777 231.843C218.104 231.843 216.747 233.199 216.747 234.873C216.747 236.546 218.104 237.903 219.777 237.903Z" fill="#C0D7E0" fill-opacity="0.5"/>
<path d="M219.777 253.053C221.451 253.053 222.808 251.696 222.808 250.023C222.808 248.349 221.451 246.993 219.777 246.993C218.104 246.993 216.747 248.349 216.747 250.023C216.747 251.696 218.104 253.053 219.777 253.053Z" fill="#C0D7E0" fill-opacity="0.5"/>
<path d="M219.777 268.203C221.451 268.203 222.808 266.846 222.808 265.173C222.808 263.499 221.451 262.143 219.777 262.143C218.104 262.143 216.747 263.499 216.747 265.173C216.747 266.846 218.104 268.203 219.777 268.203Z" fill="#C0D7E0" fill-opacity="0.5"/>
<path d="M204.627 10.6504C206.301 10.6504 207.657 9.29383 207.657 7.62039C207.657 5.94695 206.301 4.59033 204.627 4.59033C202.954 4.59033 201.597 5.94695 201.597 7.62039C201.597 9.29383 202.954 10.6504 204.627 10.6504Z" fill="#C0D7E0" fill-opacity="0.5"/>
<path d="M204.627 25.8005C206.301 25.8005 207.657 24.444 207.657 22.7705C207.657 21.0971 206.301 19.7405 204.627 19.7405C202.954 19.7405 201.597 21.0971 201.597 22.7705C201.597 24.444 202.954 25.8005 204.627 25.8005Z" fill="#C0D7E0" fill-opacity="0.5"/>
<path d="M204.627 40.9507C206.301 40.9507 207.657 39.5941 207.657 37.9207C207.657 36.2472 206.301 34.8906 204.627 34.8906C202.954 34.8906 201.597 36.2472 201.597 37.9207C201.597 39.5941 202.954 40.9507 204.627 40.9507Z" fill="#C0D7E0" fill-opacity="0.5"/>
<path d="M204.627 56.1008C206.301 56.1008 207.657 54.7443 207.657 53.0708C207.657 51.3974 206.301 50.0408 204.627 50.0408C202.954 50.0408 201.597 51.3974 201.597 53.0708C201.597 54.7443 202.954 56.1008 204.627 56.1008Z" fill="#C0D7E0" fill-opacity="0.5"/>
<path d="M204.627 71.251C206.301 71.251 207.657 69.8944 207.657 68.221C207.657 66.5475 206.301 65.1909 204.627 65.1909C202.954 65.1909 201.597 66.5475 201.597 68.221C201.597 69.8944 202.954 71.251 204.627 71.251Z" fill="#C0D7E0" fill-opacity="0.5"/>
<path d="M204.627 86.4011C206.301 86.4011 207.657 85.0446 207.657 83.3711C207.657 81.6977 206.301 80.3411 204.627 80.3411C202.954 80.3411 201.597 81.6977 201.597 83.3711C201.597 85.0446 202.954 86.4011 204.627 86.4011Z" fill="#C0D7E0" fill-opacity="0.5"/>
<path d="M204.627 101.551C206.301 101.551 207.657 100.195 207.657 98.5213C207.657 96.8478 206.301 95.4912 204.627 95.4912C202.954 95.4912 201.597 96.8478 201.597 98.5213C201.597 100.195 202.954 101.551 204.627 101.551Z" fill="#C0D7E0" fill-opacity="0.5"/>
<path d="M204.627 116.701C206.301 116.701 207.657 115.345 207.657 113.671C207.657 111.998 206.301 110.641 204.627 110.641C202.954 110.641 201.597 111.998 201.597 113.671C201.597 115.345 202.954 116.701 204.627 116.701Z" fill="#C0D7E0" fill-opacity="0.5"/>
<path d="M204.627 131.852C206.301 131.852 207.657 130.495 207.657 128.822C207.657 127.148 206.301 125.792 204.627 125.792C202.954 125.792 201.597 127.148 201.597 128.822C201.597 130.495 202.954 131.852 204.627 131.852Z" fill="#C0D7E0" fill-opacity="0.5"/>
<path d="M204.627 147.002C206.301 147.002 207.657 145.645 207.657 143.972C207.657 142.298 206.301 140.942 204.627 140.942C202.954 140.942 201.597 142.298 201.597 143.972C201.597 145.645 202.954 147.002 204.627 147.002Z" fill="#C0D7E0" fill-opacity="0.5"/>
<path d="M204.627 162.152C206.301 162.152 207.657 160.795 207.657 159.122C207.657 157.448 206.301 156.092 204.627 156.092C202.954 156.092 201.597 157.448 201.597 159.122C201.597 160.795 202.954 162.152 204.627 162.152Z" fill="#C0D7E0" fill-opacity="0.5"/>
<path d="M204.627 177.302C206.301 177.302 207.657 175.945 207.657 174.272C207.657 172.599 206.301 171.242 204.627 171.242C202.954 171.242 201.597 172.599 201.597 174.272C201.597 175.945 202.954 177.302 204.627 177.302Z" fill="#C0D7E0" fill-opacity="0.5"/>
<path d="M204.627 192.452C206.301 192.452 207.657 191.096 207.657 189.422C207.657 187.749 206.301 186.392 204.627 186.392C202.954 186.392 201.597 187.749 201.597 189.422C201.597 191.096 202.954 192.452 204.627 192.452Z" fill="#C0D7E0" fill-opacity="0.5"/>
<path d="M204.627 207.602C206.301 207.602 207.657 206.246 207.657 204.572C207.657 202.899 206.301 201.542 204.627 201.542C202.954 201.542 201.597 202.899 201.597 204.572C201.597 206.246 202.954 207.602 204.627 207.602Z" fill="#C0D7E0" fill-opacity="0.5"/>
<path d="M204.627 222.752C206.301 222.752 207.657 221.396 207.657 219.722C207.657 218.049 206.301 216.692 204.627 216.692C202.954 216.692 201.597 218.049 201.597 219.722C201.597 221.396 202.954 222.752 204.627 222.752Z" fill="#C0D7E0" fill-opacity="0.5"/>
<path d="M204.627 237.903C206.301 237.903 207.657 236.546 207.657 234.873C207.657 233.199 206.301 231.843 204.627 231.843C202.954 231.843 201.597 233.199 201.597 234.873C201.597 236.546 202.954 237.903 204.627 237.903Z" fill="#C0D7E0" fill-opacity="0.5"/>
<path d="M204.627 253.053C206.301 253.053 207.657 251.696 207.657 250.023C207.657 248.349 206.301 246.993 204.627 246.993C202.954 246.993 201.597 248.349 201.597 250.023C201.597 251.696 202.954 253.053 204.627 253.053Z" fill="#C0D7E0" fill-opacity="0.5"/>
<path d="M204.627 268.203C206.301 268.203 207.657 266.846 207.657 265.173C207.657 263.499 206.301 262.143 204.627 262.143C202.954 262.143 201.597 263.499 201.597 265.173C201.597 266.846 202.954 268.203 204.627 268.203Z" fill="#C0D7E0" fill-opacity="0.5"/>
<path d="M189.477 10.6504C191.151 10.6504 192.507 9.29383 192.507 7.62039C192.507 5.94695 191.151 4.59033 189.477 4.59033C187.804 4.59033 186.447 5.94695 186.447 7.62039C186.447 9.29383 187.804 10.6504 189.477 10.6504Z" fill="#C0D7E0" fill-opacity="0.5"/>
<path d="M189.477 25.8005C191.151 25.8005 192.507 24.444 192.507 22.7705C192.507 21.0971 191.151 19.7405 189.477 19.7405C187.804 19.7405 186.447 21.0971 186.447 22.7705C186.447 24.444 187.804 25.8005 189.477 25.8005Z" fill="#C0D7E0" fill-opacity="0.5"/>
<path d="M189.477 40.9507C191.151 40.9507 192.507 39.5941 192.507 37.9207C192.507 36.2472 191.151 34.8906 189.477 34.8906C187.804 34.8906 186.447 36.2472 186.447 37.9207C186.447 39.5941 187.804 40.9507 189.477 40.9507Z" fill="#C0D7E0" fill-opacity="0.5"/>
<path d="M189.477 56.1008C191.151 56.1008 192.507 54.7443 192.507 53.0708C192.507 51.3974 191.151 50.0408 189.477 50.0408C187.804 50.0408 186.447 51.3974 186.447 53.0708C186.447 54.7443 187.804 56.1008 189.477 56.1008Z" fill="#C0D7E0" fill-opacity="0.5"/>
<path d="M189.477 71.251C191.151 71.251 192.507 69.8944 192.507 68.221C192.507 66.5475 191.151 65.1909 189.477 65.1909C187.804 65.1909 186.447 66.5475 186.447 68.221C186.447 69.8944 187.804 71.251 189.477 71.251Z" fill="#C0D7E0" fill-opacity="0.5"/>
<path d="M189.477 86.4011C191.151 86.4011 192.507 85.0446 192.507 83.3711C192.507 81.6977 191.151 80.3411 189.477 80.3411C187.804 80.3411 186.447 81.6977 186.447 83.3711C186.447 85.0446 187.804 86.4011 189.477 86.4011Z" fill="#C0D7E0" fill-opacity="0.5"/>
<path d="M189.477 101.551C191.151 101.551 192.507 100.195 192.507 98.5213C192.507 96.8478 191.151 95.4912 189.477 95.4912C187.804 95.4912 186.447 96.8478 186.447 98.5213C186.447 100.195 187.804 101.551 189.477 101.551Z" fill="#C0D7E0" fill-opacity="0.5"/>
<path d="M189.477 116.701C191.151 116.701 192.507 115.345 192.507 113.671C192.507 111.998 191.151 110.641 189.477 110.641C187.804 110.641 186.447 111.998 186.447 113.671C186.447 115.345 187.804 116.701 189.477 116.701Z" fill="#C0D7E0" fill-opacity="0.5"/>
<path d="M189.477 131.852C191.151 131.852 192.507 130.495 192.507 128.822C192.507 127.148 191.151 125.792 189.477 125.792C187.804 125.792 186.447 127.148 186.447 128.822C186.447 130.495 187.804 131.852 189.477 131.852Z" fill="#C0D7E0" fill-opacity="0.5"/>
<path d="M189.477 147.002C191.151 147.002 192.507 145.645 192.507 143.972C192.507 142.298 191.151 140.942 189.477 140.942C187.804 140.942 186.447 142.298 186.447 143.972C186.447 145.645 187.804 147.002 189.477 147.002Z" fill="#C0D7E0" fill-opacity="0.5"/>
<path d="M189.477 162.152C191.151 162.152 192.507 160.795 192.507 159.122C192.507 157.448 191.151 156.092 189.477 156.092C187.804 156.092 186.447 157.448 186.447 159.122C186.447 160.795 187.804 162.152 189.477 162.152Z" fill="#C0D7E0" fill-opacity="0.5"/>
<path d="M189.477 177.302C191.151 177.302 192.507 175.945 192.507 174.272C192.507 172.599 191.151 171.242 189.477 171.242C187.804 171.242 186.447 172.599 186.447 174.272C186.447 175.945 187.804 177.302 189.477 177.302Z" fill="#C0D7E0" fill-opacity="0.5"/>
<path d="M189.477 192.452C191.151 192.452 192.507 191.096 192.507 189.422C192.507 187.749 191.151 186.392 189.477 186.392C187.804 186.392 186.447 187.749 186.447 189.422C186.447 191.096 187.804 192.452 189.477 192.452Z" fill="#C0D7E0" fill-opacity="0.5"/>
<path d="M189.477 207.602C191.151 207.602 192.507 206.246 192.507 204.572C192.507 202.899 191.151 201.542 189.477 201.542C187.804 201.542 186.447 202.899 186.447 204.572C186.447 206.246 187.804 207.602 189.477 207.602Z" fill="#C0D7E0" fill-opacity="0.5"/>
<path d="M189.477 222.752C191.151 222.752 192.507 221.396 192.507 219.722C192.507 218.049 191.151 216.692 189.477 216.692C187.804 216.692 186.447 218.049 186.447 219.722C186.447 221.396 187.804 222.752 189.477 222.752Z" fill="#C0D7E0" fill-opacity="0.5"/>
<path d="M189.477 237.903C191.151 237.903 192.507 236.546 192.507 234.873C192.507 233.199 191.151 231.843 189.477 231.843C187.804 231.843 186.447 233.199 186.447 234.873C186.447 236.546 187.804 237.903 189.477 237.903Z" fill="#C0D7E0" fill-opacity="0.5"/>
<path d="M189.477 253.053C191.151 253.053 192.507 251.696 192.507 250.023C192.507 248.349 191.151 246.993 189.477 246.993C187.804 246.993 186.447 248.349 186.447 250.023C186.447 251.696 187.804 253.053 189.477 253.053Z" fill="#C0D7E0" fill-opacity="0.5"/>
<path d="M189.477 268.203C191.151 268.203 192.507 266.846 192.507 265.173C192.507 263.499 191.151 262.143 189.477 262.143C187.804 262.143 186.447 263.499 186.447 265.173C186.447 266.846 187.804 268.203 189.477 268.203Z" fill="#C0D7E0" fill-opacity="0.5"/>
<path d="M174.327 10.6504C176 10.6504 177.357 9.29383 177.357 7.62039C177.357 5.94695 176 4.59033 174.327 4.59033C172.654 4.59033 171.297 5.94695 171.297 7.62039C171.297 9.29383 172.654 10.6504 174.327 10.6504Z" fill="#C0D7E0" fill-opacity="0.5"/>
<path d="M174.327 25.8005C176 25.8005 177.357 24.444 177.357 22.7705C177.357 21.0971 176 19.7405 174.327 19.7405C172.654 19.7405 171.297 21.0971 171.297 22.7705C171.297 24.444 172.654 25.8005 174.327 25.8005Z" fill="#C0D7E0" fill-opacity="0.5"/>
<path d="M174.327 40.9507C176 40.9507 177.357 39.5941 177.357 37.9207C177.357 36.2472 176 34.8906 174.327 34.8906C172.654 34.8906 171.297 36.2472 171.297 37.9207C171.297 39.5941 172.654 40.9507 174.327 40.9507Z" fill="#C0D7E0" fill-opacity="0.5"/>
<path d="M174.327 56.1008C176 56.1008 177.357 54.7443 177.357 53.0708C177.357 51.3974 176 50.0408 174.327 50.0408C172.654 50.0408 171.297 51.3974 171.297 53.0708C171.297 54.7443 172.654 56.1008 174.327 56.1008Z" fill="#C0D7E0" fill-opacity="0.5"/>
<path d="M174.327 71.251C176 71.251 177.357 69.8944 177.357 68.221C177.357 66.5475 176 65.1909 174.327 65.1909C172.654 65.1909 171.297 66.5475 171.297 68.221C171.297 69.8944 172.654 71.251 174.327 71.251Z" fill="#C0D7E0" fill-opacity="0.5"/>
<path d="M174.327 86.4011C176 86.4011 177.357 85.0446 177.357 83.3711C177.357 81.6977 176 80.3411 174.327 80.3411C172.654 80.3411 171.297 81.6977 171.297 83.3711C171.297 85.0446 172.654 86.4011 174.327 86.4011Z" fill="#C0D7E0" fill-opacity="0.5"/>
<path d="M174.327 101.551C176 101.551 177.357 100.195 177.357 98.5213C177.357 96.8478 176 95.4912 174.327 95.4912C172.654 95.4912 171.297 96.8478 171.297 98.5213C171.297 100.195 172.654 101.551 174.327 101.551Z" fill="#C0D7E0" fill-opacity="0.5"/>
<path d="M174.327 116.701C176 116.701 177.357 115.345 177.357 113.671C177.357 111.998 176 110.641 174.327 110.641C172.654 110.641 171.297 111.998 171.297 113.671C171.297 115.345 172.654 116.701 174.327 116.701Z" fill="#C0D7E0" fill-opacity="0.5"/>
<path d="M174.327 131.852C176 131.852 177.357 130.495 177.357 128.822C177.357 127.148 176 125.792 174.327 125.792C172.654 125.792 171.297 127.148 171.297 128.822C171.297 130.495 172.654 131.852 174.327 131.852Z" fill="#C0D7E0" fill-opacity="0.5"/>
<path d="M174.327 147.002C176 147.002 177.357 145.645 177.357 143.972C177.357 142.298 176 140.942 174.327 140.942C172.654 140.942 171.297 142.298 171.297 143.972C171.297 145.645 172.654 147.002 174.327 147.002Z" fill="#C0D7E0" fill-opacity="0.5"/>
<path d="M174.327 162.152C176 162.152 177.357 160.795 177.357 159.122C177.357 157.448 176 156.092 174.327 156.092C172.654 156.092 171.297 157.448 171.297 159.122C171.297 160.795 172.654 162.152 174.327 162.152Z" fill="#C0D7E0" fill-opacity="0.5"/>
<path d="M174.327 177.302C176 177.302 177.357 175.945 177.357 174.272C177.357 172.599 176 171.242 174.327 171.242C172.654 171.242 171.297 172.599 171.297 174.272C171.297 175.945 172.654 177.302 174.327 177.302Z" fill="#C0D7E0" fill-opacity="0.5"/>
<path d="M174.327 192.452C176 192.452 177.357 191.096 177.357 189.422C177.357 187.749 176 186.392 174.327 186.392C172.654 186.392 171.297 187.749 171.297 189.422C171.297 191.096 172.654 192.452 174.327 192.452Z" fill="#C0D7E0" fill-opacity="0.5"/>
<path d="M174.327 207.602C176 207.602 177.357 206.246 177.357 204.572C177.357 202.899 176 201.542 174.327 201.542C172.654 201.542 171.297 202.899 171.297 204.572C171.297 206.246 172.654 207.602 174.327 207.602Z" fill="#C0D7E0" fill-opacity="0.5"/>
<path d="M174.327 222.752C176 222.752 177.357 221.396 177.357 219.722C177.357 218.049 176 216.692 174.327 216.692C172.654 216.692 171.297 218.049 171.297 219.722C171.297 221.396 172.654 222.752 174.327 222.752Z" fill="#C0D7E0" fill-opacity="0.5"/>
<path d="M174.327 237.903C176 237.903 177.357 236.546 177.357 234.873C177.357 233.199 176 231.843 174.327 231.843C172.654 231.843 171.297 233.199 171.297 234.873C171.297 236.546 172.654 237.903 174.327 237.903Z" fill="#C0D7E0" fill-opacity="0.5"/>
<path d="M174.327 253.053C176 253.053 177.357 251.696 177.357 250.023C177.357 248.349 176 246.993 174.327 246.993C172.654 246.993 171.297 248.349 171.297 250.023C171.297 251.696 172.654 253.053 174.327 253.053Z" fill="#C0D7E0" fill-opacity="0.5"/>
<path d="M174.327 268.203C176 268.203 177.357 266.846 177.357 265.173C177.357 263.499 176 262.143 174.327 262.143C172.654 262.143 171.297 263.499 171.297 265.173C171.297 266.846 172.654 268.203 174.327 268.203Z" fill="#C0D7E0" fill-opacity="0.5"/>
<path d="M159.177 10.6504C160.85 10.6504 162.207 9.29383 162.207 7.62039C162.207 5.94695 160.85 4.59033 159.177 4.59033C157.503 4.59033 156.147 5.94695 156.147 7.62039C156.147 9.29383 157.503 10.6504 159.177 10.6504Z" fill="#C0D7E0" fill-opacity="0.5"/>
<path d="M159.177 25.8005C160.85 25.8005 162.207 24.444 162.207 22.7705C162.207 21.0971 160.85 19.7405 159.177 19.7405C157.503 19.7405 156.147 21.0971 156.147 22.7705C156.147 24.444 157.503 25.8005 159.177 25.8005Z" fill="#C0D7E0" fill-opacity="0.5"/>
<path d="M159.177 40.9507C160.85 40.9507 162.207 39.5941 162.207 37.9207C162.207 36.2472 160.85 34.8906 159.177 34.8906C157.503 34.8906 156.147 36.2472 156.147 37.9207C156.147 39.5941 157.503 40.9507 159.177 40.9507Z" fill="#C0D7E0" fill-opacity="0.5"/>
<path d="M159.177 56.1008C160.85 56.1008 162.207 54.7443 162.207 53.0708C162.207 51.3974 160.85 50.0408 159.177 50.0408C157.503 50.0408 156.147 51.3974 156.147 53.0708C156.147 54.7443 157.503 56.1008 159.177 56.1008Z" fill="#C0D7E0" fill-opacity="0.5"/>
<path d="M159.177 71.251C160.85 71.251 162.207 69.8944 162.207 68.221C162.207 66.5475 160.85 65.1909 159.177 65.1909C157.503 65.1909 156.147 66.5475 156.147 68.221C156.147 69.8944 157.503 71.251 159.177 71.251Z" fill="#C0D7E0" fill-opacity="0.5"/>
<path d="M159.177 86.4011C160.85 86.4011 162.207 85.0446 162.207 83.3711C162.207 81.6977 160.85 80.3411 159.177 80.3411C157.503 80.3411 156.147 81.6977 156.147 83.3711C156.147 85.0446 157.503 86.4011 159.177 86.4011Z" fill="#C0D7E0" fill-opacity="0.5"/>
<path d="M159.177 101.551C160.85 101.551 162.207 100.195 162.207 98.5213C162.207 96.8478 160.85 95.4912 159.177 95.4912C157.503 95.4912 156.147 96.8478 156.147 98.5213C156.147 100.195 157.503 101.551 159.177 101.551Z" fill="#C0D7E0" fill-opacity="0.5"/>
<path d="M159.177 116.701C160.85 116.701 162.207 115.345 162.207 113.671C162.207 111.998 160.85 110.641 159.177 110.641C157.503 110.641 156.147 111.998 156.147 113.671C156.147 115.345 157.503 116.701 159.177 116.701Z" fill="#C0D7E0" fill-opacity="0.5"/>
<path d="M159.177 131.852C160.85 131.852 162.207 130.495 162.207 128.822C162.207 127.148 160.85 125.792 159.177 125.792C157.503 125.792 156.147 127.148 156.147 128.822C156.147 130.495 157.503 131.852 159.177 131.852Z" fill="#C0D7E0" fill-opacity="0.5"/>
<path d="M159.177 147.002C160.85 147.002 162.207 145.645 162.207 143.972C162.207 142.298 160.85 140.942 159.177 140.942C157.503 140.942 156.147 142.298 156.147 143.972C156.147 145.645 157.503 147.002 159.177 147.002Z" fill="#C0D7E0" fill-opacity="0.5"/>
<path d="M159.177 162.152C160.85 162.152 162.207 160.795 162.207 159.122C162.207 157.448 160.85 156.092 159.177 156.092C157.503 156.092 156.147 157.448 156.147 159.122C156.147 160.795 157.503 162.152 159.177 162.152Z" fill="#C0D7E0" fill-opacity="0.5"/>
<path d="M159.177 177.302C160.85 177.302 162.207 175.945 162.207 174.272C162.207 172.599 160.85 171.242 159.177 171.242C157.503 171.242 156.147 172.599 156.147 174.272C156.147 175.945 157.503 177.302 159.177 177.302Z" fill="#C0D7E0" fill-opacity="0.5"/>
<path d="M159.177 192.452C160.85 192.452 162.207 191.096 162.207 189.422C162.207 187.749 160.85 186.392 159.177 186.392C157.503 186.392 156.147 187.749 156.147 189.422C156.147 191.096 157.503 192.452 159.177 192.452Z" fill="#C0D7E0" fill-opacity="0.5"/>
<path d="M159.177 207.602C160.85 207.602 162.207 206.246 162.207 204.572C162.207 202.899 160.85 201.542 159.177 201.542C157.503 201.542 156.147 202.899 156.147 204.572C156.147 206.246 157.503 207.602 159.177 207.602Z" fill="#C0D7E0" fill-opacity="0.5"/>
<path d="M159.177 222.752C160.85 222.752 162.207 221.396 162.207 219.722C162.207 218.049 160.85 216.692 159.177 216.692C157.503 216.692 156.147 218.049 156.147 219.722C156.147 221.396 157.503 222.752 159.177 222.752Z" fill="#C0D7E0" fill-opacity="0.5"/>
<path d="M159.177 237.903C160.85 237.903 162.207 236.546 162.207 234.873C162.207 233.199 160.85 231.843 159.177 231.843C157.503 231.843 156.147 233.199 156.147 234.873C156.147 236.546 157.503 237.903 159.177 237.903Z" fill="#C0D7E0" fill-opacity="0.5"/>
<path d="M159.177 253.053C160.85 253.053 162.207 251.696 162.207 250.023C162.207 248.349 160.85 246.993 159.177 246.993C157.503 246.993 156.147 248.349 156.147 250.023C156.147 251.696 157.503 253.053 159.177 253.053Z" fill="#C0D7E0" fill-opacity="0.5"/>
<path d="M159.177 268.203C160.85 268.203 162.207 266.846 162.207 265.173C162.207 263.499 160.85 262.143 159.177 262.143C157.503 262.143 156.147 263.499 156.147 265.173C156.147 266.846 157.503 268.203 159.177 268.203Z" fill="#C0D7E0" fill-opacity="0.5"/>
<path d="M144.027 10.6504C145.7 10.6504 147.057 9.29383 147.057 7.62039C147.057 5.94695 145.7 4.59033 144.027 4.59033C142.353 4.59033 140.997 5.94695 140.997 7.62039C140.997 9.29383 142.353 10.6504 144.027 10.6504Z" fill="#C0D7E0" fill-opacity="0.5"/>
<path d="M144.027 25.8005C145.7 25.8005 147.057 24.444 147.057 22.7705C147.057 21.0971 145.7 19.7405 144.027 19.7405C142.353 19.7405 140.997 21.0971 140.997 22.7705C140.997 24.444 142.353 25.8005 144.027 25.8005Z" fill="#C0D7E0" fill-opacity="0.5"/>
<path d="M144.027 40.9507C145.7 40.9507 147.057 39.5941 147.057 37.9207C147.057 36.2472 145.7 34.8906 144.027 34.8906C142.353 34.8906 140.997 36.2472 140.997 37.9207C140.997 39.5941 142.353 40.9507 144.027 40.9507Z" fill="#C0D7E0" fill-opacity="0.5"/>
<path d="M144.027 56.1008C145.7 56.1008 147.057 54.7443 147.057 53.0708C147.057 51.3974 145.7 50.0408 144.027 50.0408C142.353 50.0408 140.997 51.3974 140.997 53.0708C140.997 54.7443 142.353 56.1008 144.027 56.1008Z" fill="#C0D7E0" fill-opacity="0.5"/>
<path d="M144.027 71.251C145.7 71.251 147.057 69.8944 147.057 68.221C147.057 66.5475 145.7 65.1909 144.027 65.1909C142.353 65.1909 140.997 66.5475 140.997 68.221C140.997 69.8944 142.353 71.251 144.027 71.251Z" fill="#C0D7E0" fill-opacity="0.5"/>
<path d="M144.027 86.4011C145.7 86.4011 147.057 85.0446 147.057 83.3711C147.057 81.6977 145.7 80.3411 144.027 80.3411C142.353 80.3411 140.997 81.6977 140.997 83.3711C140.997 85.0446 142.353 86.4011 144.027 86.4011Z" fill="#C0D7E0" fill-opacity="0.5"/>
<path d="M144.027 101.551C145.7 101.551 147.057 100.195 147.057 98.5213C147.057 96.8478 145.7 95.4912 144.027 95.4912C142.353 95.4912 140.997 96.8478 140.997 98.5213C140.997 100.195 142.353 101.551 144.027 101.551Z" fill="#C0D7E0" fill-opacity="0.5"/>
<path d="M144.027 116.701C145.7 116.701 147.057 115.345 147.057 113.671C147.057 111.998 145.7 110.641 144.027 110.641C142.353 110.641 140.997 111.998 140.997 113.671C140.997 115.345 142.353 116.701 144.027 116.701Z" fill="#C0D7E0" fill-opacity="0.5"/>
<path d="M144.027 131.852C145.7 131.852 147.057 130.495 147.057 128.822C147.057 127.148 145.7 125.792 144.027 125.792C142.353 125.792 140.997 127.148 140.997 128.822C140.997 130.495 142.353 131.852 144.027 131.852Z" fill="#C0D7E0" fill-opacity="0.5"/>
<path d="M144.027 147.002C145.7 147.002 147.057 145.645 147.057 143.972C147.057 142.298 145.7 140.942 144.027 140.942C142.353 140.942 140.997 142.298 140.997 143.972C140.997 145.645 142.353 147.002 144.027 147.002Z" fill="#C0D7E0" fill-opacity="0.5"/>
<path d="M144.027 162.152C145.7 162.152 147.057 160.795 147.057 159.122C147.057 157.448 145.7 156.092 144.027 156.092C142.353 156.092 140.997 157.448 140.997 159.122C140.997 160.795 142.353 162.152 144.027 162.152Z" fill="#C0D7E0" fill-opacity="0.5"/>
<path d="M144.027 177.302C145.7 177.302 147.057 175.945 147.057 174.272C147.057 172.599 145.7 171.242 144.027 171.242C142.353 171.242 140.997 172.599 140.997 174.272C140.997 175.945 142.353 177.302 144.027 177.302Z" fill="#C0D7E0" fill-opacity="0.5"/>
<path d="M144.027 192.452C145.7 192.452 147.057 191.096 147.057 189.422C147.057 187.749 145.7 186.392 144.027 186.392C142.353 186.392 140.997 187.749 140.997 189.422C140.997 191.096 142.353 192.452 144.027 192.452Z" fill="#C0D7E0" fill-opacity="0.5"/>
<path d="M144.027 207.602C145.7 207.602 147.057 206.246 147.057 204.572C147.057 202.899 145.7 201.542 144.027 201.542C142.353 201.542 140.997 202.899 140.997 204.572C140.997 206.246 142.353 207.602 144.027 207.602Z" fill="#C0D7E0" fill-opacity="0.5"/>
<path d="M144.027 222.752C145.7 222.752 147.057 221.396 147.057 219.722C147.057 218.049 145.7 216.692 144.027 216.692C142.353 216.692 140.997 218.049 140.997 219.722C140.997 221.396 142.353 222.752 144.027 222.752Z" fill="#C0D7E0" fill-opacity="0.5"/>
<path d="M144.027 237.903C145.7 237.903 147.057 236.546 147.057 234.873C147.057 233.199 145.7 231.843 144.027 231.843C142.353 231.843 140.997 233.199 140.997 234.873C140.997 236.546 142.353 237.903 144.027 237.903Z" fill="#C0D7E0" fill-opacity="0.5"/>
<path d="M144.027 253.053C145.7 253.053 147.057 251.696 147.057 250.023C147.057 248.349 145.7 246.993 144.027 246.993C142.353 246.993 140.997 248.349 140.997 250.023C140.997 251.696 142.353 253.053 144.027 253.053Z" fill="#C0D7E0" fill-opacity="0.5"/>
<path d="M144.027 268.203C145.7 268.203 147.057 266.846 147.057 265.173C147.057 263.499 145.7 262.143 144.027 262.143C142.353 262.143 140.997 263.499 140.997 265.173C140.997 266.846 142.353 268.203 144.027 268.203Z" fill="#C0D7E0" fill-opacity="0.5"/>
<path d="M128.877 10.6504C130.55 10.6504 131.907 9.29383 131.907 7.62039C131.907 5.94695 130.55 4.59033 128.877 4.59033C127.203 4.59033 125.847 5.94695 125.847 7.62039C125.847 9.29383 127.203 10.6504 128.877 10.6504Z" fill="#C0D7E0" fill-opacity="0.5"/>
<path d="M128.877 25.8005C130.55 25.8005 131.907 24.444 131.907 22.7705C131.907 21.0971 130.55 19.7405 128.877 19.7405C127.203 19.7405 125.847 21.0971 125.847 22.7705C125.847 24.444 127.203 25.8005 128.877 25.8005Z" fill="#C0D7E0" fill-opacity="0.5"/>
<path d="M128.877 40.9507C130.55 40.9507 131.907 39.5941 131.907 37.9207C131.907 36.2472 130.55 34.8906 128.877 34.8906C127.203 34.8906 125.847 36.2472 125.847 37.9207C125.847 39.5941 127.203 40.9507 128.877 40.9507Z" fill="#C0D7E0" fill-opacity="0.5"/>
<path d="M128.877 56.1008C130.55 56.1008 131.907 54.7443 131.907 53.0708C131.907 51.3974 130.55 50.0408 128.877 50.0408C127.203 50.0408 125.847 51.3974 125.847 53.0708C125.847 54.7443 127.203 56.1008 128.877 56.1008Z" fill="#C0D7E0" fill-opacity="0.5"/>
<path d="M128.877 71.251C130.55 71.251 131.907 69.8944 131.907 68.221C131.907 66.5475 130.55 65.1909 128.877 65.1909C127.203 65.1909 125.847 66.5475 125.847 68.221C125.847 69.8944 127.203 71.251 128.877 71.251Z" fill="#C0D7E0" fill-opacity="0.5"/>
<path d="M128.877 86.4011C130.55 86.4011 131.907 85.0446 131.907 83.3711C131.907 81.6977 130.55 80.3411 128.877 80.3411C127.203 80.3411 125.847 81.6977 125.847 83.3711C125.847 85.0446 127.203 86.4011 128.877 86.4011Z" fill="#C0D7E0" fill-opacity="0.5"/>
<path d="M128.877 101.551C130.55 101.551 131.907 100.195 131.907 98.5213C131.907 96.8478 130.55 95.4912 128.877 95.4912C127.203 95.4912 125.847 96.8478 125.847 98.5213C125.847 100.195 127.203 101.551 128.877 101.551Z" fill="#C0D7E0" fill-opacity="0.5"/>
<path d="M128.877 116.701C130.55 116.701 131.907 115.345 131.907 113.671C131.907 111.998 130.55 110.641 128.877 110.641C127.203 110.641 125.847 111.998 125.847 113.671C125.847 115.345 127.203 116.701 128.877 116.701Z" fill="#C0D7E0" fill-opacity="0.5"/>
<path d="M128.877 131.852C130.55 131.852 131.907 130.495 131.907 128.822C131.907 127.148 130.55 125.792 128.877 125.792C127.203 125.792 125.847 127.148 125.847 128.822C125.847 130.495 127.203 131.852 128.877 131.852Z" fill="#C0D7E0" fill-opacity="0.5"/>
<path d="M128.877 147.002C130.55 147.002 131.907 145.645 131.907 143.972C131.907 142.298 130.55 140.942 128.877 140.942C127.203 140.942 125.847 142.298 125.847 143.972C125.847 145.645 127.203 147.002 128.877 147.002Z" fill="#C0D7E0" fill-opacity="0.5"/>
<path d="M128.877 162.152C130.55 162.152 131.907 160.795 131.907 159.122C131.907 157.448 130.55 156.092 128.877 156.092C127.203 156.092 125.847 157.448 125.847 159.122C125.847 160.795 127.203 162.152 128.877 162.152Z" fill="#C0D7E0" fill-opacity="0.5"/>
<path d="M128.877 177.302C130.55 177.302 131.907 175.945 131.907 174.272C131.907 172.599 130.55 171.242 128.877 171.242C127.203 171.242 125.847 172.599 125.847 174.272C125.847 175.945 127.203 177.302 128.877 177.302Z" fill="#C0D7E0" fill-opacity="0.5"/>
<path d="M128.877 192.452C130.55 192.452 131.907 191.096 131.907 189.422C131.907 187.749 130.55 186.392 128.877 186.392C127.203 186.392 125.847 187.749 125.847 189.422C125.847 191.096 127.203 192.452 128.877 192.452Z" fill="#C0D7E0" fill-opacity="0.5"/>
<path d="M128.877 207.602C130.55 207.602 131.907 206.246 131.907 204.572C131.907 202.899 130.55 201.542 128.877 201.542C127.203 201.542 125.847 202.899 125.847 204.572C125.847 206.246 127.203 207.602 128.877 207.602Z" fill="#C0D7E0" fill-opacity="0.5"/>
<path d="M128.877 222.752C130.55 222.752 131.907 221.396 131.907 219.722C131.907 218.049 130.55 216.692 128.877 216.692C127.203 216.692 125.847 218.049 125.847 219.722C125.847 221.396 127.203 222.752 128.877 222.752Z" fill="#C0D7E0" fill-opacity="0.5"/>
<path d="M128.877 237.903C130.55 237.903 131.907 236.546 131.907 234.873C131.907 233.199 130.55 231.843 128.877 231.843C127.203 231.843 125.847 233.199 125.847 234.873C125.847 236.546 127.203 237.903 128.877 237.903Z" fill="#C0D7E0" fill-opacity="0.5"/>
<path d="M128.877 253.053C130.55 253.053 131.907 251.696 131.907 250.023C131.907 248.349 130.55 246.993 128.877 246.993C127.203 246.993 125.847 248.349 125.847 250.023C125.847 251.696 127.203 253.053 128.877 253.053Z" fill="#C0D7E0" fill-opacity="0.5"/>
<path d="M128.877 268.203C130.55 268.203 131.907 266.846 131.907 265.173C131.907 263.499 130.55 262.143 128.877 262.143C127.203 262.143 125.847 263.499 125.847 265.173C125.847 266.846 127.203 268.203 128.877 268.203Z" fill="#C0D7E0" fill-opacity="0.5"/>
<path d="M113.726 10.6504C115.4 10.6504 116.756 9.29383 116.756 7.62039C116.756 5.94695 115.4 4.59033 113.726 4.59033C112.053 4.59033 110.696 5.94695 110.696 7.62039C110.696 9.29383 112.053 10.6504 113.726 10.6504Z" fill="#C0D7E0" fill-opacity="0.5"/>
<path d="M113.726 25.8005C115.4 25.8005 116.756 24.444 116.756 22.7705C116.756 21.0971 115.4 19.7405 113.726 19.7405C112.053 19.7405 110.696 21.0971 110.696 22.7705C110.696 24.444 112.053 25.8005 113.726 25.8005Z" fill="#C0D7E0" fill-opacity="0.5"/>
<path d="M113.726 40.9507C115.4 40.9507 116.756 39.5941 116.756 37.9207C116.756 36.2472 115.4 34.8906 113.726 34.8906C112.053 34.8906 110.696 36.2472 110.696 37.9207C110.696 39.5941 112.053 40.9507 113.726 40.9507Z" fill="#C0D7E0" fill-opacity="0.5"/>
<path d="M113.726 56.1008C115.4 56.1008 116.756 54.7443 116.756 53.0708C116.756 51.3974 115.4 50.0408 113.726 50.0408C112.053 50.0408 110.696 51.3974 110.696 53.0708C110.696 54.7443 112.053 56.1008 113.726 56.1008Z" fill="#C0D7E0" fill-opacity="0.5"/>
<path d="M113.726 71.251C115.4 71.251 116.756 69.8944 116.756 68.221C116.756 66.5475 115.4 65.1909 113.726 65.1909C112.053 65.1909 110.696 66.5475 110.696 68.221C110.696 69.8944 112.053 71.251 113.726 71.251Z" fill="#C0D7E0" fill-opacity="0.5"/>
<path d="M113.726 86.4011C115.4 86.4011 116.756 85.0446 116.756 83.3711C116.756 81.6977 115.4 80.3411 113.726 80.3411C112.053 80.3411 110.696 81.6977 110.696 83.3711C110.696 85.0446 112.053 86.4011 113.726 86.4011Z" fill="#C0D7E0" fill-opacity="0.5"/>
<path d="M113.726 101.551C115.4 101.551 116.756 100.195 116.756 98.5213C116.756 96.8478 115.4 95.4912 113.726 95.4912C112.053 95.4912 110.696 96.8478 110.696 98.5213C110.696 100.195 112.053 101.551 113.726 101.551Z" fill="#C0D7E0" fill-opacity="0.5"/>
<path d="M113.726 116.701C115.4 116.701 116.756 115.345 116.756 113.671C116.756 111.998 115.4 110.641 113.726 110.641C112.053 110.641 110.696 111.998 110.696 113.671C110.696 115.345 112.053 116.701 113.726 116.701Z" fill="#C0D7E0" fill-opacity="0.5"/>
<path d="M113.726 131.852C115.4 131.852 116.756 130.495 116.756 128.822C116.756 127.148 115.4 125.792 113.726 125.792C112.053 125.792 110.696 127.148 110.696 128.822C110.696 130.495 112.053 131.852 113.726 131.852Z" fill="#C0D7E0" fill-opacity="0.5"/>
<path d="M113.726 147.002C115.4 147.002 116.756 145.645 116.756 143.972C116.756 142.298 115.4 140.942 113.726 140.942C112.053 140.942 110.696 142.298 110.696 143.972C110.696 145.645 112.053 147.002 113.726 147.002Z" fill="#C0D7E0" fill-opacity="0.5"/>
<path d="M113.726 162.152C115.4 162.152 116.756 160.795 116.756 159.122C116.756 157.448 115.4 156.092 113.726 156.092C112.053 156.092 110.696 157.448 110.696 159.122C110.696 160.795 112.053 162.152 113.726 162.152Z" fill="#C0D7E0" fill-opacity="0.5"/>
<path d="M113.726 177.302C115.4 177.302 116.756 175.945 116.756 174.272C116.756 172.599 115.4 171.242 113.726 171.242C112.053 171.242 110.696 172.599 110.696 174.272C110.696 175.945 112.053 177.302 113.726 177.302Z" fill="#C0D7E0" fill-opacity="0.5"/>
<path d="M113.726 192.452C115.4 192.452 116.756 191.096 116.756 189.422C116.756 187.749 115.4 186.392 113.726 186.392C112.053 186.392 110.696 187.749 110.696 189.422C110.696 191.096 112.053 192.452 113.726 192.452Z" fill="#C0D7E0" fill-opacity="0.5"/>
<path d="M113.726 207.602C115.4 207.602 116.756 206.246 116.756 204.572C116.756 202.899 115.4 201.542 113.726 201.542C112.053 201.542 110.696 202.899 110.696 204.572C110.696 206.246 112.053 207.602 113.726 207.602Z" fill="#C0D7E0" fill-opacity="0.5"/>
<path d="M113.726 222.752C115.4 222.752 116.756 221.396 116.756 219.722C116.756 218.049 115.4 216.692 113.726 216.692C112.053 216.692 110.696 218.049 110.696 219.722C110.696 221.396 112.053 222.752 113.726 222.752Z" fill="#C0D7E0" fill-opacity="0.5"/>
<path d="M113.726 237.903C115.4 237.903 116.756 236.546 116.756 234.873C116.756 233.199 115.4 231.843 113.726 231.843C112.053 231.843 110.696 233.199 110.696 234.873C110.696 236.546 112.053 237.903 113.726 237.903Z" fill="#C0D7E0" fill-opacity="0.5"/>
<path d="M113.726 253.053C115.4 253.053 116.756 251.696 116.756 250.023C116.756 248.349 115.4 246.993 113.726 246.993C112.053 246.993 110.696 248.349 110.696 250.023C110.696 251.696 112.053 253.053 113.726 253.053Z" fill="#C0D7E0" fill-opacity="0.5"/>
<path d="M113.726 268.203C115.4 268.203 116.756 266.846 116.756 265.173C116.756 263.499 115.4 262.143 113.726 262.143C112.053 262.143 110.696 263.499 110.696 265.173C110.696 266.846 112.053 268.203 113.726 268.203Z" fill="#C0D7E0" fill-opacity="0.5"/>
<path d="M98.5762 10.6504C100.25 10.6504 101.606 9.29383 101.606 7.62039C101.606 5.94695 100.25 4.59033 98.5762 4.59033C96.9027 4.59033 95.5461 5.94695 95.5461 7.62039C95.5461 9.29383 96.9027 10.6504 98.5762 10.6504Z" fill="#C0D7E0" fill-opacity="0.5"/>
<path d="M98.5762 25.8005C100.25 25.8005 101.606 24.444 101.606 22.7705C101.606 21.0971 100.25 19.7405 98.5762 19.7405C96.9027 19.7405 95.5461 21.0971 95.5461 22.7705C95.5461 24.444 96.9027 25.8005 98.5762 25.8005Z" fill="#C0D7E0" fill-opacity="0.5"/>
<path d="M98.5762 40.9507C100.25 40.9507 101.606 39.5941 101.606 37.9207C101.606 36.2472 100.25 34.8906 98.5762 34.8906C96.9027 34.8906 95.5461 36.2472 95.5461 37.9207C95.5461 39.5941 96.9027 40.9507 98.5762 40.9507Z" fill="#C0D7E0" fill-opacity="0.5"/>
<path d="M98.5762 56.1008C100.25 56.1008 101.606 54.7443 101.606 53.0708C101.606 51.3974 100.25 50.0408 98.5762 50.0408C96.9027 50.0408 95.5461 51.3974 95.5461 53.0708C95.5461 54.7443 96.9027 56.1008 98.5762 56.1008Z" fill="#C0D7E0" fill-opacity="0.5"/>
<path d="M98.5762 71.251C100.25 71.251 101.606 69.8944 101.606 68.221C101.606 66.5475 100.25 65.1909 98.5762 65.1909C96.9027 65.1909 95.5461 66.5475 95.5461 68.221C95.5461 69.8944 96.9027 71.251 98.5762 71.251Z" fill="#C0D7E0" fill-opacity="0.5"/>
<path d="M98.5762 86.4011C100.25 86.4011 101.606 85.0446 101.606 83.3711C101.606 81.6977 100.25 80.3411 98.5762 80.3411C96.9027 80.3411 95.5461 81.6977 95.5461 83.3711C95.5461 85.0446 96.9027 86.4011 98.5762 86.4011Z" fill="#C0D7E0" fill-opacity="0.5"/>
<path d="M98.5762 101.551C100.25 101.551 101.606 100.195 101.606 98.5213C101.606 96.8478 100.25 95.4912 98.5762 95.4912C96.9027 95.4912 95.5461 96.8478 95.5461 98.5213C95.5461 100.195 96.9027 101.551 98.5762 101.551Z" fill="#C0D7E0" fill-opacity="0.5"/>
<path d="M98.5762 116.701C100.25 116.701 101.606 115.345 101.606 113.671C101.606 111.998 100.25 110.641 98.5762 110.641C96.9027 110.641 95.5461 111.998 95.5461 113.671C95.5461 115.345 96.9027 116.701 98.5762 116.701Z" fill="#C0D7E0" fill-opacity="0.5"/>
<path d="M98.5762 131.852C100.25 131.852 101.606 130.495 101.606 128.822C101.606 127.148 100.25 125.792 98.5762 125.792C96.9027 125.792 95.5461 127.148 95.5461 128.822C95.5461 130.495 96.9027 131.852 98.5762 131.852Z" fill="#C0D7E0" fill-opacity="0.5"/>
<path d="M98.5762 147.002C100.25 147.002 101.606 145.645 101.606 143.972C101.606 142.298 100.25 140.942 98.5762 140.942C96.9027 140.942 95.5461 142.298 95.5461 143.972C95.5461 145.645 96.9027 147.002 98.5762 147.002Z" fill="#C0D7E0" fill-opacity="0.5"/>
<path d="M98.5762 162.152C100.25 162.152 101.606 160.795 101.606 159.122C101.606 157.448 100.25 156.092 98.5762 156.092C96.9027 156.092 95.5461 157.448 95.5461 159.122C95.5461 160.795 96.9027 162.152 98.5762 162.152Z" fill="#C0D7E0" fill-opacity="0.5"/>
<path d="M98.5762 177.302C100.25 177.302 101.606 175.945 101.606 174.272C101.606 172.599 100.25 171.242 98.5762 171.242C96.9027 171.242 95.5461 172.599 95.5461 174.272C95.5461 175.945 96.9027 177.302 98.5762 177.302Z" fill="#C0D7E0" fill-opacity="0.5"/>
<path d="M98.5762 192.452C100.25 192.452 101.606 191.096 101.606 189.422C101.606 187.749 100.25 186.392 98.5762 186.392C96.9027 186.392 95.5461 187.749 95.5461 189.422C95.5461 191.096 96.9027 192.452 98.5762 192.452Z" fill="#C0D7E0" fill-opacity="0.5"/>
<path d="M98.5762 207.602C100.25 207.602 101.606 206.246 101.606 204.572C101.606 202.899 100.25 201.542 98.5762 201.542C96.9027 201.542 95.5461 202.899 95.5461 204.572C95.5461 206.246 96.9027 207.602 98.5762 207.602Z" fill="#C0D7E0" fill-opacity="0.5"/>
<path d="M98.5762 222.752C100.25 222.752 101.606 221.396 101.606 219.722C101.606 218.049 100.25 216.692 98.5762 216.692C96.9027 216.692 95.5461 218.049 95.5461 219.722C95.5461 221.396 96.9027 222.752 98.5762 222.752Z" fill="#C0D7E0" fill-opacity="0.5"/>
<path d="M98.5762 237.903C100.25 237.903 101.606 236.546 101.606 234.873C101.606 233.199 100.25 231.843 98.5762 231.843C96.9027 231.843 95.5461 233.199 95.5461 234.873C95.5461 236.546 96.9027 237.903 98.5762 237.903Z" fill="#C0D7E0" fill-opacity="0.5"/>
<path d="M98.5762 253.053C100.25 253.053 101.606 251.696 101.606 250.023C101.606 248.349 100.25 246.993 98.5762 246.993C96.9027 246.993 95.5461 248.349 95.5461 250.023C95.5461 251.696 96.9027 253.053 98.5762 253.053Z" fill="#C0D7E0" fill-opacity="0.5"/>
<path d="M98.5762 268.203C100.25 268.203 101.606 266.846 101.606 265.173C101.606 263.499 100.25 262.143 98.5762 262.143C96.9027 262.143 95.5461 263.499 95.5461 265.173C95.5461 266.846 96.9027 268.203 98.5762 268.203Z" fill="#C0D7E0" fill-opacity="0.5"/>
<path d="M83.4262 10.6504C85.0996 10.6504 86.4562 9.29383 86.4562 7.62039C86.4562 5.94695 85.0996 4.59033 83.4262 4.59033C81.7527 4.59033 80.3961 5.94695 80.3961 7.62039C80.3961 9.29383 81.7527 10.6504 83.4262 10.6504Z" fill="#C0D7E0" fill-opacity="0.5"/>
<path d="M83.4262 25.8005C85.0996 25.8005 86.4562 24.444 86.4562 22.7705C86.4562 21.0971 85.0996 19.7405 83.4262 19.7405C81.7527 19.7405 80.3961 21.0971 80.3961 22.7705C80.3961 24.444 81.7527 25.8005 83.4262 25.8005Z" fill="#C0D7E0" fill-opacity="0.5"/>
<path d="M83.4262 40.9507C85.0996 40.9507 86.4562 39.5941 86.4562 37.9207C86.4562 36.2472 85.0996 34.8906 83.4262 34.8906C81.7527 34.8906 80.3961 36.2472 80.3961 37.9207C80.3961 39.5941 81.7527 40.9507 83.4262 40.9507Z" fill="#C0D7E0" fill-opacity="0.5"/>
<path d="M83.4262 56.1008C85.0996 56.1008 86.4562 54.7443 86.4562 53.0708C86.4562 51.3974 85.0996 50.0408 83.4262 50.0408C81.7527 50.0408 80.3961 51.3974 80.3961 53.0708C80.3961 54.7443 81.7527 56.1008 83.4262 56.1008Z" fill="#C0D7E0" fill-opacity="0.5"/>
<path d="M83.4262 71.251C85.0996 71.251 86.4562 69.8944 86.4562 68.221C86.4562 66.5475 85.0996 65.1909 83.4262 65.1909C81.7527 65.1909 80.3961 66.5475 80.3961 68.221C80.3961 69.8944 81.7527 71.251 83.4262 71.251Z" fill="#C0D7E0" fill-opacity="0.5"/>
<path d="M83.4262 86.4011C85.0996 86.4011 86.4562 85.0446 86.4562 83.3711C86.4562 81.6977 85.0996 80.3411 83.4262 80.3411C81.7527 80.3411 80.3961 81.6977 80.3961 83.3711C80.3961 85.0446 81.7527 86.4011 83.4262 86.4011Z" fill="#C0D7E0" fill-opacity="0.5"/>
<path d="M83.4262 101.551C85.0996 101.551 86.4562 100.195 86.4562 98.5213C86.4562 96.8478 85.0996 95.4912 83.4262 95.4912C81.7527 95.4912 80.3961 96.8478 80.3961 98.5213C80.3961 100.195 81.7527 101.551 83.4262 101.551Z" fill="#C0D7E0" fill-opacity="0.5"/>
<path d="M83.4262 116.701C85.0996 116.701 86.4562 115.345 86.4562 113.671C86.4562 111.998 85.0996 110.641 83.4262 110.641C81.7527 110.641 80.3961 111.998 80.3961 113.671C80.3961 115.345 81.7527 116.701 83.4262 116.701Z" fill="#C0D7E0" fill-opacity="0.5"/>
<path d="M83.4262 131.852C85.0996 131.852 86.4562 130.495 86.4562 128.822C86.4562 127.148 85.0996 125.792 83.4262 125.792C81.7527 125.792 80.3961 127.148 80.3961 128.822C80.3961 130.495 81.7527 131.852 83.4262 131.852Z" fill="#C0D7E0" fill-opacity="0.5"/>
<path d="M83.4262 147.002C85.0996 147.002 86.4562 145.645 86.4562 143.972C86.4562 142.298 85.0996 140.942 83.4262 140.942C81.7527 140.942 80.3961 142.298 80.3961 143.972C80.3961 145.645 81.7527 147.002 83.4262 147.002Z" fill="#C0D7E0" fill-opacity="0.5"/>
<path d="M83.4262 162.152C85.0996 162.152 86.4562 160.795 86.4562 159.122C86.4562 157.448 85.0996 156.092 83.4262 156.092C81.7527 156.092 80.3961 157.448 80.3961 159.122C80.3961 160.795 81.7527 162.152 83.4262 162.152Z" fill="#C0D7E0" fill-opacity="0.5"/>
<path d="M83.4262 177.302C85.0996 177.302 86.4562 175.945 86.4562 174.272C86.4562 172.599 85.0996 171.242 83.4262 171.242C81.7527 171.242 80.3961 172.599 80.3961 174.272C80.3961 175.945 81.7527 177.302 83.4262 177.302Z" fill="#C0D7E0" fill-opacity="0.5"/>
<path d="M83.4262 192.452C85.0996 192.452 86.4562 191.096 86.4562 189.422C86.4562 187.749 85.0996 186.392 83.4262 186.392C81.7527 186.392 80.3961 187.749 80.3961 189.422C80.3961 191.096 81.7527 192.452 83.4262 192.452Z" fill="#C0D7E0" fill-opacity="0.5"/>
<path d="M83.4262 207.602C85.0996 207.602 86.4562 206.246 86.4562 204.572C86.4562 202.899 85.0996 201.542 83.4262 201.542C81.7527 201.542 80.3961 202.899 80.3961 204.572C80.3961 206.246 81.7527 207.602 83.4262 207.602Z" fill="#C0D7E0" fill-opacity="0.5"/>
<path d="M83.4262 222.752C85.0996 222.752 86.4562 221.396 86.4562 219.722C86.4562 218.049 85.0996 216.692 83.4262 216.692C81.7527 216.692 80.3961 218.049 80.3961 219.722C80.3961 221.396 81.7527 222.752 83.4262 222.752Z" fill="#C0D7E0" fill-opacity="0.5"/>
<path d="M83.4262 237.903C85.0996 237.903 86.4562 236.546 86.4562 234.873C86.4562 233.199 85.0996 231.843 83.4262 231.843C81.7527 231.843 80.3961 233.199 80.3961 234.873C80.3961 236.546 81.7527 237.903 83.4262 237.903Z" fill="#C0D7E0" fill-opacity="0.5"/>
<path d="M83.4262 253.053C85.0996 253.053 86.4562 251.696 86.4562 250.023C86.4562 248.349 85.0996 246.993 83.4262 246.993C81.7527 246.993 80.3961 248.349 80.3961 250.023C80.3961 251.696 81.7527 253.053 83.4262 253.053Z" fill="#C0D7E0" fill-opacity="0.5"/>
<path d="M83.4262 268.203C85.0996 268.203 86.4562 266.846 86.4562 265.173C86.4562 263.499 85.0996 262.143 83.4262 262.143C81.7527 262.143 80.3961 263.499 80.3961 265.173C80.3961 266.846 81.7527 268.203 83.4262 268.203Z" fill="#C0D7E0" fill-opacity="0.5"/>
<path d="M68.276 10.6504C69.9494 10.6504 71.306 9.29383 71.306 7.62039C71.306 5.94695 69.9494 4.59033 68.276 4.59033C66.6026 4.59033 65.246 5.94695 65.246 7.62039C65.246 9.29383 66.6026 10.6504 68.276 10.6504Z" fill="#C0D7E0" fill-opacity="0.5"/>
<path d="M68.276 25.8005C69.9494 25.8005 71.306 24.444 71.306 22.7705C71.306 21.0971 69.9494 19.7405 68.276 19.7405C66.6026 19.7405 65.246 21.0971 65.246 22.7705C65.246 24.444 66.6026 25.8005 68.276 25.8005Z" fill="#C0D7E0" fill-opacity="0.5"/>
<path d="M68.276 40.9507C69.9494 40.9507 71.306 39.5941 71.306 37.9207C71.306 36.2472 69.9494 34.8906 68.276 34.8906C66.6026 34.8906 65.246 36.2472 65.246 37.9207C65.246 39.5941 66.6026 40.9507 68.276 40.9507Z" fill="#C0D7E0" fill-opacity="0.5"/>
<path d="M68.276 56.1008C69.9494 56.1008 71.306 54.7443 71.306 53.0708C71.306 51.3974 69.9494 50.0408 68.276 50.0408C66.6026 50.0408 65.246 51.3974 65.246 53.0708C65.246 54.7443 66.6026 56.1008 68.276 56.1008Z" fill="#C0D7E0" fill-opacity="0.5"/>
<path d="M68.276 71.251C69.9494 71.251 71.306 69.8944 71.306 68.221C71.306 66.5475 69.9494 65.1909 68.276 65.1909C66.6026 65.1909 65.246 66.5475 65.246 68.221C65.246 69.8944 66.6026 71.251 68.276 71.251Z" fill="#C0D7E0" fill-opacity="0.5"/>
<path d="M68.276 86.4011C69.9494 86.4011 71.306 85.0446 71.306 83.3711C71.306 81.6977 69.9494 80.3411 68.276 80.3411C66.6026 80.3411 65.246 81.6977 65.246 83.3711C65.246 85.0446 66.6026 86.4011 68.276 86.4011Z" fill="#C0D7E0" fill-opacity="0.5"/>
<path d="M68.276 101.551C69.9494 101.551 71.306 100.195 71.306 98.5213C71.306 96.8478 69.9494 95.4912 68.276 95.4912C66.6026 95.4912 65.246 96.8478 65.246 98.5213C65.246 100.195 66.6026 101.551 68.276 101.551Z" fill="#C0D7E0" fill-opacity="0.5"/>
<path d="M68.276 116.701C69.9494 116.701 71.306 115.345 71.306 113.671C71.306 111.998 69.9494 110.641 68.276 110.641C66.6026 110.641 65.246 111.998 65.246 113.671C65.246 115.345 66.6026 116.701 68.276 116.701Z" fill="#C0D7E0" fill-opacity="0.5"/>
<path d="M68.276 131.852C69.9494 131.852 71.306 130.495 71.306 128.822C71.306 127.148 69.9494 125.792 68.276 125.792C66.6026 125.792 65.246 127.148 65.246 128.822C65.246 130.495 66.6026 131.852 68.276 131.852Z" fill="#C0D7E0" fill-opacity="0.5"/>
<path d="M68.276 147.002C69.9494 147.002 71.306 145.645 71.306 143.972C71.306 142.298 69.9494 140.942 68.276 140.942C66.6026 140.942 65.246 142.298 65.246 143.972C65.246 145.645 66.6026 147.002 68.276 147.002Z" fill="#C0D7E0" fill-opacity="0.5"/>
<path d="M68.276 162.152C69.9494 162.152 71.306 160.795 71.306 159.122C71.306 157.448 69.9494 156.092 68.276 156.092C66.6026 156.092 65.246 157.448 65.246 159.122C65.246 160.795 66.6026 162.152 68.276 162.152Z" fill="#C0D7E0" fill-opacity="0.5"/>
<path d="M68.276 177.302C69.9494 177.302 71.306 175.945 71.306 174.272C71.306 172.599 69.9494 171.242 68.276 171.242C66.6026 171.242 65.246 172.599 65.246 174.272C65.246 175.945 66.6026 177.302 68.276 177.302Z" fill="#C0D7E0" fill-opacity="0.5"/>
<path d="M68.276 192.452C69.9494 192.452 71.306 191.096 71.306 189.422C71.306 187.749 69.9494 186.392 68.276 186.392C66.6026 186.392 65.246 187.749 65.246 189.422C65.246 191.096 66.6026 192.452 68.276 192.452Z" fill="#C0D7E0" fill-opacity="0.5"/>
<path d="M68.276 207.602C69.9494 207.602 71.306 206.246 71.306 204.572C71.306 202.899 69.9494 201.542 68.276 201.542C66.6026 201.542 65.246 202.899 65.246 204.572C65.246 206.246 66.6026 207.602 68.276 207.602Z" fill="#C0D7E0" fill-opacity="0.5"/>
<path d="M68.276 222.752C69.9494 222.752 71.306 221.396 71.306 219.722C71.306 218.049 69.9494 216.692 68.276 216.692C66.6026 216.692 65.246 218.049 65.246 219.722C65.246 221.396 66.6026 222.752 68.276 222.752Z" fill="#C0D7E0" fill-opacity="0.5"/>
<path d="M68.276 237.903C69.9494 237.903 71.306 236.546 71.306 234.873C71.306 233.199 69.9494 231.843 68.276 231.843C66.6026 231.843 65.246 233.199 65.246 234.873C65.246 236.546 66.6026 237.903 68.276 237.903Z" fill="#C0D7E0" fill-opacity="0.5"/>
<path d="M68.276 253.053C69.9494 253.053 71.306 251.696 71.306 250.023C71.306 248.349 69.9494 246.993 68.276 246.993C66.6026 246.993 65.246 248.349 65.246 250.023C65.246 251.696 66.6026 253.053 68.276 253.053Z" fill="#C0D7E0" fill-opacity="0.5"/>
<path d="M68.276 268.203C69.9494 268.203 71.306 266.846 71.306 265.173C71.306 263.499 69.9494 262.143 68.276 262.143C66.6026 262.143 65.246 263.499 65.246 265.173C65.246 266.846 66.6026 268.203 68.276 268.203Z" fill="#C0D7E0" fill-opacity="0.5"/>
<path d="M53.1259 10.6504C54.7993 10.6504 56.1559 9.29383 56.1559 7.62039C56.1559 5.94695 54.7993 4.59033 53.1259 4.59033C51.4524 4.59033 50.0958 5.94695 50.0958 7.62039C50.0958 9.29383 51.4524 10.6504 53.1259 10.6504Z" fill="#C0D7E0" fill-opacity="0.5"/>
<path d="M53.1259 25.8005C54.7993 25.8005 56.1559 24.444 56.1559 22.7705C56.1559 21.0971 54.7993 19.7405 53.1259 19.7405C51.4524 19.7405 50.0958 21.0971 50.0958 22.7705C50.0958 24.444 51.4524 25.8005 53.1259 25.8005Z" fill="#C0D7E0" fill-opacity="0.5"/>
<path d="M53.1259 40.9507C54.7993 40.9507 56.1559 39.5941 56.1559 37.9207C56.1559 36.2472 54.7993 34.8906 53.1259 34.8906C51.4524 34.8906 50.0958 36.2472 50.0958 37.9207C50.0958 39.5941 51.4524 40.9507 53.1259 40.9507Z" fill="#C0D7E0" fill-opacity="0.5"/>
<path d="M53.1259 56.1008C54.7993 56.1008 56.1559 54.7443 56.1559 53.0708C56.1559 51.3974 54.7993 50.0408 53.1259 50.0408C51.4524 50.0408 50.0958 51.3974 50.0958 53.0708C50.0958 54.7443 51.4524 56.1008 53.1259 56.1008Z" fill="#C0D7E0" fill-opacity="0.5"/>
<path d="M53.1259 71.251C54.7993 71.251 56.1559 69.8944 56.1559 68.221C56.1559 66.5475 54.7993 65.1909 53.1259 65.1909C51.4524 65.1909 50.0958 66.5475 50.0958 68.221C50.0958 69.8944 51.4524 71.251 53.1259 71.251Z" fill="#C0D7E0" fill-opacity="0.5"/>
<path d="M53.1259 86.4011C54.7993 86.4011 56.1559 85.0446 56.1559 83.3711C56.1559 81.6977 54.7993 80.3411 53.1259 80.3411C51.4524 80.3411 50.0958 81.6977 50.0958 83.3711C50.0958 85.0446 51.4524 86.4011 53.1259 86.4011Z" fill="#C0D7E0" fill-opacity="0.5"/>
<path d="M53.1259 101.551C54.7993 101.551 56.1559 100.195 56.1559 98.5213C56.1559 96.8478 54.7993 95.4912 53.1259 95.4912C51.4524 95.4912 50.0958 96.8478 50.0958 98.5213C50.0958 100.195 51.4524 101.551 53.1259 101.551Z" fill="#C0D7E0" fill-opacity="0.5"/>
<path d="M53.1259 116.701C54.7993 116.701 56.1559 115.345 56.1559 113.671C56.1559 111.998 54.7993 110.641 53.1259 110.641C51.4524 110.641 50.0958 111.998 50.0958 113.671C50.0958 115.345 51.4524 116.701 53.1259 116.701Z" fill="#C0D7E0" fill-opacity="0.5"/>
<path d="M53.1259 131.852C54.7993 131.852 56.1559 130.495 56.1559 128.822C56.1559 127.148 54.7993 125.792 53.1259 125.792C51.4524 125.792 50.0958 127.148 50.0958 128.822C50.0958 130.495 51.4524 131.852 53.1259 131.852Z" fill="#C0D7E0" fill-opacity="0.5"/>
<path d="M53.1259 147.002C54.7993 147.002 56.1559 145.645 56.1559 143.972C56.1559 142.298 54.7993 140.942 53.1259 140.942C51.4524 140.942 50.0958 142.298 50.0958 143.972C50.0958 145.645 51.4524 147.002 53.1259 147.002Z" fill="#C0D7E0" fill-opacity="0.5"/>
<path d="M53.1259 162.152C54.7993 162.152 56.1559 160.795 56.1559 159.122C56.1559 157.448 54.7993 156.092 53.1259 156.092C51.4524 156.092 50.0958 157.448 50.0958 159.122C50.0958 160.795 51.4524 162.152 53.1259 162.152Z" fill="#C0D7E0" fill-opacity="0.5"/>
<path d="M53.1259 177.302C54.7993 177.302 56.1559 175.945 56.1559 174.272C56.1559 172.599 54.7993 171.242 53.1259 171.242C51.4524 171.242 50.0958 172.599 50.0958 174.272C50.0958 175.945 51.4524 177.302 53.1259 177.302Z" fill="#C0D7E0" fill-opacity="0.5"/>
<path d="M53.1259 192.452C54.7993 192.452 56.1559 191.096 56.1559 189.422C56.1559 187.749 54.7993 186.392 53.1259 186.392C51.4524 186.392 50.0958 187.749 50.0958 189.422C50.0958 191.096 51.4524 192.452 53.1259 192.452Z" fill="#C0D7E0" fill-opacity="0.5"/>
<path d="M53.1259 207.602C54.7993 207.602 56.1559 206.246 56.1559 204.572C56.1559 202.899 54.7993 201.542 53.1259 201.542C51.4524 201.542 50.0958 202.899 50.0958 204.572C50.0958 206.246 51.4524 207.602 53.1259 207.602Z" fill="#C0D7E0" fill-opacity="0.5"/>
<path d="M53.1259 222.752C54.7993 222.752 56.1559 221.396 56.1559 219.722C56.1559 218.049 54.7993 216.692 53.1259 216.692C51.4524 216.692 50.0958 218.049 50.0958 219.722C50.0958 221.396 51.4524 222.752 53.1259 222.752Z" fill="#C0D7E0" fill-opacity="0.5"/>
<path d="M53.1259 237.903C54.7993 237.903 56.1559 236.546 56.1559 234.873C56.1559 233.199 54.7993 231.843 53.1259 231.843C51.4524 231.843 50.0958 233.199 50.0958 234.873C50.0958 236.546 51.4524 237.903 53.1259 237.903Z" fill="#C0D7E0" fill-opacity="0.5"/>
<path d="M53.1259 253.053C54.7993 253.053 56.1559 251.696 56.1559 250.023C56.1559 248.349 54.7993 246.993 53.1259 246.993C51.4524 246.993 50.0958 248.349 50.0958 250.023C50.0958 251.696 51.4524 253.053 53.1259 253.053Z" fill="#C0D7E0" fill-opacity="0.5"/>
<path d="M53.1259 268.203C54.7993 268.203 56.1559 266.846 56.1559 265.173C56.1559 263.499 54.7993 262.143 53.1259 262.143C51.4524 262.143 50.0958 263.499 50.0958 265.173C50.0958 266.846 51.4524 268.203 53.1259 268.203Z" fill="#C0D7E0" fill-opacity="0.5"/>
<path d="M37.9757 10.6504C39.6492 10.6504 41.0057 9.29383 41.0057 7.62039C41.0057 5.94695 39.6492 4.59033 37.9757 4.59033C36.3023 4.59033 34.9457 5.94695 34.9457 7.62039C34.9457 9.29383 36.3023 10.6504 37.9757 10.6504Z" fill="#C0D7E0" fill-opacity="0.5"/>
<path d="M37.9757 25.8005C39.6492 25.8005 41.0057 24.444 41.0057 22.7705C41.0057 21.0971 39.6492 19.7405 37.9757 19.7405C36.3023 19.7405 34.9457 21.0971 34.9457 22.7705C34.9457 24.444 36.3023 25.8005 37.9757 25.8005Z" fill="#C0D7E0" fill-opacity="0.5"/>
<path d="M37.9757 40.9507C39.6492 40.9507 41.0057 39.5941 41.0057 37.9207C41.0057 36.2472 39.6492 34.8906 37.9757 34.8906C36.3023 34.8906 34.9457 36.2472 34.9457 37.9207C34.9457 39.5941 36.3023 40.9507 37.9757 40.9507Z" fill="#C0D7E0" fill-opacity="0.5"/>
<path d="M37.9757 56.1008C39.6492 56.1008 41.0057 54.7443 41.0057 53.0708C41.0057 51.3974 39.6492 50.0408 37.9757 50.0408C36.3023 50.0408 34.9457 51.3974 34.9457 53.0708C34.9457 54.7443 36.3023 56.1008 37.9757 56.1008Z" fill="#C0D7E0" fill-opacity="0.5"/>
<path d="M37.9757 71.251C39.6492 71.251 41.0057 69.8944 41.0057 68.221C41.0057 66.5475 39.6492 65.1909 37.9757 65.1909C36.3023 65.1909 34.9457 66.5475 34.9457 68.221C34.9457 69.8944 36.3023 71.251 37.9757 71.251Z" fill="#C0D7E0" fill-opacity="0.5"/>
<path d="M37.9757 86.4011C39.6492 86.4011 41.0057 85.0446 41.0057 83.3711C41.0057 81.6977 39.6492 80.3411 37.9757 80.3411C36.3023 80.3411 34.9457 81.6977 34.9457 83.3711C34.9457 85.0446 36.3023 86.4011 37.9757 86.4011Z" fill="#C0D7E0" fill-opacity="0.5"/>
<path d="M37.9757 101.551C39.6492 101.551 41.0057 100.195 41.0057 98.5213C41.0057 96.8478 39.6492 95.4912 37.9757 95.4912C36.3023 95.4912 34.9457 96.8478 34.9457 98.5213C34.9457 100.195 36.3023 101.551 37.9757 101.551Z" fill="#C0D7E0" fill-opacity="0.5"/>
<path d="M37.9757 116.701C39.6492 116.701 41.0057 115.345 41.0057 113.671C41.0057 111.998 39.6492 110.641 37.9757 110.641C36.3023 110.641 34.9457 111.998 34.9457 113.671C34.9457 115.345 36.3023 116.701 37.9757 116.701Z" fill="#C0D7E0" fill-opacity="0.5"/>
<path d="M37.9757 131.852C39.6492 131.852 41.0057 130.495 41.0057 128.822C41.0057 127.148 39.6492 125.792 37.9757 125.792C36.3023 125.792 34.9457 127.148 34.9457 128.822C34.9457 130.495 36.3023 131.852 37.9757 131.852Z" fill="#C0D7E0" fill-opacity="0.5"/>
<path d="M37.9757 147.002C39.6492 147.002 41.0057 145.645 41.0057 143.972C41.0057 142.298 39.6492 140.942 37.9757 140.942C36.3023 140.942 34.9457 142.298 34.9457 143.972C34.9457 145.645 36.3023 147.002 37.9757 147.002Z" fill="#C0D7E0" fill-opacity="0.5"/>
<path d="M37.9757 162.152C39.6492 162.152 41.0057 160.795 41.0057 159.122C41.0057 157.448 39.6492 156.092 37.9757 156.092C36.3023 156.092 34.9457 157.448 34.9457 159.122C34.9457 160.795 36.3023 162.152 37.9757 162.152Z" fill="#C0D7E0" fill-opacity="0.5"/>
<path d="M37.9757 177.302C39.6492 177.302 41.0057 175.945 41.0057 174.272C41.0057 172.599 39.6492 171.242 37.9757 171.242C36.3023 171.242 34.9457 172.599 34.9457 174.272C34.9457 175.945 36.3023 177.302 37.9757 177.302Z" fill="#C0D7E0" fill-opacity="0.5"/>
<path d="M37.9757 192.452C39.6492 192.452 41.0057 191.096 41.0057 189.422C41.0057 187.749 39.6492 186.392 37.9757 186.392C36.3023 186.392 34.9457 187.749 34.9457 189.422C34.9457 191.096 36.3023 192.452 37.9757 192.452Z" fill="#C0D7E0" fill-opacity="0.5"/>
<path d="M37.9757 207.602C39.6492 207.602 41.0057 206.246 41.0057 204.572C41.0057 202.899 39.6492 201.542 37.9757 201.542C36.3023 201.542 34.9457 202.899 34.9457 204.572C34.9457 206.246 36.3023 207.602 37.9757 207.602Z" fill="#C0D7E0" fill-opacity="0.5"/>
<path d="M37.9757 222.752C39.6492 222.752 41.0057 221.396 41.0057 219.722C41.0057 218.049 39.6492 216.692 37.9757 216.692C36.3023 216.692 34.9457 218.049 34.9457 219.722C34.9457 221.396 36.3023 222.752 37.9757 222.752Z" fill="#C0D7E0" fill-opacity="0.5"/>
<path d="M37.9757 237.903C39.6492 237.903 41.0057 236.546 41.0057 234.873C41.0057 233.199 39.6492 231.843 37.9757 231.843C36.3023 231.843 34.9457 233.199 34.9457 234.873C34.9457 236.546 36.3023 237.903 37.9757 237.903Z" fill="#C0D7E0" fill-opacity="0.5"/>
<path d="M37.9757 253.053C39.6492 253.053 41.0057 251.696 41.0057 250.023C41.0057 248.349 39.6492 246.993 37.9757 246.993C36.3023 246.993 34.9457 248.349 34.9457 250.023C34.9457 251.696 36.3023 253.053 37.9757 253.053Z" fill="#C0D7E0" fill-opacity="0.5"/>
<path d="M37.9757 268.203C39.6492 268.203 41.0057 266.846 41.0057 265.173C41.0057 263.499 39.6492 262.143 37.9757 262.143C36.3023 262.143 34.9457 263.499 34.9457 265.173C34.9457 266.846 36.3023 268.203 37.9757 268.203Z" fill="#C0D7E0" fill-opacity="0.5"/>
<path d="M22.8256 10.6504C24.499 10.6504 25.8556 9.29383 25.8556 7.62039C25.8556 5.94695 24.499 4.59033 22.8256 4.59033C21.1521 4.59033 19.7955 5.94695 19.7955 7.62039C19.7955 9.29383 21.1521 10.6504 22.8256 10.6504Z" fill="#C0D7E0" fill-opacity="0.5"/>
<path d="M22.8256 25.8005C24.499 25.8005 25.8556 24.444 25.8556 22.7705C25.8556 21.0971 24.499 19.7405 22.8256 19.7405C21.1521 19.7405 19.7955 21.0971 19.7955 22.7705C19.7955 24.444 21.1521 25.8005 22.8256 25.8005Z" fill="#C0D7E0" fill-opacity="0.5"/>
<path d="M22.8256 40.9507C24.499 40.9507 25.8556 39.5941 25.8556 37.9207C25.8556 36.2472 24.499 34.8906 22.8256 34.8906C21.1521 34.8906 19.7955 36.2472 19.7955 37.9207C19.7955 39.5941 21.1521 40.9507 22.8256 40.9507Z" fill="#C0D7E0" fill-opacity="0.5"/>
<path d="M22.8256 56.1008C24.499 56.1008 25.8556 54.7443 25.8556 53.0708C25.8556 51.3974 24.499 50.0408 22.8256 50.0408C21.1521 50.0408 19.7955 51.3974 19.7955 53.0708C19.7955 54.7443 21.1521 56.1008 22.8256 56.1008Z" fill="#C0D7E0" fill-opacity="0.5"/>
<path d="M22.8256 71.251C24.499 71.251 25.8556 69.8944 25.8556 68.221C25.8556 66.5475 24.499 65.1909 22.8256 65.1909C21.1521 65.1909 19.7955 66.5475 19.7955 68.221C19.7955 69.8944 21.1521 71.251 22.8256 71.251Z" fill="#C0D7E0" fill-opacity="0.5"/>
<path d="M22.8256 86.4011C24.499 86.4011 25.8556 85.0446 25.8556 83.3711C25.8556 81.6977 24.499 80.3411 22.8256 80.3411C21.1521 80.3411 19.7955 81.6977 19.7955 83.3711C19.7955 85.0446 21.1521 86.4011 22.8256 86.4011Z" fill="#C0D7E0" fill-opacity="0.5"/>
<path d="M22.8256 101.551C24.499 101.551 25.8556 100.195 25.8556 98.5213C25.8556 96.8478 24.499 95.4912 22.8256 95.4912C21.1521 95.4912 19.7955 96.8478 19.7955 98.5213C19.7955 100.195 21.1521 101.551 22.8256 101.551Z" fill="#C0D7E0" fill-opacity="0.5"/>
<path d="M22.8256 116.701C24.499 116.701 25.8556 115.345 25.8556 113.671C25.8556 111.998 24.499 110.641 22.8256 110.641C21.1521 110.641 19.7955 111.998 19.7955 113.671C19.7955 115.345 21.1521 116.701 22.8256 116.701Z" fill="#C0D7E0" fill-opacity="0.5"/>
<path d="M22.8256 131.852C24.499 131.852 25.8556 130.495 25.8556 128.822C25.8556 127.148 24.499 125.792 22.8256 125.792C21.1521 125.792 19.7955 127.148 19.7955 128.822C19.7955 130.495 21.1521 131.852 22.8256 131.852Z" fill="#C0D7E0" fill-opacity="0.5"/>
<path d="M22.8256 147.002C24.499 147.002 25.8556 145.645 25.8556 143.972C25.8556 142.298 24.499 140.942 22.8256 140.942C21.1521 140.942 19.7955 142.298 19.7955 143.972C19.7955 145.645 21.1521 147.002 22.8256 147.002Z" fill="#C0D7E0" fill-opacity="0.5"/>
<path d="M22.8256 162.152C24.499 162.152 25.8556 160.795 25.8556 159.122C25.8556 157.448 24.499 156.092 22.8256 156.092C21.1521 156.092 19.7955 157.448 19.7955 159.122C19.7955 160.795 21.1521 162.152 22.8256 162.152Z" fill="#C0D7E0" fill-opacity="0.5"/>
<path d="M22.8256 177.302C24.499 177.302 25.8556 175.945 25.8556 174.272C25.8556 172.599 24.499 171.242 22.8256 171.242C21.1521 171.242 19.7955 172.599 19.7955 174.272C19.7955 175.945 21.1521 177.302 22.8256 177.302Z" fill="#C0D7E0" fill-opacity="0.5"/>
<path d="M22.8256 192.452C24.499 192.452 25.8556 191.096 25.8556 189.422C25.8556 187.749 24.499 186.392 22.8256 186.392C21.1521 186.392 19.7955 187.749 19.7955 189.422C19.7955 191.096 21.1521 192.452 22.8256 192.452Z" fill="#C0D7E0" fill-opacity="0.5"/>
<path d="M22.8256 207.602C24.499 207.602 25.8556 206.246 25.8556 204.572C25.8556 202.899 24.499 201.542 22.8256 201.542C21.1521 201.542 19.7955 202.899 19.7955 204.572C19.7955 206.246 21.1521 207.602 22.8256 207.602Z" fill="#C0D7E0" fill-opacity="0.5"/>
<path d="M22.8256 222.752C24.499 222.752 25.8556 221.396 25.8556 219.722C25.8556 218.049 24.499 216.692 22.8256 216.692C21.1521 216.692 19.7955 218.049 19.7955 219.722C19.7955 221.396 21.1521 222.752 22.8256 222.752Z" fill="#C0D7E0" fill-opacity="0.5"/>
<path d="M22.8256 237.903C24.499 237.903 25.8556 236.546 25.8556 234.873C25.8556 233.199 24.499 231.843 22.8256 231.843C21.1521 231.843 19.7955 233.199 19.7955 234.873C19.7955 236.546 21.1521 237.903 22.8256 237.903Z" fill="#C0D7E0" fill-opacity="0.5"/>
<path d="M22.8256 253.053C24.499 253.053 25.8556 251.696 25.8556 250.023C25.8556 248.349 24.499 246.993 22.8256 246.993C21.1521 246.993 19.7955 248.349 19.7955 250.023C19.7955 251.696 21.1521 253.053 22.8256 253.053Z" fill="#C0D7E0" fill-opacity="0.5"/>
<path d="M22.8256 268.203C24.499 268.203 25.8556 266.846 25.8556 265.173C25.8556 263.499 24.499 262.143 22.8256 262.143C21.1521 262.143 19.7955 263.499 19.7955 265.173C19.7955 266.846 21.1521 268.203 22.8256 268.203Z" fill="#C0D7E0" fill-opacity="0.5"/>
<path d="M7.67542 10.6504C9.34886 10.6504 10.7054 9.29383 10.7054 7.62039C10.7054 5.94695 9.34886 4.59033 7.67542 4.59033C6.00198 4.59033 4.64539 5.94695 4.64539 7.62039C4.64539 9.29383 6.00198 10.6504 7.67542 10.6504Z" fill="#C0D7E0" fill-opacity="0.5"/>
<path d="M7.67542 25.8005C9.34886 25.8005 10.7054 24.444 10.7054 22.7705C10.7054 21.0971 9.34886 19.7405 7.67542 19.7405C6.00198 19.7405 4.64539 21.0971 4.64539 22.7705C4.64539 24.444 6.00198 25.8005 7.67542 25.8005Z" fill="#C0D7E0" fill-opacity="0.5"/>
<path d="M7.67542 40.9507C9.34886 40.9507 10.7054 39.5941 10.7054 37.9207C10.7054 36.2472 9.34886 34.8906 7.67542 34.8906C6.00198 34.8906 4.64539 36.2472 4.64539 37.9207C4.64539 39.5941 6.00198 40.9507 7.67542 40.9507Z" fill="#C0D7E0" fill-opacity="0.5"/>
<path d="M7.67542 56.1008C9.34886 56.1008 10.7054 54.7443 10.7054 53.0708C10.7054 51.3974 9.34886 50.0408 7.67542 50.0408C6.00198 50.0408 4.64539 51.3974 4.64539 53.0708C4.64539 54.7443 6.00198 56.1008 7.67542 56.1008Z" fill="#C0D7E0" fill-opacity="0.5"/>
<path d="M7.67542 71.251C9.34886 71.251 10.7054 69.8944 10.7054 68.221C10.7054 66.5475 9.34886 65.1909 7.67542 65.1909C6.00198 65.1909 4.64539 66.5475 4.64539 68.221C4.64539 69.8944 6.00198 71.251 7.67542 71.251Z" fill="#C0D7E0" fill-opacity="0.5"/>
<path d="M7.67542 86.4011C9.34886 86.4011 10.7054 85.0446 10.7054 83.3711C10.7054 81.6977 9.34886 80.3411 7.67542 80.3411C6.00198 80.3411 4.64539 81.6977 4.64539 83.3711C4.64539 85.0446 6.00198 86.4011 7.67542 86.4011Z" fill="#C0D7E0" fill-opacity="0.5"/>
<path d="M7.67542 101.551C9.34886 101.551 10.7054 100.195 10.7054 98.5213C10.7054 96.8478 9.34886 95.4912 7.67542 95.4912C6.00198 95.4912 4.64539 96.8478 4.64539 98.5213C4.64539 100.195 6.00198 101.551 7.67542 101.551Z" fill="#C0D7E0" fill-opacity="0.5"/>
<path d="M7.67542 116.701C9.34886 116.701 10.7054 115.345 10.7054 113.671C10.7054 111.998 9.34886 110.641 7.67542 110.641C6.00198 110.641 4.64539 111.998 4.64539 113.671C4.64539 115.345 6.00198 116.701 7.67542 116.701Z" fill="#C0D7E0" fill-opacity="0.5"/>
<path d="M7.67542 131.852C9.34886 131.852 10.7054 130.495 10.7054 128.822C10.7054 127.148 9.34886 125.792 7.67542 125.792C6.00198 125.792 4.64539 127.148 4.64539 128.822C4.64539 130.495 6.00198 131.852 7.67542 131.852Z" fill="#C0D7E0" fill-opacity="0.5"/>
<path d="M7.67542 147.002C9.34886 147.002 10.7054 145.645 10.7054 143.972C10.7054 142.298 9.34886 140.942 7.67542 140.942C6.00198 140.942 4.64539 142.298 4.64539 143.972C4.64539 145.645 6.00198 147.002 7.67542 147.002Z" fill="#C0D7E0" fill-opacity="0.5"/>
<path d="M7.67542 162.152C9.34886 162.152 10.7054 160.795 10.7054 159.122C10.7054 157.448 9.34886 156.092 7.67542 156.092C6.00198 156.092 4.64539 157.448 4.64539 159.122C4.64539 160.795 6.00198 162.152 7.67542 162.152Z" fill="#C0D7E0" fill-opacity="0.5"/>
<path d="M7.67542 177.302C9.34886 177.302 10.7054 175.945 10.7054 174.272C10.7054 172.599 9.34886 171.242 7.67542 171.242C6.00198 171.242 4.64539 172.599 4.64539 174.272C4.64539 175.945 6.00198 177.302 7.67542 177.302Z" fill="#C0D7E0" fill-opacity="0.5"/>
<path d="M7.67542 192.452C9.34886 192.452 10.7054 191.096 10.7054 189.422C10.7054 187.749 9.34886 186.392 7.67542 186.392C6.00198 186.392 4.64539 187.749 4.64539 189.422C4.64539 191.096 6.00198 192.452 7.67542 192.452Z" fill="#C0D7E0" fill-opacity="0.5"/>
<path d="M7.67542 207.602C9.34886 207.602 10.7054 206.246 10.7054 204.572C10.7054 202.899 9.34886 201.542 7.67542 201.542C6.00198 201.542 4.64539 202.899 4.64539 204.572C4.64539 206.246 6.00198 207.602 7.67542 207.602Z" fill="#C0D7E0" fill-opacity="0.5"/>
<path d="M7.67542 222.752C9.34886 222.752 10.7054 221.396 10.7054 219.722C10.7054 218.049 9.34886 216.692 7.67542 216.692C6.00198 216.692 4.64539 218.049 4.64539 219.722C4.64539 221.396 6.00198 222.752 7.67542 222.752Z" fill="#C0D7E0" fill-opacity="0.5"/>
<path d="M7.67542 237.903C9.34886 237.903 10.7054 236.546 10.7054 234.873C10.7054 233.199 9.34886 231.843 7.67542 231.843C6.00198 231.843 4.64539 233.199 4.64539 234.873C4.64539 236.546 6.00198 237.903 7.67542 237.903Z" fill="#C0D7E0" fill-opacity="0.5"/>
<path d="M7.67542 253.053C9.34886 253.053 10.7054 251.696 10.7054 250.023C10.7054 248.349 9.34886 246.993 7.67542 246.993C6.00198 246.993 4.64539 248.349 4.64539 250.023C4.64539 251.696 6.00198 253.053 7.67542 253.053Z" fill="#C0D7E0" fill-opacity="0.5"/>
<path d="M7.67542 268.203C9.34886 268.203 10.7054 266.846 10.7054 265.173C10.7054 263.499 9.34886 262.143 7.67542 262.143C6.00198 262.143 4.64539 263.499 4.64539 265.173C4.64539 266.846 6.00198 268.203 7.67542 268.203Z" fill="#C0D7E0" fill-opacity="0.5"/>
</svg>
