<svg width="259" height="274" viewBox="0 0 259 274" fill="none" xmlns="http://www.w3.org/2000/svg">
<path d="M250.925 11.5867C252.598 11.5867 253.955 10.2301 253.955 8.55667C253.955 6.88323 252.598 5.52661 250.925 5.52661C249.251 5.52661 247.895 6.88323 247.895 8.55667C247.895 10.2301 249.251 11.5867 250.925 11.5867Z" fill="#C0D7E0" fill-opacity="0.25"/>
<path d="M250.925 26.7368C252.598 26.7368 253.955 25.3803 253.955 23.7068C253.955 22.0334 252.598 20.6768 250.925 20.6768C249.251 20.6768 247.895 22.0334 247.895 23.7068C247.895 25.3803 249.251 26.7368 250.925 26.7368Z" fill="#C0D7E0" fill-opacity="0.25"/>
<path d="M250.925 41.887C252.598 41.887 253.955 40.5304 253.955 38.857C253.955 37.1835 252.598 35.8269 250.925 35.8269C249.251 35.8269 247.895 37.1835 247.895 38.857C247.895 40.5304 249.251 41.887 250.925 41.887Z" fill="#C0D7E0" fill-opacity="0.25"/>
<path d="M250.925 57.0371C252.598 57.0371 253.955 55.6806 253.955 54.0071C253.955 52.3337 252.598 50.9771 250.925 50.9771C249.251 50.9771 247.895 52.3337 247.895 54.0071C247.895 55.6806 249.251 57.0371 250.925 57.0371Z" fill="#C0D7E0" fill-opacity="0.25"/>
<path d="M250.925 72.1873C252.598 72.1873 253.955 70.8307 253.955 69.1573C253.955 67.4838 252.598 66.1272 250.925 66.1272C249.251 66.1272 247.895 67.4838 247.895 69.1573C247.895 70.8307 249.251 72.1873 250.925 72.1873Z" fill="#C0D7E0" fill-opacity="0.25"/>
<path d="M250.925 87.3374C252.598 87.3374 253.955 85.9808 253.955 84.3074C253.955 82.634 252.598 81.2773 250.925 81.2773C249.251 81.2773 247.895 82.634 247.895 84.3074C247.895 85.9808 249.251 87.3374 250.925 87.3374Z" fill="#C0D7E0" fill-opacity="0.25"/>
<path d="M250.925 102.488C252.598 102.488 253.955 101.131 253.955 99.4576C253.955 97.7841 252.598 96.4275 250.925 96.4275C249.251 96.4275 247.895 97.7841 247.895 99.4576C247.895 101.131 249.251 102.488 250.925 102.488Z" fill="#C0D7E0" fill-opacity="0.25"/>
<path d="M250.925 117.638C252.598 117.638 253.955 116.281 253.955 114.608C253.955 112.934 252.598 111.578 250.925 111.578C249.251 111.578 247.895 112.934 247.895 114.608C247.895 116.281 249.251 117.638 250.925 117.638Z" fill="#C0D7E0" fill-opacity="0.25"/>
<path d="M250.925 132.788C252.598 132.788 253.955 131.431 253.955 129.758C253.955 128.084 252.598 126.728 250.925 126.728C249.251 126.728 247.895 128.084 247.895 129.758C247.895 131.431 249.251 132.788 250.925 132.788Z" fill="#C0D7E0" fill-opacity="0.25"/>
<path d="M250.925 147.938C252.598 147.938 253.955 146.581 253.955 144.908C253.955 143.235 252.598 141.878 250.925 141.878C249.251 141.878 247.895 143.235 247.895 144.908C247.895 146.581 249.251 147.938 250.925 147.938Z" fill="#C0D7E0" fill-opacity="0.25"/>
<path d="M250.925 163.088C252.598 163.088 253.955 161.732 253.955 160.058C253.955 158.385 252.598 157.028 250.925 157.028C249.251 157.028 247.895 158.385 247.895 160.058C247.895 161.732 249.251 163.088 250.925 163.088Z" fill="#C0D7E0" fill-opacity="0.25"/>
<path d="M250.925 178.238C252.598 178.238 253.955 176.882 253.955 175.208C253.955 173.535 252.598 172.178 250.925 172.178C249.251 172.178 247.895 173.535 247.895 175.208C247.895 176.882 249.251 178.238 250.925 178.238Z" fill="#C0D7E0" fill-opacity="0.25"/>
<path d="M250.925 193.389C252.598 193.389 253.955 192.032 253.955 190.359C253.955 188.685 252.598 187.329 250.925 187.329C249.251 187.329 247.895 188.685 247.895 190.359C247.895 192.032 249.251 193.389 250.925 193.389Z" fill="#C0D7E0" fill-opacity="0.25"/>
<path d="M250.925 208.539C252.598 208.539 253.955 207.182 253.955 205.509C253.955 203.835 252.598 202.479 250.925 202.479C249.251 202.479 247.895 203.835 247.895 205.509C247.895 207.182 249.251 208.539 250.925 208.539Z" fill="#C0D7E0" fill-opacity="0.25"/>
<path d="M250.925 223.689C252.598 223.689 253.955 222.332 253.955 220.659C253.955 218.986 252.598 217.629 250.925 217.629C249.251 217.629 247.895 218.986 247.895 220.659C247.895 222.332 249.251 223.689 250.925 223.689Z" fill="#C0D7E0" fill-opacity="0.25"/>
<path d="M250.925 238.839C252.598 238.839 253.955 237.483 253.955 235.809C253.955 234.136 252.598 232.779 250.925 232.779C249.251 232.779 247.895 234.136 247.895 235.809C247.895 237.483 249.251 238.839 250.925 238.839Z" fill="#C0D7E0" fill-opacity="0.25"/>
<path d="M250.925 253.989C252.598 253.989 253.955 252.633 253.955 250.959C253.955 249.286 252.598 247.929 250.925 247.929C249.251 247.929 247.895 249.286 247.895 250.959C247.895 252.633 249.251 253.989 250.925 253.989Z" fill="#C0D7E0" fill-opacity="0.25"/>
<path d="M250.925 269.139C252.598 269.139 253.955 267.783 253.955 266.109C253.955 264.436 252.598 263.079 250.925 263.079C249.251 263.079 247.895 264.436 247.895 266.109C247.895 267.783 249.251 269.139 250.925 269.139Z" fill="#C0D7E0" fill-opacity="0.25"/>
<path d="M235.775 11.5867C237.448 11.5867 238.805 10.2301 238.805 8.55667C238.805 6.88323 237.448 5.52661 235.775 5.52661C234.101 5.52661 232.745 6.88323 232.745 8.55667C232.745 10.2301 234.101 11.5867 235.775 11.5867Z" fill="#C0D7E0" fill-opacity="0.25"/>
<path d="M235.775 26.7368C237.448 26.7368 238.805 25.3803 238.805 23.7068C238.805 22.0334 237.448 20.6768 235.775 20.6768C234.101 20.6768 232.745 22.0334 232.745 23.7068C232.745 25.3803 234.101 26.7368 235.775 26.7368Z" fill="#C0D7E0" fill-opacity="0.25"/>
<path d="M235.775 41.887C237.448 41.887 238.805 40.5304 238.805 38.857C238.805 37.1835 237.448 35.8269 235.775 35.8269C234.101 35.8269 232.745 37.1835 232.745 38.857C232.745 40.5304 234.101 41.887 235.775 41.887Z" fill="#C0D7E0" fill-opacity="0.25"/>
<path d="M235.775 57.0371C237.448 57.0371 238.805 55.6806 238.805 54.0071C238.805 52.3337 237.448 50.9771 235.775 50.9771C234.101 50.9771 232.745 52.3337 232.745 54.0071C232.745 55.6806 234.101 57.0371 235.775 57.0371Z" fill="#C0D7E0" fill-opacity="0.25"/>
<path d="M235.775 72.1873C237.448 72.1873 238.805 70.8307 238.805 69.1573C238.805 67.4838 237.448 66.1272 235.775 66.1272C234.101 66.1272 232.745 67.4838 232.745 69.1573C232.745 70.8307 234.101 72.1873 235.775 72.1873Z" fill="#C0D7E0" fill-opacity="0.25"/>
<path d="M235.775 87.3374C237.448 87.3374 238.805 85.9808 238.805 84.3074C238.805 82.634 237.448 81.2773 235.775 81.2773C234.101 81.2773 232.745 82.634 232.745 84.3074C232.745 85.9808 234.101 87.3374 235.775 87.3374Z" fill="#C0D7E0" fill-opacity="0.25"/>
<path d="M235.775 102.488C237.448 102.488 238.805 101.131 238.805 99.4576C238.805 97.7841 237.448 96.4275 235.775 96.4275C234.101 96.4275 232.745 97.7841 232.745 99.4576C232.745 101.131 234.101 102.488 235.775 102.488Z" fill="#C0D7E0" fill-opacity="0.25"/>
<path d="M235.775 117.638C237.448 117.638 238.805 116.281 238.805 114.608C238.805 112.934 237.448 111.578 235.775 111.578C234.101 111.578 232.745 112.934 232.745 114.608C232.745 116.281 234.101 117.638 235.775 117.638Z" fill="#C0D7E0" fill-opacity="0.25"/>
<path d="M235.775 132.788C237.448 132.788 238.805 131.431 238.805 129.758C238.805 128.084 237.448 126.728 235.775 126.728C234.101 126.728 232.745 128.084 232.745 129.758C232.745 131.431 234.101 132.788 235.775 132.788Z" fill="#C0D7E0" fill-opacity="0.25"/>
<path d="M235.775 147.938C237.448 147.938 238.805 146.581 238.805 144.908C238.805 143.235 237.448 141.878 235.775 141.878C234.101 141.878 232.745 143.235 232.745 144.908C232.745 146.581 234.101 147.938 235.775 147.938Z" fill="#C0D7E0" fill-opacity="0.25"/>
<path d="M235.775 163.088C237.448 163.088 238.805 161.732 238.805 160.058C238.805 158.385 237.448 157.028 235.775 157.028C234.101 157.028 232.745 158.385 232.745 160.058C232.745 161.732 234.101 163.088 235.775 163.088Z" fill="#C0D7E0" fill-opacity="0.25"/>
<path d="M235.775 178.238C237.448 178.238 238.805 176.882 238.805 175.208C238.805 173.535 237.448 172.178 235.775 172.178C234.101 172.178 232.745 173.535 232.745 175.208C232.745 176.882 234.101 178.238 235.775 178.238Z" fill="#C0D7E0" fill-opacity="0.25"/>
<path d="M235.775 193.389C237.448 193.389 238.805 192.032 238.805 190.359C238.805 188.685 237.448 187.329 235.775 187.329C234.101 187.329 232.745 188.685 232.745 190.359C232.745 192.032 234.101 193.389 235.775 193.389Z" fill="#C0D7E0" fill-opacity="0.25"/>
<path d="M235.775 208.539C237.448 208.539 238.805 207.182 238.805 205.509C238.805 203.835 237.448 202.479 235.775 202.479C234.101 202.479 232.745 203.835 232.745 205.509C232.745 207.182 234.101 208.539 235.775 208.539Z" fill="#C0D7E0" fill-opacity="0.25"/>
<path d="M235.775 223.689C237.448 223.689 238.805 222.332 238.805 220.659C238.805 218.986 237.448 217.629 235.775 217.629C234.101 217.629 232.745 218.986 232.745 220.659C232.745 222.332 234.101 223.689 235.775 223.689Z" fill="#C0D7E0" fill-opacity="0.25"/>
<path d="M235.775 238.839C237.448 238.839 238.805 237.483 238.805 235.809C238.805 234.136 237.448 232.779 235.775 232.779C234.101 232.779 232.745 234.136 232.745 235.809C232.745 237.483 234.101 238.839 235.775 238.839Z" fill="#C0D7E0" fill-opacity="0.25"/>
<path d="M235.775 253.989C237.448 253.989 238.805 252.633 238.805 250.959C238.805 249.286 237.448 247.929 235.775 247.929C234.101 247.929 232.745 249.286 232.745 250.959C232.745 252.633 234.101 253.989 235.775 253.989Z" fill="#C0D7E0" fill-opacity="0.25"/>
<path d="M235.775 269.139C237.448 269.139 238.805 267.783 238.805 266.109C238.805 264.436 237.448 263.079 235.775 263.079C234.101 263.079 232.745 264.436 232.745 266.109C232.745 267.783 234.101 269.139 235.775 269.139Z" fill="#C0D7E0" fill-opacity="0.25"/>
<path d="M220.625 11.5867C222.298 11.5867 223.655 10.2301 223.655 8.55667C223.655 6.88323 222.298 5.52661 220.625 5.52661C218.951 5.52661 217.594 6.88323 217.594 8.55667C217.594 10.2301 218.951 11.5867 220.625 11.5867Z" fill="#C0D7E0" fill-opacity="0.25"/>
<path d="M220.625 26.7368C222.298 26.7368 223.655 25.3803 223.655 23.7068C223.655 22.0334 222.298 20.6768 220.625 20.6768C218.951 20.6768 217.594 22.0334 217.594 23.7068C217.594 25.3803 218.951 26.7368 220.625 26.7368Z" fill="#C0D7E0" fill-opacity="0.25"/>
<path d="M220.625 41.887C222.298 41.887 223.655 40.5304 223.655 38.857C223.655 37.1835 222.298 35.8269 220.625 35.8269C218.951 35.8269 217.594 37.1835 217.594 38.857C217.594 40.5304 218.951 41.887 220.625 41.887Z" fill="#C0D7E0" fill-opacity="0.25"/>
<path d="M220.625 57.0371C222.298 57.0371 223.655 55.6806 223.655 54.0071C223.655 52.3337 222.298 50.9771 220.625 50.9771C218.951 50.9771 217.594 52.3337 217.594 54.0071C217.594 55.6806 218.951 57.0371 220.625 57.0371Z" fill="#C0D7E0" fill-opacity="0.25"/>
<path d="M220.625 72.1873C222.298 72.1873 223.655 70.8307 223.655 69.1573C223.655 67.4838 222.298 66.1272 220.625 66.1272C218.951 66.1272 217.594 67.4838 217.594 69.1573C217.594 70.8307 218.951 72.1873 220.625 72.1873Z" fill="#C0D7E0" fill-opacity="0.25"/>
<path d="M220.625 87.3374C222.298 87.3374 223.655 85.9808 223.655 84.3074C223.655 82.634 222.298 81.2773 220.625 81.2773C218.951 81.2773 217.594 82.634 217.594 84.3074C217.594 85.9808 218.951 87.3374 220.625 87.3374Z" fill="#C0D7E0" fill-opacity="0.25"/>
<path d="M220.625 102.488C222.298 102.488 223.655 101.131 223.655 99.4576C223.655 97.7841 222.298 96.4275 220.625 96.4275C218.951 96.4275 217.594 97.7841 217.594 99.4576C217.594 101.131 218.951 102.488 220.625 102.488Z" fill="#C0D7E0" fill-opacity="0.25"/>
<path d="M220.625 117.638C222.298 117.638 223.655 116.281 223.655 114.608C223.655 112.934 222.298 111.578 220.625 111.578C218.951 111.578 217.594 112.934 217.594 114.608C217.594 116.281 218.951 117.638 220.625 117.638Z" fill="#C0D7E0" fill-opacity="0.25"/>
<path d="M220.625 132.788C222.298 132.788 223.655 131.431 223.655 129.758C223.655 128.084 222.298 126.728 220.625 126.728C218.951 126.728 217.594 128.084 217.594 129.758C217.594 131.431 218.951 132.788 220.625 132.788Z" fill="#C0D7E0" fill-opacity="0.25"/>
<path d="M220.625 147.938C222.298 147.938 223.655 146.581 223.655 144.908C223.655 143.235 222.298 141.878 220.625 141.878C218.951 141.878 217.594 143.235 217.594 144.908C217.594 146.581 218.951 147.938 220.625 147.938Z" fill="#C0D7E0" fill-opacity="0.25"/>
<path d="M220.625 163.088C222.298 163.088 223.655 161.732 223.655 160.058C223.655 158.385 222.298 157.028 220.625 157.028C218.951 157.028 217.594 158.385 217.594 160.058C217.594 161.732 218.951 163.088 220.625 163.088Z" fill="#C0D7E0" fill-opacity="0.25"/>
<path d="M220.625 178.238C222.298 178.238 223.655 176.882 223.655 175.208C223.655 173.535 222.298 172.178 220.625 172.178C218.951 172.178 217.594 173.535 217.594 175.208C217.594 176.882 218.951 178.238 220.625 178.238Z" fill="#C0D7E0" fill-opacity="0.25"/>
<path d="M220.625 193.389C222.298 193.389 223.655 192.032 223.655 190.359C223.655 188.685 222.298 187.329 220.625 187.329C218.951 187.329 217.594 188.685 217.594 190.359C217.594 192.032 218.951 193.389 220.625 193.389Z" fill="#C0D7E0" fill-opacity="0.25"/>
<path d="M220.625 208.539C222.298 208.539 223.655 207.182 223.655 205.509C223.655 203.835 222.298 202.479 220.625 202.479C218.951 202.479 217.594 203.835 217.594 205.509C217.594 207.182 218.951 208.539 220.625 208.539Z" fill="#C0D7E0" fill-opacity="0.25"/>
<path d="M220.625 223.689C222.298 223.689 223.655 222.332 223.655 220.659C223.655 218.986 222.298 217.629 220.625 217.629C218.951 217.629 217.594 218.986 217.594 220.659C217.594 222.332 218.951 223.689 220.625 223.689Z" fill="#C0D7E0" fill-opacity="0.25"/>
<path d="M220.625 238.839C222.298 238.839 223.655 237.483 223.655 235.809C223.655 234.136 222.298 232.779 220.625 232.779C218.951 232.779 217.594 234.136 217.594 235.809C217.594 237.483 218.951 238.839 220.625 238.839Z" fill="#C0D7E0" fill-opacity="0.25"/>
<path d="M220.625 253.989C222.298 253.989 223.655 252.633 223.655 250.959C223.655 249.286 222.298 247.929 220.625 247.929C218.951 247.929 217.594 249.286 217.594 250.959C217.594 252.633 218.951 253.989 220.625 253.989Z" fill="#C0D7E0" fill-opacity="0.25"/>
<path d="M220.625 269.139C222.298 269.139 223.655 267.783 223.655 266.109C223.655 264.436 222.298 263.079 220.625 263.079C218.951 263.079 217.594 264.436 217.594 266.109C217.594 267.783 218.951 269.139 220.625 269.139Z" fill="#C0D7E0" fill-opacity="0.25"/>
<path d="M205.474 11.5867C207.148 11.5867 208.504 10.2301 208.504 8.55667C208.504 6.88323 207.148 5.52661 205.474 5.52661C203.801 5.52661 202.444 6.88323 202.444 8.55667C202.444 10.2301 203.801 11.5867 205.474 11.5867Z" fill="#C0D7E0" fill-opacity="0.25"/>
<path d="M205.474 26.7368C207.148 26.7368 208.504 25.3803 208.504 23.7068C208.504 22.0334 207.148 20.6768 205.474 20.6768C203.801 20.6768 202.444 22.0334 202.444 23.7068C202.444 25.3803 203.801 26.7368 205.474 26.7368Z" fill="#C0D7E0" fill-opacity="0.25"/>
<path d="M205.474 41.887C207.148 41.887 208.504 40.5304 208.504 38.857C208.504 37.1835 207.148 35.8269 205.474 35.8269C203.801 35.8269 202.444 37.1835 202.444 38.857C202.444 40.5304 203.801 41.887 205.474 41.887Z" fill="#C0D7E0" fill-opacity="0.25"/>
<path d="M205.474 57.0371C207.148 57.0371 208.504 55.6806 208.504 54.0071C208.504 52.3337 207.148 50.9771 205.474 50.9771C203.801 50.9771 202.444 52.3337 202.444 54.0071C202.444 55.6806 203.801 57.0371 205.474 57.0371Z" fill="#C0D7E0" fill-opacity="0.25"/>
<path d="M205.474 72.1873C207.148 72.1873 208.504 70.8307 208.504 69.1573C208.504 67.4838 207.148 66.1272 205.474 66.1272C203.801 66.1272 202.444 67.4838 202.444 69.1573C202.444 70.8307 203.801 72.1873 205.474 72.1873Z" fill="#C0D7E0" fill-opacity="0.25"/>
<path d="M205.474 87.3374C207.148 87.3374 208.504 85.9808 208.504 84.3074C208.504 82.634 207.148 81.2773 205.474 81.2773C203.801 81.2773 202.444 82.634 202.444 84.3074C202.444 85.9808 203.801 87.3374 205.474 87.3374Z" fill="#C0D7E0" fill-opacity="0.25"/>
<path d="M205.474 102.488C207.148 102.488 208.504 101.131 208.504 99.4576C208.504 97.7841 207.148 96.4275 205.474 96.4275C203.801 96.4275 202.444 97.7841 202.444 99.4576C202.444 101.131 203.801 102.488 205.474 102.488Z" fill="#C0D7E0" fill-opacity="0.25"/>
<path d="M205.474 117.638C207.148 117.638 208.504 116.281 208.504 114.608C208.504 112.934 207.148 111.578 205.474 111.578C203.801 111.578 202.444 112.934 202.444 114.608C202.444 116.281 203.801 117.638 205.474 117.638Z" fill="#C0D7E0" fill-opacity="0.25"/>
<path d="M205.474 132.788C207.148 132.788 208.504 131.431 208.504 129.758C208.504 128.084 207.148 126.728 205.474 126.728C203.801 126.728 202.444 128.084 202.444 129.758C202.444 131.431 203.801 132.788 205.474 132.788Z" fill="#C0D7E0" fill-opacity="0.25"/>
<path d="M205.474 147.938C207.148 147.938 208.504 146.581 208.504 144.908C208.504 143.235 207.148 141.878 205.474 141.878C203.801 141.878 202.444 143.235 202.444 144.908C202.444 146.581 203.801 147.938 205.474 147.938Z" fill="#C0D7E0" fill-opacity="0.25"/>
<path d="M205.474 163.088C207.148 163.088 208.504 161.732 208.504 160.058C208.504 158.385 207.148 157.028 205.474 157.028C203.801 157.028 202.444 158.385 202.444 160.058C202.444 161.732 203.801 163.088 205.474 163.088Z" fill="#C0D7E0" fill-opacity="0.25"/>
<path d="M205.474 178.238C207.148 178.238 208.504 176.882 208.504 175.208C208.504 173.535 207.148 172.178 205.474 172.178C203.801 172.178 202.444 173.535 202.444 175.208C202.444 176.882 203.801 178.238 205.474 178.238Z" fill="#C0D7E0" fill-opacity="0.25"/>
<path d="M205.474 193.389C207.148 193.389 208.504 192.032 208.504 190.359C208.504 188.685 207.148 187.329 205.474 187.329C203.801 187.329 202.444 188.685 202.444 190.359C202.444 192.032 203.801 193.389 205.474 193.389Z" fill="#C0D7E0" fill-opacity="0.25"/>
<path d="M205.474 208.539C207.148 208.539 208.504 207.182 208.504 205.509C208.504 203.835 207.148 202.479 205.474 202.479C203.801 202.479 202.444 203.835 202.444 205.509C202.444 207.182 203.801 208.539 205.474 208.539Z" fill="#C0D7E0" fill-opacity="0.25"/>
<path d="M205.474 223.689C207.148 223.689 208.504 222.332 208.504 220.659C208.504 218.986 207.148 217.629 205.474 217.629C203.801 217.629 202.444 218.986 202.444 220.659C202.444 222.332 203.801 223.689 205.474 223.689Z" fill="#C0D7E0" fill-opacity="0.25"/>
<path d="M205.474 238.839C207.148 238.839 208.504 237.483 208.504 235.809C208.504 234.136 207.148 232.779 205.474 232.779C203.801 232.779 202.444 234.136 202.444 235.809C202.444 237.483 203.801 238.839 205.474 238.839Z" fill="#C0D7E0" fill-opacity="0.25"/>
<path d="M205.474 253.989C207.148 253.989 208.504 252.633 208.504 250.959C208.504 249.286 207.148 247.929 205.474 247.929C203.801 247.929 202.444 249.286 202.444 250.959C202.444 252.633 203.801 253.989 205.474 253.989Z" fill="#C0D7E0" fill-opacity="0.25"/>
<path d="M205.474 269.139C207.148 269.139 208.504 267.783 208.504 266.109C208.504 264.436 207.148 263.079 205.474 263.079C203.801 263.079 202.444 264.436 202.444 266.109C202.444 267.783 203.801 269.139 205.474 269.139Z" fill="#C0D7E0" fill-opacity="0.25"/>
<path d="M190.324 11.5867C191.998 11.5867 193.354 10.2301 193.354 8.55667C193.354 6.88323 191.998 5.52661 190.324 5.52661C188.651 5.52661 187.294 6.88323 187.294 8.55667C187.294 10.2301 188.651 11.5867 190.324 11.5867Z" fill="#C0D7E0" fill-opacity="0.25"/>
<path d="M190.324 26.7368C191.998 26.7368 193.354 25.3803 193.354 23.7068C193.354 22.0334 191.998 20.6768 190.324 20.6768C188.651 20.6768 187.294 22.0334 187.294 23.7068C187.294 25.3803 188.651 26.7368 190.324 26.7368Z" fill="#C0D7E0" fill-opacity="0.25"/>
<path d="M190.324 41.887C191.998 41.887 193.354 40.5304 193.354 38.857C193.354 37.1835 191.998 35.8269 190.324 35.8269C188.651 35.8269 187.294 37.1835 187.294 38.857C187.294 40.5304 188.651 41.887 190.324 41.887Z" fill="#C0D7E0" fill-opacity="0.25"/>
<path d="M190.324 57.0371C191.998 57.0371 193.354 55.6806 193.354 54.0071C193.354 52.3337 191.998 50.9771 190.324 50.9771C188.651 50.9771 187.294 52.3337 187.294 54.0071C187.294 55.6806 188.651 57.0371 190.324 57.0371Z" fill="#C0D7E0" fill-opacity="0.25"/>
<path d="M190.324 72.1873C191.998 72.1873 193.354 70.8307 193.354 69.1573C193.354 67.4838 191.998 66.1272 190.324 66.1272C188.651 66.1272 187.294 67.4838 187.294 69.1573C187.294 70.8307 188.651 72.1873 190.324 72.1873Z" fill="#C0D7E0" fill-opacity="0.25"/>
<path d="M190.324 87.3374C191.998 87.3374 193.354 85.9808 193.354 84.3074C193.354 82.634 191.998 81.2773 190.324 81.2773C188.651 81.2773 187.294 82.634 187.294 84.3074C187.294 85.9808 188.651 87.3374 190.324 87.3374Z" fill="#C0D7E0" fill-opacity="0.25"/>
<path d="M190.324 102.488C191.998 102.488 193.354 101.131 193.354 99.4576C193.354 97.7841 191.998 96.4275 190.324 96.4275C188.651 96.4275 187.294 97.7841 187.294 99.4576C187.294 101.131 188.651 102.488 190.324 102.488Z" fill="#C0D7E0" fill-opacity="0.25"/>
<path d="M190.324 117.638C191.998 117.638 193.354 116.281 193.354 114.608C193.354 112.934 191.998 111.578 190.324 111.578C188.651 111.578 187.294 112.934 187.294 114.608C187.294 116.281 188.651 117.638 190.324 117.638Z" fill="#C0D7E0" fill-opacity="0.25"/>
<path d="M190.324 132.788C191.998 132.788 193.354 131.431 193.354 129.758C193.354 128.084 191.998 126.728 190.324 126.728C188.651 126.728 187.294 128.084 187.294 129.758C187.294 131.431 188.651 132.788 190.324 132.788Z" fill="#C0D7E0" fill-opacity="0.25"/>
<path d="M190.324 147.938C191.998 147.938 193.354 146.581 193.354 144.908C193.354 143.235 191.998 141.878 190.324 141.878C188.651 141.878 187.294 143.235 187.294 144.908C187.294 146.581 188.651 147.938 190.324 147.938Z" fill="#C0D7E0" fill-opacity="0.25"/>
<path d="M190.324 163.088C191.998 163.088 193.354 161.732 193.354 160.058C193.354 158.385 191.998 157.028 190.324 157.028C188.651 157.028 187.294 158.385 187.294 160.058C187.294 161.732 188.651 163.088 190.324 163.088Z" fill="#C0D7E0" fill-opacity="0.25"/>
<path d="M190.324 178.238C191.998 178.238 193.354 176.882 193.354 175.208C193.354 173.535 191.998 172.178 190.324 172.178C188.651 172.178 187.294 173.535 187.294 175.208C187.294 176.882 188.651 178.238 190.324 178.238Z" fill="#C0D7E0" fill-opacity="0.25"/>
<path d="M190.324 193.389C191.998 193.389 193.354 192.032 193.354 190.359C193.354 188.685 191.998 187.329 190.324 187.329C188.651 187.329 187.294 188.685 187.294 190.359C187.294 192.032 188.651 193.389 190.324 193.389Z" fill="#C0D7E0" fill-opacity="0.25"/>
<path d="M190.324 208.539C191.998 208.539 193.354 207.182 193.354 205.509C193.354 203.835 191.998 202.479 190.324 202.479C188.651 202.479 187.294 203.835 187.294 205.509C187.294 207.182 188.651 208.539 190.324 208.539Z" fill="#C0D7E0" fill-opacity="0.25"/>
<path d="M190.324 223.689C191.998 223.689 193.354 222.332 193.354 220.659C193.354 218.986 191.998 217.629 190.324 217.629C188.651 217.629 187.294 218.986 187.294 220.659C187.294 222.332 188.651 223.689 190.324 223.689Z" fill="#C0D7E0" fill-opacity="0.25"/>
<path d="M190.324 238.839C191.998 238.839 193.354 237.483 193.354 235.809C193.354 234.136 191.998 232.779 190.324 232.779C188.651 232.779 187.294 234.136 187.294 235.809C187.294 237.483 188.651 238.839 190.324 238.839Z" fill="#C0D7E0" fill-opacity="0.25"/>
<path d="M190.324 253.989C191.998 253.989 193.354 252.633 193.354 250.959C193.354 249.286 191.998 247.929 190.324 247.929C188.651 247.929 187.294 249.286 187.294 250.959C187.294 252.633 188.651 253.989 190.324 253.989Z" fill="#C0D7E0" fill-opacity="0.25"/>
<path d="M190.324 269.139C191.998 269.139 193.354 267.783 193.354 266.109C193.354 264.436 191.998 263.079 190.324 263.079C188.651 263.079 187.294 264.436 187.294 266.109C187.294 267.783 188.651 269.139 190.324 269.139Z" fill="#C0D7E0" fill-opacity="0.25"/>
<path d="M175.174 11.5867C176.848 11.5867 178.204 10.2301 178.204 8.55667C178.204 6.88323 176.848 5.52661 175.174 5.52661C173.501 5.52661 172.144 6.88323 172.144 8.55667C172.144 10.2301 173.501 11.5867 175.174 11.5867Z" fill="#C0D7E0" fill-opacity="0.25"/>
<path d="M175.174 26.7368C176.848 26.7368 178.204 25.3803 178.204 23.7068C178.204 22.0334 176.848 20.6768 175.174 20.6768C173.501 20.6768 172.144 22.0334 172.144 23.7068C172.144 25.3803 173.501 26.7368 175.174 26.7368Z" fill="#C0D7E0" fill-opacity="0.25"/>
<path d="M175.174 41.887C176.848 41.887 178.204 40.5304 178.204 38.857C178.204 37.1835 176.848 35.8269 175.174 35.8269C173.501 35.8269 172.144 37.1835 172.144 38.857C172.144 40.5304 173.501 41.887 175.174 41.887Z" fill="#C0D7E0" fill-opacity="0.25"/>
<path d="M175.174 57.0371C176.848 57.0371 178.204 55.6806 178.204 54.0071C178.204 52.3337 176.848 50.9771 175.174 50.9771C173.501 50.9771 172.144 52.3337 172.144 54.0071C172.144 55.6806 173.501 57.0371 175.174 57.0371Z" fill="#C0D7E0" fill-opacity="0.25"/>
<path d="M175.174 72.1873C176.848 72.1873 178.204 70.8307 178.204 69.1573C178.204 67.4838 176.848 66.1272 175.174 66.1272C173.501 66.1272 172.144 67.4838 172.144 69.1573C172.144 70.8307 173.501 72.1873 175.174 72.1873Z" fill="#C0D7E0" fill-opacity="0.25"/>
<path d="M175.174 87.3374C176.848 87.3374 178.204 85.9808 178.204 84.3074C178.204 82.634 176.848 81.2773 175.174 81.2773C173.501 81.2773 172.144 82.634 172.144 84.3074C172.144 85.9808 173.501 87.3374 175.174 87.3374Z" fill="#C0D7E0" fill-opacity="0.25"/>
<path d="M175.174 102.488C176.848 102.488 178.204 101.131 178.204 99.4576C178.204 97.7841 176.848 96.4275 175.174 96.4275C173.501 96.4275 172.144 97.7841 172.144 99.4576C172.144 101.131 173.501 102.488 175.174 102.488Z" fill="#C0D7E0" fill-opacity="0.25"/>
<path d="M175.174 117.638C176.848 117.638 178.204 116.281 178.204 114.608C178.204 112.934 176.848 111.578 175.174 111.578C173.501 111.578 172.144 112.934 172.144 114.608C172.144 116.281 173.501 117.638 175.174 117.638Z" fill="#C0D7E0" fill-opacity="0.25"/>
<path d="M175.174 132.788C176.848 132.788 178.204 131.431 178.204 129.758C178.204 128.084 176.848 126.728 175.174 126.728C173.501 126.728 172.144 128.084 172.144 129.758C172.144 131.431 173.501 132.788 175.174 132.788Z" fill="#C0D7E0" fill-opacity="0.25"/>
<path d="M175.174 147.938C176.848 147.938 178.204 146.581 178.204 144.908C178.204 143.235 176.848 141.878 175.174 141.878C173.501 141.878 172.144 143.235 172.144 144.908C172.144 146.581 173.501 147.938 175.174 147.938Z" fill="#C0D7E0" fill-opacity="0.25"/>
<path d="M175.174 163.088C176.848 163.088 178.204 161.732 178.204 160.058C178.204 158.385 176.848 157.028 175.174 157.028C173.501 157.028 172.144 158.385 172.144 160.058C172.144 161.732 173.501 163.088 175.174 163.088Z" fill="#C0D7E0" fill-opacity="0.25"/>
<path d="M175.174 178.238C176.848 178.238 178.204 176.882 178.204 175.208C178.204 173.535 176.848 172.178 175.174 172.178C173.501 172.178 172.144 173.535 172.144 175.208C172.144 176.882 173.501 178.238 175.174 178.238Z" fill="#C0D7E0" fill-opacity="0.25"/>
<path d="M175.174 193.389C176.848 193.389 178.204 192.032 178.204 190.359C178.204 188.685 176.848 187.329 175.174 187.329C173.501 187.329 172.144 188.685 172.144 190.359C172.144 192.032 173.501 193.389 175.174 193.389Z" fill="#C0D7E0" fill-opacity="0.25"/>
<path d="M175.174 208.539C176.848 208.539 178.204 207.182 178.204 205.509C178.204 203.835 176.848 202.479 175.174 202.479C173.501 202.479 172.144 203.835 172.144 205.509C172.144 207.182 173.501 208.539 175.174 208.539Z" fill="#C0D7E0" fill-opacity="0.25"/>
<path d="M175.174 223.689C176.848 223.689 178.204 222.332 178.204 220.659C178.204 218.986 176.848 217.629 175.174 217.629C173.501 217.629 172.144 218.986 172.144 220.659C172.144 222.332 173.501 223.689 175.174 223.689Z" fill="#C0D7E0" fill-opacity="0.25"/>
<path d="M175.174 238.839C176.848 238.839 178.204 237.483 178.204 235.809C178.204 234.136 176.848 232.779 175.174 232.779C173.501 232.779 172.144 234.136 172.144 235.809C172.144 237.483 173.501 238.839 175.174 238.839Z" fill="#C0D7E0" fill-opacity="0.25"/>
<path d="M175.174 253.989C176.848 253.989 178.204 252.633 178.204 250.959C178.204 249.286 176.848 247.929 175.174 247.929C173.501 247.929 172.144 249.286 172.144 250.959C172.144 252.633 173.501 253.989 175.174 253.989Z" fill="#C0D7E0" fill-opacity="0.25"/>
<path d="M175.174 269.139C176.848 269.139 178.204 267.783 178.204 266.109C178.204 264.436 176.848 263.079 175.174 263.079C173.501 263.079 172.144 264.436 172.144 266.109C172.144 267.783 173.501 269.139 175.174 269.139Z" fill="#C0D7E0" fill-opacity="0.25"/>
<path d="M160.024 11.5867C161.697 11.5867 163.054 10.2301 163.054 8.55667C163.054 6.88323 161.697 5.52661 160.024 5.52661C158.35 5.52661 156.994 6.88323 156.994 8.55667C156.994 10.2301 158.35 11.5867 160.024 11.5867Z" fill="#C0D7E0" fill-opacity="0.25"/>
<path d="M160.024 26.7368C161.697 26.7368 163.054 25.3803 163.054 23.7068C163.054 22.0334 161.697 20.6768 160.024 20.6768C158.35 20.6768 156.994 22.0334 156.994 23.7068C156.994 25.3803 158.35 26.7368 160.024 26.7368Z" fill="#C0D7E0" fill-opacity="0.25"/>
<path d="M160.024 41.887C161.697 41.887 163.054 40.5304 163.054 38.857C163.054 37.1835 161.697 35.8269 160.024 35.8269C158.35 35.8269 156.994 37.1835 156.994 38.857C156.994 40.5304 158.35 41.887 160.024 41.887Z" fill="#C0D7E0" fill-opacity="0.25"/>
<path d="M160.024 57.0371C161.697 57.0371 163.054 55.6806 163.054 54.0071C163.054 52.3337 161.697 50.9771 160.024 50.9771C158.35 50.9771 156.994 52.3337 156.994 54.0071C156.994 55.6806 158.35 57.0371 160.024 57.0371Z" fill="#C0D7E0" fill-opacity="0.25"/>
<path d="M160.024 72.1873C161.697 72.1873 163.054 70.8307 163.054 69.1573C163.054 67.4838 161.697 66.1272 160.024 66.1272C158.35 66.1272 156.994 67.4838 156.994 69.1573C156.994 70.8307 158.35 72.1873 160.024 72.1873Z" fill="#C0D7E0" fill-opacity="0.25"/>
<path d="M160.024 87.3374C161.697 87.3374 163.054 85.9808 163.054 84.3074C163.054 82.634 161.697 81.2773 160.024 81.2773C158.35 81.2773 156.994 82.634 156.994 84.3074C156.994 85.9808 158.35 87.3374 160.024 87.3374Z" fill="#C0D7E0" fill-opacity="0.25"/>
<path d="M160.024 102.488C161.697 102.488 163.054 101.131 163.054 99.4576C163.054 97.7841 161.697 96.4275 160.024 96.4275C158.35 96.4275 156.994 97.7841 156.994 99.4576C156.994 101.131 158.35 102.488 160.024 102.488Z" fill="#C0D7E0" fill-opacity="0.25"/>
<path d="M160.024 117.638C161.697 117.638 163.054 116.281 163.054 114.608C163.054 112.934 161.697 111.578 160.024 111.578C158.35 111.578 156.994 112.934 156.994 114.608C156.994 116.281 158.35 117.638 160.024 117.638Z" fill="#C0D7E0" fill-opacity="0.25"/>
<path d="M160.024 132.788C161.697 132.788 163.054 131.431 163.054 129.758C163.054 128.084 161.697 126.728 160.024 126.728C158.35 126.728 156.994 128.084 156.994 129.758C156.994 131.431 158.35 132.788 160.024 132.788Z" fill="#C0D7E0" fill-opacity="0.25"/>
<path d="M160.024 147.938C161.697 147.938 163.054 146.581 163.054 144.908C163.054 143.235 161.697 141.878 160.024 141.878C158.35 141.878 156.994 143.235 156.994 144.908C156.994 146.581 158.35 147.938 160.024 147.938Z" fill="#C0D7E0" fill-opacity="0.25"/>
<path d="M160.024 163.088C161.697 163.088 163.054 161.732 163.054 160.058C163.054 158.385 161.697 157.028 160.024 157.028C158.35 157.028 156.994 158.385 156.994 160.058C156.994 161.732 158.35 163.088 160.024 163.088Z" fill="#C0D7E0" fill-opacity="0.25"/>
<path d="M160.024 178.238C161.697 178.238 163.054 176.882 163.054 175.208C163.054 173.535 161.697 172.178 160.024 172.178C158.35 172.178 156.994 173.535 156.994 175.208C156.994 176.882 158.35 178.238 160.024 178.238Z" fill="#C0D7E0" fill-opacity="0.25"/>
<path d="M160.024 193.389C161.697 193.389 163.054 192.032 163.054 190.359C163.054 188.685 161.697 187.329 160.024 187.329C158.35 187.329 156.994 188.685 156.994 190.359C156.994 192.032 158.35 193.389 160.024 193.389Z" fill="#C0D7E0" fill-opacity="0.25"/>
<path d="M160.024 208.539C161.697 208.539 163.054 207.182 163.054 205.509C163.054 203.835 161.697 202.479 160.024 202.479C158.35 202.479 156.994 203.835 156.994 205.509C156.994 207.182 158.35 208.539 160.024 208.539Z" fill="#C0D7E0" fill-opacity="0.25"/>
<path d="M160.024 223.689C161.697 223.689 163.054 222.332 163.054 220.659C163.054 218.986 161.697 217.629 160.024 217.629C158.35 217.629 156.994 218.986 156.994 220.659C156.994 222.332 158.35 223.689 160.024 223.689Z" fill="#C0D7E0" fill-opacity="0.25"/>
<path d="M160.024 238.839C161.697 238.839 163.054 237.483 163.054 235.809C163.054 234.136 161.697 232.779 160.024 232.779C158.35 232.779 156.994 234.136 156.994 235.809C156.994 237.483 158.35 238.839 160.024 238.839Z" fill="#C0D7E0" fill-opacity="0.25"/>
<path d="M160.024 253.989C161.697 253.989 163.054 252.633 163.054 250.959C163.054 249.286 161.697 247.929 160.024 247.929C158.35 247.929 156.994 249.286 156.994 250.959C156.994 252.633 158.35 253.989 160.024 253.989Z" fill="#C0D7E0" fill-opacity="0.25"/>
<path d="M160.024 269.139C161.697 269.139 163.054 267.783 163.054 266.109C163.054 264.436 161.697 263.079 160.024 263.079C158.35 263.079 156.994 264.436 156.994 266.109C156.994 267.783 158.35 269.139 160.024 269.139Z" fill="#C0D7E0" fill-opacity="0.25"/>
<path d="M144.874 11.5867C146.547 11.5867 147.904 10.2301 147.904 8.55667C147.904 6.88323 146.547 5.52661 144.874 5.52661C143.2 5.52661 141.844 6.88323 141.844 8.55667C141.844 10.2301 143.2 11.5867 144.874 11.5867Z" fill="#C0D7E0" fill-opacity="0.25"/>
<path d="M144.874 26.7368C146.547 26.7368 147.904 25.3803 147.904 23.7068C147.904 22.0334 146.547 20.6768 144.874 20.6768C143.2 20.6768 141.844 22.0334 141.844 23.7068C141.844 25.3803 143.2 26.7368 144.874 26.7368Z" fill="#C0D7E0" fill-opacity="0.25"/>
<path d="M144.874 41.887C146.547 41.887 147.904 40.5304 147.904 38.857C147.904 37.1835 146.547 35.8269 144.874 35.8269C143.2 35.8269 141.844 37.1835 141.844 38.857C141.844 40.5304 143.2 41.887 144.874 41.887Z" fill="#C0D7E0" fill-opacity="0.25"/>
<path d="M144.874 57.0371C146.547 57.0371 147.904 55.6806 147.904 54.0071C147.904 52.3337 146.547 50.9771 144.874 50.9771C143.2 50.9771 141.844 52.3337 141.844 54.0071C141.844 55.6806 143.2 57.0371 144.874 57.0371Z" fill="#C0D7E0" fill-opacity="0.25"/>
<path d="M144.874 72.1873C146.547 72.1873 147.904 70.8307 147.904 69.1573C147.904 67.4838 146.547 66.1272 144.874 66.1272C143.2 66.1272 141.844 67.4838 141.844 69.1573C141.844 70.8307 143.2 72.1873 144.874 72.1873Z" fill="#C0D7E0" fill-opacity="0.25"/>
<path d="M144.874 87.3374C146.547 87.3374 147.904 85.9808 147.904 84.3074C147.904 82.634 146.547 81.2773 144.874 81.2773C143.2 81.2773 141.844 82.634 141.844 84.3074C141.844 85.9808 143.2 87.3374 144.874 87.3374Z" fill="#C0D7E0" fill-opacity="0.25"/>
<path d="M144.874 102.488C146.547 102.488 147.904 101.131 147.904 99.4576C147.904 97.7841 146.547 96.4275 144.874 96.4275C143.2 96.4275 141.844 97.7841 141.844 99.4576C141.844 101.131 143.2 102.488 144.874 102.488Z" fill="#C0D7E0" fill-opacity="0.25"/>
<path d="M144.874 117.638C146.547 117.638 147.904 116.281 147.904 114.608C147.904 112.934 146.547 111.578 144.874 111.578C143.2 111.578 141.844 112.934 141.844 114.608C141.844 116.281 143.2 117.638 144.874 117.638Z" fill="#C0D7E0" fill-opacity="0.25"/>
<path d="M144.874 132.788C146.547 132.788 147.904 131.431 147.904 129.758C147.904 128.084 146.547 126.728 144.874 126.728C143.2 126.728 141.844 128.084 141.844 129.758C141.844 131.431 143.2 132.788 144.874 132.788Z" fill="#C0D7E0" fill-opacity="0.25"/>
<path d="M144.874 147.938C146.547 147.938 147.904 146.581 147.904 144.908C147.904 143.235 146.547 141.878 144.874 141.878C143.2 141.878 141.844 143.235 141.844 144.908C141.844 146.581 143.2 147.938 144.874 147.938Z" fill="#C0D7E0" fill-opacity="0.25"/>
<path d="M144.874 163.088C146.547 163.088 147.904 161.732 147.904 160.058C147.904 158.385 146.547 157.028 144.874 157.028C143.2 157.028 141.844 158.385 141.844 160.058C141.844 161.732 143.2 163.088 144.874 163.088Z" fill="#C0D7E0" fill-opacity="0.25"/>
<path d="M144.874 178.238C146.547 178.238 147.904 176.882 147.904 175.208C147.904 173.535 146.547 172.178 144.874 172.178C143.2 172.178 141.844 173.535 141.844 175.208C141.844 176.882 143.2 178.238 144.874 178.238Z" fill="#C0D7E0" fill-opacity="0.25"/>
<path d="M144.874 193.389C146.547 193.389 147.904 192.032 147.904 190.359C147.904 188.685 146.547 187.329 144.874 187.329C143.2 187.329 141.844 188.685 141.844 190.359C141.844 192.032 143.2 193.389 144.874 193.389Z" fill="#C0D7E0" fill-opacity="0.25"/>
<path d="M144.874 208.539C146.547 208.539 147.904 207.182 147.904 205.509C147.904 203.835 146.547 202.479 144.874 202.479C143.2 202.479 141.844 203.835 141.844 205.509C141.844 207.182 143.2 208.539 144.874 208.539Z" fill="#C0D7E0" fill-opacity="0.25"/>
<path d="M144.874 223.689C146.547 223.689 147.904 222.332 147.904 220.659C147.904 218.986 146.547 217.629 144.874 217.629C143.2 217.629 141.844 218.986 141.844 220.659C141.844 222.332 143.2 223.689 144.874 223.689Z" fill="#C0D7E0" fill-opacity="0.25"/>
<path d="M144.874 238.839C146.547 238.839 147.904 237.483 147.904 235.809C147.904 234.136 146.547 232.779 144.874 232.779C143.2 232.779 141.844 234.136 141.844 235.809C141.844 237.483 143.2 238.839 144.874 238.839Z" fill="#C0D7E0" fill-opacity="0.25"/>
<path d="M144.874 253.989C146.547 253.989 147.904 252.633 147.904 250.959C147.904 249.286 146.547 247.929 144.874 247.929C143.2 247.929 141.844 249.286 141.844 250.959C141.844 252.633 143.2 253.989 144.874 253.989Z" fill="#C0D7E0" fill-opacity="0.25"/>
<path d="M144.874 269.139C146.547 269.139 147.904 267.783 147.904 266.109C147.904 264.436 146.547 263.079 144.874 263.079C143.2 263.079 141.844 264.436 141.844 266.109C141.844 267.783 143.2 269.139 144.874 269.139Z" fill="#C0D7E0" fill-opacity="0.25"/>
<path d="M129.724 11.5867C131.397 11.5867 132.754 10.2301 132.754 8.55667C132.754 6.88323 131.397 5.52661 129.724 5.52661C128.05 5.52661 126.694 6.88323 126.694 8.55667C126.694 10.2301 128.05 11.5867 129.724 11.5867Z" fill="#C0D7E0" fill-opacity="0.25"/>
<path d="M129.724 26.7368C131.397 26.7368 132.754 25.3803 132.754 23.7068C132.754 22.0334 131.397 20.6768 129.724 20.6768C128.05 20.6768 126.694 22.0334 126.694 23.7068C126.694 25.3803 128.05 26.7368 129.724 26.7368Z" fill="#C0D7E0" fill-opacity="0.25"/>
<path d="M129.724 41.887C131.397 41.887 132.754 40.5304 132.754 38.857C132.754 37.1835 131.397 35.8269 129.724 35.8269C128.05 35.8269 126.694 37.1835 126.694 38.857C126.694 40.5304 128.05 41.887 129.724 41.887Z" fill="#C0D7E0" fill-opacity="0.25"/>
<path d="M129.724 57.0371C131.397 57.0371 132.754 55.6806 132.754 54.0071C132.754 52.3337 131.397 50.9771 129.724 50.9771C128.05 50.9771 126.694 52.3337 126.694 54.0071C126.694 55.6806 128.05 57.0371 129.724 57.0371Z" fill="#C0D7E0" fill-opacity="0.25"/>
<path d="M129.724 72.1873C131.397 72.1873 132.754 70.8307 132.754 69.1573C132.754 67.4838 131.397 66.1272 129.724 66.1272C128.05 66.1272 126.694 67.4838 126.694 69.1573C126.694 70.8307 128.05 72.1873 129.724 72.1873Z" fill="#C0D7E0" fill-opacity="0.25"/>
<path d="M129.724 87.3374C131.397 87.3374 132.754 85.9808 132.754 84.3074C132.754 82.634 131.397 81.2773 129.724 81.2773C128.05 81.2773 126.694 82.634 126.694 84.3074C126.694 85.9808 128.05 87.3374 129.724 87.3374Z" fill="#C0D7E0" fill-opacity="0.25"/>
<path d="M129.724 102.488C131.397 102.488 132.754 101.131 132.754 99.4576C132.754 97.7841 131.397 96.4275 129.724 96.4275C128.05 96.4275 126.694 97.7841 126.694 99.4576C126.694 101.131 128.05 102.488 129.724 102.488Z" fill="#C0D7E0" fill-opacity="0.25"/>
<path d="M129.724 117.638C131.397 117.638 132.754 116.281 132.754 114.608C132.754 112.934 131.397 111.578 129.724 111.578C128.05 111.578 126.694 112.934 126.694 114.608C126.694 116.281 128.05 117.638 129.724 117.638Z" fill="#C0D7E0" fill-opacity="0.25"/>
<path d="M129.724 132.788C131.397 132.788 132.754 131.431 132.754 129.758C132.754 128.084 131.397 126.728 129.724 126.728C128.05 126.728 126.694 128.084 126.694 129.758C126.694 131.431 128.05 132.788 129.724 132.788Z" fill="#C0D7E0" fill-opacity="0.25"/>
<path d="M129.724 147.938C131.397 147.938 132.754 146.581 132.754 144.908C132.754 143.235 131.397 141.878 129.724 141.878C128.05 141.878 126.694 143.235 126.694 144.908C126.694 146.581 128.05 147.938 129.724 147.938Z" fill="#C0D7E0" fill-opacity="0.25"/>
<path d="M129.724 163.088C131.397 163.088 132.754 161.732 132.754 160.058C132.754 158.385 131.397 157.028 129.724 157.028C128.05 157.028 126.694 158.385 126.694 160.058C126.694 161.732 128.05 163.088 129.724 163.088Z" fill="#C0D7E0" fill-opacity="0.25"/>
<path d="M129.724 178.238C131.397 178.238 132.754 176.882 132.754 175.208C132.754 173.535 131.397 172.178 129.724 172.178C128.05 172.178 126.694 173.535 126.694 175.208C126.694 176.882 128.05 178.238 129.724 178.238Z" fill="#C0D7E0" fill-opacity="0.25"/>
<path d="M129.724 193.389C131.397 193.389 132.754 192.032 132.754 190.359C132.754 188.685 131.397 187.329 129.724 187.329C128.05 187.329 126.694 188.685 126.694 190.359C126.694 192.032 128.05 193.389 129.724 193.389Z" fill="#C0D7E0" fill-opacity="0.25"/>
<path d="M129.724 208.539C131.397 208.539 132.754 207.182 132.754 205.509C132.754 203.835 131.397 202.479 129.724 202.479C128.05 202.479 126.694 203.835 126.694 205.509C126.694 207.182 128.05 208.539 129.724 208.539Z" fill="#C0D7E0" fill-opacity="0.25"/>
<path d="M129.724 223.689C131.397 223.689 132.754 222.332 132.754 220.659C132.754 218.986 131.397 217.629 129.724 217.629C128.05 217.629 126.694 218.986 126.694 220.659C126.694 222.332 128.05 223.689 129.724 223.689Z" fill="#C0D7E0" fill-opacity="0.25"/>
<path d="M129.724 238.839C131.397 238.839 132.754 237.483 132.754 235.809C132.754 234.136 131.397 232.779 129.724 232.779C128.05 232.779 126.694 234.136 126.694 235.809C126.694 237.483 128.05 238.839 129.724 238.839Z" fill="#C0D7E0" fill-opacity="0.25"/>
<path d="M129.724 253.989C131.397 253.989 132.754 252.633 132.754 250.959C132.754 249.286 131.397 247.929 129.724 247.929C128.05 247.929 126.694 249.286 126.694 250.959C126.694 252.633 128.05 253.989 129.724 253.989Z" fill="#C0D7E0" fill-opacity="0.25"/>
<path d="M129.724 269.139C131.397 269.139 132.754 267.783 132.754 266.109C132.754 264.436 131.397 263.079 129.724 263.079C128.05 263.079 126.694 264.436 126.694 266.109C126.694 267.783 128.05 269.139 129.724 269.139Z" fill="#C0D7E0" fill-opacity="0.25"/>
<path d="M114.573 11.5867C116.247 11.5867 117.604 10.2301 117.604 8.55667C117.604 6.88323 116.247 5.52661 114.573 5.52661C112.9 5.52661 111.543 6.88323 111.543 8.55667C111.543 10.2301 112.9 11.5867 114.573 11.5867Z" fill="#C0D7E0" fill-opacity="0.25"/>
<path d="M114.573 26.7368C116.247 26.7368 117.604 25.3803 117.604 23.7068C117.604 22.0334 116.247 20.6768 114.573 20.6768C112.9 20.6768 111.543 22.0334 111.543 23.7068C111.543 25.3803 112.9 26.7368 114.573 26.7368Z" fill="#C0D7E0" fill-opacity="0.25"/>
<path d="M114.573 41.887C116.247 41.887 117.604 40.5304 117.604 38.857C117.604 37.1835 116.247 35.8269 114.573 35.8269C112.9 35.8269 111.543 37.1835 111.543 38.857C111.543 40.5304 112.9 41.887 114.573 41.887Z" fill="#C0D7E0" fill-opacity="0.25"/>
<path d="M114.573 57.0371C116.247 57.0371 117.604 55.6806 117.604 54.0071C117.604 52.3337 116.247 50.9771 114.573 50.9771C112.9 50.9771 111.543 52.3337 111.543 54.0071C111.543 55.6806 112.9 57.0371 114.573 57.0371Z" fill="#C0D7E0" fill-opacity="0.25"/>
<path d="M114.573 72.1873C116.247 72.1873 117.604 70.8307 117.604 69.1573C117.604 67.4838 116.247 66.1272 114.573 66.1272C112.9 66.1272 111.543 67.4838 111.543 69.1573C111.543 70.8307 112.9 72.1873 114.573 72.1873Z" fill="#C0D7E0" fill-opacity="0.25"/>
<path d="M114.573 87.3374C116.247 87.3374 117.604 85.9808 117.604 84.3074C117.604 82.634 116.247 81.2773 114.573 81.2773C112.9 81.2773 111.543 82.634 111.543 84.3074C111.543 85.9808 112.9 87.3374 114.573 87.3374Z" fill="#C0D7E0" fill-opacity="0.25"/>
<path d="M114.573 102.488C116.247 102.488 117.604 101.131 117.604 99.4576C117.604 97.7841 116.247 96.4275 114.573 96.4275C112.9 96.4275 111.543 97.7841 111.543 99.4576C111.543 101.131 112.9 102.488 114.573 102.488Z" fill="#C0D7E0" fill-opacity="0.25"/>
<path d="M114.573 117.638C116.247 117.638 117.604 116.281 117.604 114.608C117.604 112.934 116.247 111.578 114.573 111.578C112.9 111.578 111.543 112.934 111.543 114.608C111.543 116.281 112.9 117.638 114.573 117.638Z" fill="#C0D7E0" fill-opacity="0.25"/>
<path d="M114.573 132.788C116.247 132.788 117.604 131.431 117.604 129.758C117.604 128.084 116.247 126.728 114.573 126.728C112.9 126.728 111.543 128.084 111.543 129.758C111.543 131.431 112.9 132.788 114.573 132.788Z" fill="#C0D7E0" fill-opacity="0.25"/>
<path d="M114.573 147.938C116.247 147.938 117.604 146.581 117.604 144.908C117.604 143.235 116.247 141.878 114.573 141.878C112.9 141.878 111.543 143.235 111.543 144.908C111.543 146.581 112.9 147.938 114.573 147.938Z" fill="#C0D7E0" fill-opacity="0.25"/>
<path d="M114.573 163.088C116.247 163.088 117.604 161.732 117.604 160.058C117.604 158.385 116.247 157.028 114.573 157.028C112.9 157.028 111.543 158.385 111.543 160.058C111.543 161.732 112.9 163.088 114.573 163.088Z" fill="#C0D7E0" fill-opacity="0.25"/>
<path d="M114.573 178.238C116.247 178.238 117.604 176.882 117.604 175.208C117.604 173.535 116.247 172.178 114.573 172.178C112.9 172.178 111.543 173.535 111.543 175.208C111.543 176.882 112.9 178.238 114.573 178.238Z" fill="#C0D7E0" fill-opacity="0.25"/>
<path d="M114.573 193.389C116.247 193.389 117.604 192.032 117.604 190.359C117.604 188.685 116.247 187.329 114.573 187.329C112.9 187.329 111.543 188.685 111.543 190.359C111.543 192.032 112.9 193.389 114.573 193.389Z" fill="#C0D7E0" fill-opacity="0.25"/>
<path d="M114.573 208.539C116.247 208.539 117.604 207.182 117.604 205.509C117.604 203.835 116.247 202.479 114.573 202.479C112.9 202.479 111.543 203.835 111.543 205.509C111.543 207.182 112.9 208.539 114.573 208.539Z" fill="#C0D7E0" fill-opacity="0.25"/>
<path d="M114.573 223.689C116.247 223.689 117.604 222.332 117.604 220.659C117.604 218.986 116.247 217.629 114.573 217.629C112.9 217.629 111.543 218.986 111.543 220.659C111.543 222.332 112.9 223.689 114.573 223.689Z" fill="#C0D7E0" fill-opacity="0.25"/>
<path d="M114.573 238.839C116.247 238.839 117.604 237.483 117.604 235.809C117.604 234.136 116.247 232.779 114.573 232.779C112.9 232.779 111.543 234.136 111.543 235.809C111.543 237.483 112.9 238.839 114.573 238.839Z" fill="#C0D7E0" fill-opacity="0.25"/>
<path d="M114.573 253.989C116.247 253.989 117.604 252.633 117.604 250.959C117.604 249.286 116.247 247.929 114.573 247.929C112.9 247.929 111.543 249.286 111.543 250.959C111.543 252.633 112.9 253.989 114.573 253.989Z" fill="#C0D7E0" fill-opacity="0.25"/>
<path d="M114.573 269.139C116.247 269.139 117.604 267.783 117.604 266.109C117.604 264.436 116.247 263.079 114.573 263.079C112.9 263.079 111.543 264.436 111.543 266.109C111.543 267.783 112.9 269.139 114.573 269.139Z" fill="#C0D7E0" fill-opacity="0.25"/>
<path d="M99.4233 11.5867C101.097 11.5867 102.453 10.2301 102.453 8.55667C102.453 6.88323 101.097 5.52661 99.4233 5.52661C97.7499 5.52661 96.3933 6.88323 96.3933 8.55667C96.3933 10.2301 97.7499 11.5867 99.4233 11.5867Z" fill="#C0D7E0" fill-opacity="0.25"/>
<path d="M99.4233 26.7368C101.097 26.7368 102.453 25.3803 102.453 23.7068C102.453 22.0334 101.097 20.6768 99.4233 20.6768C97.7499 20.6768 96.3933 22.0334 96.3933 23.7068C96.3933 25.3803 97.7499 26.7368 99.4233 26.7368Z" fill="#C0D7E0" fill-opacity="0.25"/>
<path d="M99.4233 41.887C101.097 41.887 102.453 40.5304 102.453 38.857C102.453 37.1835 101.097 35.8269 99.4233 35.8269C97.7499 35.8269 96.3933 37.1835 96.3933 38.857C96.3933 40.5304 97.7499 41.887 99.4233 41.887Z" fill="#C0D7E0" fill-opacity="0.25"/>
<path d="M99.4233 57.0371C101.097 57.0371 102.453 55.6806 102.453 54.0071C102.453 52.3337 101.097 50.9771 99.4233 50.9771C97.7499 50.9771 96.3933 52.3337 96.3933 54.0071C96.3933 55.6806 97.7499 57.0371 99.4233 57.0371Z" fill="#C0D7E0" fill-opacity="0.25"/>
<path d="M99.4233 72.1873C101.097 72.1873 102.453 70.8307 102.453 69.1573C102.453 67.4838 101.097 66.1272 99.4233 66.1272C97.7499 66.1272 96.3933 67.4838 96.3933 69.1573C96.3933 70.8307 97.7499 72.1873 99.4233 72.1873Z" fill="#C0D7E0" fill-opacity="0.25"/>
<path d="M99.4233 87.3374C101.097 87.3374 102.453 85.9808 102.453 84.3074C102.453 82.634 101.097 81.2773 99.4233 81.2773C97.7499 81.2773 96.3933 82.634 96.3933 84.3074C96.3933 85.9808 97.7499 87.3374 99.4233 87.3374Z" fill="#C0D7E0" fill-opacity="0.25"/>
<path d="M99.4233 102.488C101.097 102.488 102.453 101.131 102.453 99.4576C102.453 97.7841 101.097 96.4275 99.4233 96.4275C97.7499 96.4275 96.3933 97.7841 96.3933 99.4576C96.3933 101.131 97.7499 102.488 99.4233 102.488Z" fill="#C0D7E0" fill-opacity="0.25"/>
<path d="M99.4233 117.638C101.097 117.638 102.453 116.281 102.453 114.608C102.453 112.934 101.097 111.578 99.4233 111.578C97.7499 111.578 96.3933 112.934 96.3933 114.608C96.3933 116.281 97.7499 117.638 99.4233 117.638Z" fill="#C0D7E0" fill-opacity="0.25"/>
<path d="M99.4233 132.788C101.097 132.788 102.453 131.431 102.453 129.758C102.453 128.084 101.097 126.728 99.4233 126.728C97.7499 126.728 96.3933 128.084 96.3933 129.758C96.3933 131.431 97.7499 132.788 99.4233 132.788Z" fill="#C0D7E0" fill-opacity="0.25"/>
<path d="M99.4233 147.938C101.097 147.938 102.453 146.581 102.453 144.908C102.453 143.235 101.097 141.878 99.4233 141.878C97.7499 141.878 96.3933 143.235 96.3933 144.908C96.3933 146.581 97.7499 147.938 99.4233 147.938Z" fill="#C0D7E0" fill-opacity="0.25"/>
<path d="M99.4233 163.088C101.097 163.088 102.453 161.732 102.453 160.058C102.453 158.385 101.097 157.028 99.4233 157.028C97.7499 157.028 96.3933 158.385 96.3933 160.058C96.3933 161.732 97.7499 163.088 99.4233 163.088Z" fill="#C0D7E0" fill-opacity="0.25"/>
<path d="M99.4233 178.238C101.097 178.238 102.453 176.882 102.453 175.208C102.453 173.535 101.097 172.178 99.4233 172.178C97.7499 172.178 96.3933 173.535 96.3933 175.208C96.3933 176.882 97.7499 178.238 99.4233 178.238Z" fill="#C0D7E0" fill-opacity="0.25"/>
<path d="M99.4233 193.389C101.097 193.389 102.453 192.032 102.453 190.359C102.453 188.685 101.097 187.329 99.4233 187.329C97.7499 187.329 96.3933 188.685 96.3933 190.359C96.3933 192.032 97.7499 193.389 99.4233 193.389Z" fill="#C0D7E0" fill-opacity="0.25"/>
<path d="M99.4233 208.539C101.097 208.539 102.453 207.182 102.453 205.509C102.453 203.835 101.097 202.479 99.4233 202.479C97.7499 202.479 96.3933 203.835 96.3933 205.509C96.3933 207.182 97.7499 208.539 99.4233 208.539Z" fill="#C0D7E0" fill-opacity="0.25"/>
<path d="M99.4233 223.689C101.097 223.689 102.453 222.332 102.453 220.659C102.453 218.986 101.097 217.629 99.4233 217.629C97.7499 217.629 96.3933 218.986 96.3933 220.659C96.3933 222.332 97.7499 223.689 99.4233 223.689Z" fill="#C0D7E0" fill-opacity="0.25"/>
<path d="M99.4233 238.839C101.097 238.839 102.453 237.483 102.453 235.809C102.453 234.136 101.097 232.779 99.4233 232.779C97.7499 232.779 96.3933 234.136 96.3933 235.809C96.3933 237.483 97.7499 238.839 99.4233 238.839Z" fill="#C0D7E0" fill-opacity="0.25"/>
<path d="M99.4233 253.989C101.097 253.989 102.453 252.633 102.453 250.959C102.453 249.286 101.097 247.929 99.4233 247.929C97.7499 247.929 96.3933 249.286 96.3933 250.959C96.3933 252.633 97.7499 253.989 99.4233 253.989Z" fill="#C0D7E0" fill-opacity="0.25"/>
<path d="M99.4233 269.139C101.097 269.139 102.453 267.783 102.453 266.109C102.453 264.436 101.097 263.079 99.4233 263.079C97.7499 263.079 96.3933 264.436 96.3933 266.109C96.3933 267.783 97.7499 269.139 99.4233 269.139Z" fill="#C0D7E0" fill-opacity="0.25"/>
<path d="M84.2732 11.5867C85.9466 11.5867 87.3032 10.2301 87.3032 8.55667C87.3032 6.88323 85.9466 5.52661 84.2732 5.52661C82.5998 5.52661 81.2432 6.88323 81.2432 8.55667C81.2432 10.2301 82.5998 11.5867 84.2732 11.5867Z" fill="#C0D7E0" fill-opacity="0.25"/>
<path d="M84.2732 26.7368C85.9466 26.7368 87.3032 25.3803 87.3032 23.7068C87.3032 22.0334 85.9466 20.6768 84.2732 20.6768C82.5998 20.6768 81.2432 22.0334 81.2432 23.7068C81.2432 25.3803 82.5998 26.7368 84.2732 26.7368Z" fill="#C0D7E0" fill-opacity="0.25"/>
<path d="M84.2732 41.887C85.9466 41.887 87.3032 40.5304 87.3032 38.857C87.3032 37.1835 85.9466 35.8269 84.2732 35.8269C82.5998 35.8269 81.2432 37.1835 81.2432 38.857C81.2432 40.5304 82.5998 41.887 84.2732 41.887Z" fill="#C0D7E0" fill-opacity="0.25"/>
<path d="M84.2732 57.0371C85.9466 57.0371 87.3032 55.6806 87.3032 54.0071C87.3032 52.3337 85.9466 50.9771 84.2732 50.9771C82.5998 50.9771 81.2432 52.3337 81.2432 54.0071C81.2432 55.6806 82.5998 57.0371 84.2732 57.0371Z" fill="#C0D7E0" fill-opacity="0.25"/>
<path d="M84.2732 72.1873C85.9466 72.1873 87.3032 70.8307 87.3032 69.1573C87.3032 67.4838 85.9466 66.1272 84.2732 66.1272C82.5998 66.1272 81.2432 67.4838 81.2432 69.1573C81.2432 70.8307 82.5998 72.1873 84.2732 72.1873Z" fill="#C0D7E0" fill-opacity="0.25"/>
<path d="M84.2732 87.3374C85.9466 87.3374 87.3032 85.9808 87.3032 84.3074C87.3032 82.634 85.9466 81.2773 84.2732 81.2773C82.5998 81.2773 81.2432 82.634 81.2432 84.3074C81.2432 85.9808 82.5998 87.3374 84.2732 87.3374Z" fill="#C0D7E0" fill-opacity="0.25"/>
<path d="M84.2732 102.488C85.9466 102.488 87.3032 101.131 87.3032 99.4576C87.3032 97.7841 85.9466 96.4275 84.2732 96.4275C82.5998 96.4275 81.2432 97.7841 81.2432 99.4576C81.2432 101.131 82.5998 102.488 84.2732 102.488Z" fill="#C0D7E0" fill-opacity="0.25"/>
<path d="M84.2732 117.638C85.9466 117.638 87.3032 116.281 87.3032 114.608C87.3032 112.934 85.9466 111.578 84.2732 111.578C82.5998 111.578 81.2432 112.934 81.2432 114.608C81.2432 116.281 82.5998 117.638 84.2732 117.638Z" fill="#C0D7E0" fill-opacity="0.25"/>
<path d="M84.2732 132.788C85.9466 132.788 87.3032 131.431 87.3032 129.758C87.3032 128.084 85.9466 126.728 84.2732 126.728C82.5998 126.728 81.2432 128.084 81.2432 129.758C81.2432 131.431 82.5998 132.788 84.2732 132.788Z" fill="#C0D7E0" fill-opacity="0.25"/>
<path d="M84.2732 147.938C85.9466 147.938 87.3032 146.581 87.3032 144.908C87.3032 143.235 85.9466 141.878 84.2732 141.878C82.5998 141.878 81.2432 143.235 81.2432 144.908C81.2432 146.581 82.5998 147.938 84.2732 147.938Z" fill="#C0D7E0" fill-opacity="0.25"/>
<path d="M84.2732 163.088C85.9466 163.088 87.3032 161.732 87.3032 160.058C87.3032 158.385 85.9466 157.028 84.2732 157.028C82.5998 157.028 81.2432 158.385 81.2432 160.058C81.2432 161.732 82.5998 163.088 84.2732 163.088Z" fill="#C0D7E0" fill-opacity="0.25"/>
<path d="M84.2732 178.238C85.9466 178.238 87.3032 176.882 87.3032 175.208C87.3032 173.535 85.9466 172.178 84.2732 172.178C82.5998 172.178 81.2432 173.535 81.2432 175.208C81.2432 176.882 82.5998 178.238 84.2732 178.238Z" fill="#C0D7E0" fill-opacity="0.25"/>
<path d="M84.2732 193.389C85.9466 193.389 87.3032 192.032 87.3032 190.359C87.3032 188.685 85.9466 187.329 84.2732 187.329C82.5998 187.329 81.2432 188.685 81.2432 190.359C81.2432 192.032 82.5998 193.389 84.2732 193.389Z" fill="#C0D7E0" fill-opacity="0.25"/>
<path d="M84.2732 208.539C85.9466 208.539 87.3032 207.182 87.3032 205.509C87.3032 203.835 85.9466 202.479 84.2732 202.479C82.5998 202.479 81.2432 203.835 81.2432 205.509C81.2432 207.182 82.5998 208.539 84.2732 208.539Z" fill="#C0D7E0" fill-opacity="0.25"/>
<path d="M84.2732 223.689C85.9466 223.689 87.3032 222.332 87.3032 220.659C87.3032 218.986 85.9466 217.629 84.2732 217.629C82.5998 217.629 81.2432 218.986 81.2432 220.659C81.2432 222.332 82.5998 223.689 84.2732 223.689Z" fill="#C0D7E0" fill-opacity="0.25"/>
<path d="M84.2732 238.839C85.9466 238.839 87.3032 237.483 87.3032 235.809C87.3032 234.136 85.9466 232.779 84.2732 232.779C82.5998 232.779 81.2432 234.136 81.2432 235.809C81.2432 237.483 82.5998 238.839 84.2732 238.839Z" fill="#C0D7E0" fill-opacity="0.25"/>
<path d="M84.2732 253.989C85.9466 253.989 87.3032 252.633 87.3032 250.959C87.3032 249.286 85.9466 247.929 84.2732 247.929C82.5998 247.929 81.2432 249.286 81.2432 250.959C81.2432 252.633 82.5998 253.989 84.2732 253.989Z" fill="#C0D7E0" fill-opacity="0.25"/>
<path d="M84.2732 269.139C85.9466 269.139 87.3032 267.783 87.3032 266.109C87.3032 264.436 85.9466 263.079 84.2732 263.079C82.5998 263.079 81.2432 264.436 81.2432 266.109C81.2432 267.783 82.5998 269.139 84.2732 269.139Z" fill="#C0D7E0" fill-opacity="0.25"/>
<path d="M69.1231 11.5867C70.7965 11.5867 72.1531 10.2301 72.1531 8.55667C72.1531 6.88323 70.7965 5.52661 69.1231 5.52661C67.4496 5.52661 66.093 6.88323 66.093 8.55667C66.093 10.2301 67.4496 11.5867 69.1231 11.5867Z" fill="#C0D7E0" fill-opacity="0.25"/>
<path d="M69.1231 26.7368C70.7965 26.7368 72.1531 25.3803 72.1531 23.7068C72.1531 22.0334 70.7965 20.6768 69.1231 20.6768C67.4496 20.6768 66.093 22.0334 66.093 23.7068C66.093 25.3803 67.4496 26.7368 69.1231 26.7368Z" fill="#C0D7E0" fill-opacity="0.25"/>
<path d="M69.1231 41.887C70.7965 41.887 72.1531 40.5304 72.1531 38.857C72.1531 37.1835 70.7965 35.8269 69.1231 35.8269C67.4496 35.8269 66.093 37.1835 66.093 38.857C66.093 40.5304 67.4496 41.887 69.1231 41.887Z" fill="#C0D7E0" fill-opacity="0.25"/>
<path d="M69.1231 57.0371C70.7965 57.0371 72.1531 55.6806 72.1531 54.0071C72.1531 52.3337 70.7965 50.9771 69.1231 50.9771C67.4496 50.9771 66.093 52.3337 66.093 54.0071C66.093 55.6806 67.4496 57.0371 69.1231 57.0371Z" fill="#C0D7E0" fill-opacity="0.25"/>
<path d="M69.1231 72.1873C70.7965 72.1873 72.1531 70.8307 72.1531 69.1573C72.1531 67.4838 70.7965 66.1272 69.1231 66.1272C67.4496 66.1272 66.093 67.4838 66.093 69.1573C66.093 70.8307 67.4496 72.1873 69.1231 72.1873Z" fill="#C0D7E0" fill-opacity="0.25"/>
<path d="M69.1231 87.3374C70.7965 87.3374 72.1531 85.9808 72.1531 84.3074C72.1531 82.634 70.7965 81.2773 69.1231 81.2773C67.4496 81.2773 66.093 82.634 66.093 84.3074C66.093 85.9808 67.4496 87.3374 69.1231 87.3374Z" fill="#C0D7E0" fill-opacity="0.25"/>
<path d="M69.1231 102.488C70.7965 102.488 72.1531 101.131 72.1531 99.4576C72.1531 97.7841 70.7965 96.4275 69.1231 96.4275C67.4496 96.4275 66.093 97.7841 66.093 99.4576C66.093 101.131 67.4496 102.488 69.1231 102.488Z" fill="#C0D7E0" fill-opacity="0.25"/>
<path d="M69.1231 117.638C70.7965 117.638 72.1531 116.281 72.1531 114.608C72.1531 112.934 70.7965 111.578 69.1231 111.578C67.4496 111.578 66.093 112.934 66.093 114.608C66.093 116.281 67.4496 117.638 69.1231 117.638Z" fill="#C0D7E0" fill-opacity="0.25"/>
<path d="M69.1231 132.788C70.7965 132.788 72.1531 131.431 72.1531 129.758C72.1531 128.084 70.7965 126.728 69.1231 126.728C67.4496 126.728 66.093 128.084 66.093 129.758C66.093 131.431 67.4496 132.788 69.1231 132.788Z" fill="#C0D7E0" fill-opacity="0.25"/>
<path d="M69.1231 147.938C70.7965 147.938 72.1531 146.581 72.1531 144.908C72.1531 143.235 70.7965 141.878 69.1231 141.878C67.4496 141.878 66.093 143.235 66.093 144.908C66.093 146.581 67.4496 147.938 69.1231 147.938Z" fill="#C0D7E0" fill-opacity="0.25"/>
<path d="M69.1231 163.088C70.7965 163.088 72.1531 161.732 72.1531 160.058C72.1531 158.385 70.7965 157.028 69.1231 157.028C67.4496 157.028 66.093 158.385 66.093 160.058C66.093 161.732 67.4496 163.088 69.1231 163.088Z" fill="#C0D7E0" fill-opacity="0.25"/>
<path d="M69.1231 178.238C70.7965 178.238 72.1531 176.882 72.1531 175.208C72.1531 173.535 70.7965 172.178 69.1231 172.178C67.4496 172.178 66.093 173.535 66.093 175.208C66.093 176.882 67.4496 178.238 69.1231 178.238Z" fill="#C0D7E0" fill-opacity="0.25"/>
<path d="M69.1231 193.389C70.7965 193.389 72.1531 192.032 72.1531 190.359C72.1531 188.685 70.7965 187.329 69.1231 187.329C67.4496 187.329 66.093 188.685 66.093 190.359C66.093 192.032 67.4496 193.389 69.1231 193.389Z" fill="#C0D7E0" fill-opacity="0.25"/>
<path d="M69.1231 208.539C70.7965 208.539 72.1531 207.182 72.1531 205.509C72.1531 203.835 70.7965 202.479 69.1231 202.479C67.4496 202.479 66.093 203.835 66.093 205.509C66.093 207.182 67.4496 208.539 69.1231 208.539Z" fill="#C0D7E0" fill-opacity="0.25"/>
<path d="M69.1231 223.689C70.7965 223.689 72.1531 222.332 72.1531 220.659C72.1531 218.986 70.7965 217.629 69.1231 217.629C67.4496 217.629 66.093 218.986 66.093 220.659C66.093 222.332 67.4496 223.689 69.1231 223.689Z" fill="#C0D7E0" fill-opacity="0.25"/>
<path d="M69.1231 238.839C70.7965 238.839 72.1531 237.483 72.1531 235.809C72.1531 234.136 70.7965 232.779 69.1231 232.779C67.4496 232.779 66.093 234.136 66.093 235.809C66.093 237.483 67.4496 238.839 69.1231 238.839Z" fill="#C0D7E0" fill-opacity="0.25"/>
<path d="M69.1231 253.989C70.7965 253.989 72.1531 252.633 72.1531 250.959C72.1531 249.286 70.7965 247.929 69.1231 247.929C67.4496 247.929 66.093 249.286 66.093 250.959C66.093 252.633 67.4496 253.989 69.1231 253.989Z" fill="#C0D7E0" fill-opacity="0.25"/>
<path d="M69.1231 269.139C70.7965 269.139 72.1531 267.783 72.1531 266.109C72.1531 264.436 70.7965 263.079 69.1231 263.079C67.4496 263.079 66.093 264.436 66.093 266.109C66.093 267.783 67.4496 269.139 69.1231 269.139Z" fill="#C0D7E0" fill-opacity="0.25"/>
<path d="M53.9729 11.5867C55.6463 11.5867 57.0029 10.2301 57.0029 8.55667C57.0029 6.88323 55.6463 5.52661 53.9729 5.52661C52.2995 5.52661 50.9429 6.88323 50.9429 8.55667C50.9429 10.2301 52.2995 11.5867 53.9729 11.5867Z" fill="#C0D7E0" fill-opacity="0.25"/>
<path d="M53.9729 26.7368C55.6463 26.7368 57.0029 25.3803 57.0029 23.7068C57.0029 22.0334 55.6463 20.6768 53.9729 20.6768C52.2995 20.6768 50.9429 22.0334 50.9429 23.7068C50.9429 25.3803 52.2995 26.7368 53.9729 26.7368Z" fill="#C0D7E0" fill-opacity="0.25"/>
<path d="M53.9729 41.887C55.6463 41.887 57.0029 40.5304 57.0029 38.857C57.0029 37.1835 55.6463 35.8269 53.9729 35.8269C52.2995 35.8269 50.9429 37.1835 50.9429 38.857C50.9429 40.5304 52.2995 41.887 53.9729 41.887Z" fill="#C0D7E0" fill-opacity="0.25"/>
<path d="M53.9729 57.0371C55.6463 57.0371 57.0029 55.6806 57.0029 54.0071C57.0029 52.3337 55.6463 50.9771 53.9729 50.9771C52.2995 50.9771 50.9429 52.3337 50.9429 54.0071C50.9429 55.6806 52.2995 57.0371 53.9729 57.0371Z" fill="#C0D7E0" fill-opacity="0.25"/>
<path d="M53.9729 72.1873C55.6463 72.1873 57.0029 70.8307 57.0029 69.1573C57.0029 67.4838 55.6463 66.1272 53.9729 66.1272C52.2995 66.1272 50.9429 67.4838 50.9429 69.1573C50.9429 70.8307 52.2995 72.1873 53.9729 72.1873Z" fill="#C0D7E0" fill-opacity="0.25"/>
<path d="M53.9729 87.3374C55.6463 87.3374 57.0029 85.9808 57.0029 84.3074C57.0029 82.634 55.6463 81.2773 53.9729 81.2773C52.2995 81.2773 50.9429 82.634 50.9429 84.3074C50.9429 85.9808 52.2995 87.3374 53.9729 87.3374Z" fill="#C0D7E0" fill-opacity="0.25"/>
<path d="M53.9729 102.488C55.6463 102.488 57.0029 101.131 57.0029 99.4576C57.0029 97.7841 55.6463 96.4275 53.9729 96.4275C52.2995 96.4275 50.9429 97.7841 50.9429 99.4576C50.9429 101.131 52.2995 102.488 53.9729 102.488Z" fill="#C0D7E0" fill-opacity="0.25"/>
<path d="M53.9729 117.638C55.6463 117.638 57.0029 116.281 57.0029 114.608C57.0029 112.934 55.6463 111.578 53.9729 111.578C52.2995 111.578 50.9429 112.934 50.9429 114.608C50.9429 116.281 52.2995 117.638 53.9729 117.638Z" fill="#C0D7E0" fill-opacity="0.25"/>
<path d="M53.9729 132.788C55.6463 132.788 57.0029 131.431 57.0029 129.758C57.0029 128.084 55.6463 126.728 53.9729 126.728C52.2995 126.728 50.9429 128.084 50.9429 129.758C50.9429 131.431 52.2995 132.788 53.9729 132.788Z" fill="#C0D7E0" fill-opacity="0.25"/>
<path d="M53.9729 147.938C55.6463 147.938 57.0029 146.581 57.0029 144.908C57.0029 143.235 55.6463 141.878 53.9729 141.878C52.2995 141.878 50.9429 143.235 50.9429 144.908C50.9429 146.581 52.2995 147.938 53.9729 147.938Z" fill="#C0D7E0" fill-opacity="0.25"/>
<path d="M53.9729 163.088C55.6463 163.088 57.0029 161.732 57.0029 160.058C57.0029 158.385 55.6463 157.028 53.9729 157.028C52.2995 157.028 50.9429 158.385 50.9429 160.058C50.9429 161.732 52.2995 163.088 53.9729 163.088Z" fill="#C0D7E0" fill-opacity="0.25"/>
<path d="M53.9729 178.238C55.6463 178.238 57.0029 176.882 57.0029 175.208C57.0029 173.535 55.6463 172.178 53.9729 172.178C52.2995 172.178 50.9429 173.535 50.9429 175.208C50.9429 176.882 52.2995 178.238 53.9729 178.238Z" fill="#C0D7E0" fill-opacity="0.25"/>
<path d="M53.9729 193.389C55.6463 193.389 57.0029 192.032 57.0029 190.359C57.0029 188.685 55.6463 187.329 53.9729 187.329C52.2995 187.329 50.9429 188.685 50.9429 190.359C50.9429 192.032 52.2995 193.389 53.9729 193.389Z" fill="#C0D7E0" fill-opacity="0.25"/>
<path d="M53.9729 208.539C55.6463 208.539 57.0029 207.182 57.0029 205.509C57.0029 203.835 55.6463 202.479 53.9729 202.479C52.2995 202.479 50.9429 203.835 50.9429 205.509C50.9429 207.182 52.2995 208.539 53.9729 208.539Z" fill="#C0D7E0" fill-opacity="0.25"/>
<path d="M53.9729 223.689C55.6463 223.689 57.0029 222.332 57.0029 220.659C57.0029 218.986 55.6463 217.629 53.9729 217.629C52.2995 217.629 50.9429 218.986 50.9429 220.659C50.9429 222.332 52.2995 223.689 53.9729 223.689Z" fill="#C0D7E0" fill-opacity="0.25"/>
<path d="M53.9729 238.839C55.6463 238.839 57.0029 237.483 57.0029 235.809C57.0029 234.136 55.6463 232.779 53.9729 232.779C52.2995 232.779 50.9429 234.136 50.9429 235.809C50.9429 237.483 52.2995 238.839 53.9729 238.839Z" fill="#C0D7E0" fill-opacity="0.25"/>
<path d="M53.9729 253.989C55.6463 253.989 57.0029 252.633 57.0029 250.959C57.0029 249.286 55.6463 247.929 53.9729 247.929C52.2995 247.929 50.9429 249.286 50.9429 250.959C50.9429 252.633 52.2995 253.989 53.9729 253.989Z" fill="#C0D7E0" fill-opacity="0.25"/>
<path d="M53.9729 269.139C55.6463 269.139 57.0029 267.783 57.0029 266.109C57.0029 264.436 55.6463 263.079 53.9729 263.079C52.2995 263.079 50.9429 264.436 50.9429 266.109C50.9429 267.783 52.2995 269.139 53.9729 269.139Z" fill="#C0D7E0" fill-opacity="0.25"/>
<path d="M38.8228 11.5867C40.4962 11.5867 41.8528 10.2301 41.8528 8.55667C41.8528 6.88323 40.4962 5.52661 38.8228 5.52661C37.1493 5.52661 35.7927 6.88323 35.7927 8.55667C35.7927 10.2301 37.1493 11.5867 38.8228 11.5867Z" fill="#C0D7E0" fill-opacity="0.25"/>
<path d="M38.8228 26.7368C40.4962 26.7368 41.8528 25.3803 41.8528 23.7068C41.8528 22.0334 40.4962 20.6768 38.8228 20.6768C37.1493 20.6768 35.7927 22.0334 35.7927 23.7068C35.7927 25.3803 37.1493 26.7368 38.8228 26.7368Z" fill="#C0D7E0" fill-opacity="0.25"/>
<path d="M38.8228 41.887C40.4962 41.887 41.8528 40.5304 41.8528 38.857C41.8528 37.1835 40.4962 35.8269 38.8228 35.8269C37.1493 35.8269 35.7927 37.1835 35.7927 38.857C35.7927 40.5304 37.1493 41.887 38.8228 41.887Z" fill="#C0D7E0" fill-opacity="0.25"/>
<path d="M38.8228 57.0371C40.4962 57.0371 41.8528 55.6806 41.8528 54.0071C41.8528 52.3337 40.4962 50.9771 38.8228 50.9771C37.1493 50.9771 35.7927 52.3337 35.7927 54.0071C35.7927 55.6806 37.1493 57.0371 38.8228 57.0371Z" fill="#C0D7E0" fill-opacity="0.25"/>
<path d="M38.8228 72.1873C40.4962 72.1873 41.8528 70.8307 41.8528 69.1573C41.8528 67.4838 40.4962 66.1272 38.8228 66.1272C37.1493 66.1272 35.7927 67.4838 35.7927 69.1573C35.7927 70.8307 37.1493 72.1873 38.8228 72.1873Z" fill="#C0D7E0" fill-opacity="0.25"/>
<path d="M38.8228 87.3374C40.4962 87.3374 41.8528 85.9808 41.8528 84.3074C41.8528 82.634 40.4962 81.2773 38.8228 81.2773C37.1493 81.2773 35.7927 82.634 35.7927 84.3074C35.7927 85.9808 37.1493 87.3374 38.8228 87.3374Z" fill="#C0D7E0" fill-opacity="0.25"/>
<path d="M38.8228 102.488C40.4962 102.488 41.8528 101.131 41.8528 99.4576C41.8528 97.7841 40.4962 96.4275 38.8228 96.4275C37.1493 96.4275 35.7927 97.7841 35.7927 99.4576C35.7927 101.131 37.1493 102.488 38.8228 102.488Z" fill="#C0D7E0" fill-opacity="0.25"/>
<path d="M38.8228 117.638C40.4962 117.638 41.8528 116.281 41.8528 114.608C41.8528 112.934 40.4962 111.578 38.8228 111.578C37.1493 111.578 35.7927 112.934 35.7927 114.608C35.7927 116.281 37.1493 117.638 38.8228 117.638Z" fill="#C0D7E0" fill-opacity="0.25"/>
<path d="M38.8228 132.788C40.4962 132.788 41.8528 131.431 41.8528 129.758C41.8528 128.084 40.4962 126.728 38.8228 126.728C37.1493 126.728 35.7927 128.084 35.7927 129.758C35.7927 131.431 37.1493 132.788 38.8228 132.788Z" fill="#C0D7E0" fill-opacity="0.25"/>
<path d="M38.8228 147.938C40.4962 147.938 41.8528 146.581 41.8528 144.908C41.8528 143.235 40.4962 141.878 38.8228 141.878C37.1493 141.878 35.7927 143.235 35.7927 144.908C35.7927 146.581 37.1493 147.938 38.8228 147.938Z" fill="#C0D7E0" fill-opacity="0.25"/>
<path d="M38.8228 163.088C40.4962 163.088 41.8528 161.732 41.8528 160.058C41.8528 158.385 40.4962 157.028 38.8228 157.028C37.1493 157.028 35.7927 158.385 35.7927 160.058C35.7927 161.732 37.1493 163.088 38.8228 163.088Z" fill="#C0D7E0" fill-opacity="0.25"/>
<path d="M38.8228 178.238C40.4962 178.238 41.8528 176.882 41.8528 175.208C41.8528 173.535 40.4962 172.178 38.8228 172.178C37.1493 172.178 35.7927 173.535 35.7927 175.208C35.7927 176.882 37.1493 178.238 38.8228 178.238Z" fill="#C0D7E0" fill-opacity="0.25"/>
<path d="M38.8228 193.389C40.4962 193.389 41.8528 192.032 41.8528 190.359C41.8528 188.685 40.4962 187.329 38.8228 187.329C37.1493 187.329 35.7927 188.685 35.7927 190.359C35.7927 192.032 37.1493 193.389 38.8228 193.389Z" fill="#C0D7E0" fill-opacity="0.25"/>
<path d="M38.8228 208.539C40.4962 208.539 41.8528 207.182 41.8528 205.509C41.8528 203.835 40.4962 202.479 38.8228 202.479C37.1493 202.479 35.7927 203.835 35.7927 205.509C35.7927 207.182 37.1493 208.539 38.8228 208.539Z" fill="#C0D7E0" fill-opacity="0.25"/>
<path d="M38.8228 223.689C40.4962 223.689 41.8528 222.332 41.8528 220.659C41.8528 218.986 40.4962 217.629 38.8228 217.629C37.1493 217.629 35.7927 218.986 35.7927 220.659C35.7927 222.332 37.1493 223.689 38.8228 223.689Z" fill="#C0D7E0" fill-opacity="0.25"/>
<path d="M38.8228 238.839C40.4962 238.839 41.8528 237.483 41.8528 235.809C41.8528 234.136 40.4962 232.779 38.8228 232.779C37.1493 232.779 35.7927 234.136 35.7927 235.809C35.7927 237.483 37.1493 238.839 38.8228 238.839Z" fill="#C0D7E0" fill-opacity="0.25"/>
<path d="M38.8228 253.989C40.4962 253.989 41.8528 252.633 41.8528 250.959C41.8528 249.286 40.4962 247.929 38.8228 247.929C37.1493 247.929 35.7927 249.286 35.7927 250.959C35.7927 252.633 37.1493 253.989 38.8228 253.989Z" fill="#C0D7E0" fill-opacity="0.25"/>
<path d="M38.8228 269.139C40.4962 269.139 41.8528 267.783 41.8528 266.109C41.8528 264.436 40.4962 263.079 38.8228 263.079C37.1493 263.079 35.7927 264.436 35.7927 266.109C35.7927 267.783 37.1493 269.139 38.8228 269.139Z" fill="#C0D7E0" fill-opacity="0.25"/>
<path d="M23.6726 11.5867C25.3461 11.5867 26.7026 10.2301 26.7026 8.55667C26.7026 6.88323 25.3461 5.52661 23.6726 5.52661C21.9992 5.52661 20.6426 6.88323 20.6426 8.55667C20.6426 10.2301 21.9992 11.5867 23.6726 11.5867Z" fill="#C0D7E0" fill-opacity="0.25"/>
<path d="M23.6726 26.7368C25.3461 26.7368 26.7026 25.3803 26.7026 23.7068C26.7026 22.0334 25.3461 20.6768 23.6726 20.6768C21.9992 20.6768 20.6426 22.0334 20.6426 23.7068C20.6426 25.3803 21.9992 26.7368 23.6726 26.7368Z" fill="#C0D7E0" fill-opacity="0.25"/>
<path d="M23.6726 41.887C25.3461 41.887 26.7026 40.5304 26.7026 38.857C26.7026 37.1835 25.3461 35.8269 23.6726 35.8269C21.9992 35.8269 20.6426 37.1835 20.6426 38.857C20.6426 40.5304 21.9992 41.887 23.6726 41.887Z" fill="#C0D7E0" fill-opacity="0.25"/>
<path d="M23.6726 57.0371C25.3461 57.0371 26.7026 55.6806 26.7026 54.0071C26.7026 52.3337 25.3461 50.9771 23.6726 50.9771C21.9992 50.9771 20.6426 52.3337 20.6426 54.0071C20.6426 55.6806 21.9992 57.0371 23.6726 57.0371Z" fill="#C0D7E0" fill-opacity="0.25"/>
<path d="M23.6726 72.1873C25.3461 72.1873 26.7026 70.8307 26.7026 69.1573C26.7026 67.4838 25.3461 66.1272 23.6726 66.1272C21.9992 66.1272 20.6426 67.4838 20.6426 69.1573C20.6426 70.8307 21.9992 72.1873 23.6726 72.1873Z" fill="#C0D7E0" fill-opacity="0.25"/>
<path d="M23.6726 87.3374C25.3461 87.3374 26.7026 85.9808 26.7026 84.3074C26.7026 82.634 25.3461 81.2773 23.6726 81.2773C21.9992 81.2773 20.6426 82.634 20.6426 84.3074C20.6426 85.9808 21.9992 87.3374 23.6726 87.3374Z" fill="#C0D7E0" fill-opacity="0.25"/>
<path d="M23.6726 102.488C25.3461 102.488 26.7026 101.131 26.7026 99.4576C26.7026 97.7841 25.3461 96.4275 23.6726 96.4275C21.9992 96.4275 20.6426 97.7841 20.6426 99.4576C20.6426 101.131 21.9992 102.488 23.6726 102.488Z" fill="#C0D7E0" fill-opacity="0.25"/>
<path d="M23.6726 117.638C25.3461 117.638 26.7026 116.281 26.7026 114.608C26.7026 112.934 25.3461 111.578 23.6726 111.578C21.9992 111.578 20.6426 112.934 20.6426 114.608C20.6426 116.281 21.9992 117.638 23.6726 117.638Z" fill="#C0D7E0" fill-opacity="0.25"/>
<path d="M23.6726 132.788C25.3461 132.788 26.7026 131.431 26.7026 129.758C26.7026 128.084 25.3461 126.728 23.6726 126.728C21.9992 126.728 20.6426 128.084 20.6426 129.758C20.6426 131.431 21.9992 132.788 23.6726 132.788Z" fill="#C0D7E0" fill-opacity="0.25"/>
<path d="M23.6726 147.938C25.3461 147.938 26.7026 146.581 26.7026 144.908C26.7026 143.235 25.3461 141.878 23.6726 141.878C21.9992 141.878 20.6426 143.235 20.6426 144.908C20.6426 146.581 21.9992 147.938 23.6726 147.938Z" fill="#C0D7E0" fill-opacity="0.25"/>
<path d="M23.6726 163.088C25.3461 163.088 26.7026 161.732 26.7026 160.058C26.7026 158.385 25.3461 157.028 23.6726 157.028C21.9992 157.028 20.6426 158.385 20.6426 160.058C20.6426 161.732 21.9992 163.088 23.6726 163.088Z" fill="#C0D7E0" fill-opacity="0.25"/>
<path d="M23.6726 178.238C25.3461 178.238 26.7026 176.882 26.7026 175.208C26.7026 173.535 25.3461 172.178 23.6726 172.178C21.9992 172.178 20.6426 173.535 20.6426 175.208C20.6426 176.882 21.9992 178.238 23.6726 178.238Z" fill="#C0D7E0" fill-opacity="0.25"/>
<path d="M23.6726 193.389C25.3461 193.389 26.7026 192.032 26.7026 190.359C26.7026 188.685 25.3461 187.329 23.6726 187.329C21.9992 187.329 20.6426 188.685 20.6426 190.359C20.6426 192.032 21.9992 193.389 23.6726 193.389Z" fill="#C0D7E0" fill-opacity="0.25"/>
<path d="M23.6726 208.539C25.3461 208.539 26.7026 207.182 26.7026 205.509C26.7026 203.835 25.3461 202.479 23.6726 202.479C21.9992 202.479 20.6426 203.835 20.6426 205.509C20.6426 207.182 21.9992 208.539 23.6726 208.539Z" fill="#C0D7E0" fill-opacity="0.25"/>
<path d="M23.6726 223.689C25.3461 223.689 26.7026 222.332 26.7026 220.659C26.7026 218.986 25.3461 217.629 23.6726 217.629C21.9992 217.629 20.6426 218.986 20.6426 220.659C20.6426 222.332 21.9992 223.689 23.6726 223.689Z" fill="#C0D7E0" fill-opacity="0.25"/>
<path d="M23.6726 238.839C25.3461 238.839 26.7026 237.483 26.7026 235.809C26.7026 234.136 25.3461 232.779 23.6726 232.779C21.9992 232.779 20.6426 234.136 20.6426 235.809C20.6426 237.483 21.9992 238.839 23.6726 238.839Z" fill="#C0D7E0" fill-opacity="0.25"/>
<path d="M23.6726 253.989C25.3461 253.989 26.7026 252.633 26.7026 250.959C26.7026 249.286 25.3461 247.929 23.6726 247.929C21.9992 247.929 20.6426 249.286 20.6426 250.959C20.6426 252.633 21.9992 253.989 23.6726 253.989Z" fill="#C0D7E0" fill-opacity="0.25"/>
<path d="M23.6726 269.139C25.3461 269.139 26.7026 267.783 26.7026 266.109C26.7026 264.436 25.3461 263.079 23.6726 263.079C21.9992 263.079 20.6426 264.436 20.6426 266.109C20.6426 267.783 21.9992 269.139 23.6726 269.139Z" fill="#C0D7E0" fill-opacity="0.25"/>
<path d="M8.52247 11.5867C10.1959 11.5867 11.5525 10.2301 11.5525 8.55667C11.5525 6.88323 10.1959 5.52661 8.52247 5.52661C6.84903 5.52661 5.49243 6.88323 5.49243 8.55667C5.49243 10.2301 6.84903 11.5867 8.52247 11.5867Z" fill="#C0D7E0" fill-opacity="0.25"/>
<path d="M8.52247 26.7368C10.1959 26.7368 11.5525 25.3803 11.5525 23.7068C11.5525 22.0334 10.1959 20.6768 8.52247 20.6768C6.84903 20.6768 5.49243 22.0334 5.49243 23.7068C5.49243 25.3803 6.84903 26.7368 8.52247 26.7368Z" fill="#C0D7E0" fill-opacity="0.25"/>
<path d="M8.52247 41.887C10.1959 41.887 11.5525 40.5304 11.5525 38.857C11.5525 37.1835 10.1959 35.8269 8.52247 35.8269C6.84903 35.8269 5.49243 37.1835 5.49243 38.857C5.49243 40.5304 6.84903 41.887 8.52247 41.887Z" fill="#C0D7E0" fill-opacity="0.25"/>
<path d="M8.52247 57.0371C10.1959 57.0371 11.5525 55.6806 11.5525 54.0071C11.5525 52.3337 10.1959 50.9771 8.52247 50.9771C6.84903 50.9771 5.49243 52.3337 5.49243 54.0071C5.49243 55.6806 6.84903 57.0371 8.52247 57.0371Z" fill="#C0D7E0" fill-opacity="0.25"/>
<path d="M8.52247 72.1873C10.1959 72.1873 11.5525 70.8307 11.5525 69.1573C11.5525 67.4838 10.1959 66.1272 8.52247 66.1272C6.84903 66.1272 5.49243 67.4838 5.49243 69.1573C5.49243 70.8307 6.84903 72.1873 8.52247 72.1873Z" fill="#C0D7E0" fill-opacity="0.25"/>
<path d="M8.52247 87.3374C10.1959 87.3374 11.5525 85.9808 11.5525 84.3074C11.5525 82.634 10.1959 81.2773 8.52247 81.2773C6.84903 81.2773 5.49243 82.634 5.49243 84.3074C5.49243 85.9808 6.84903 87.3374 8.52247 87.3374Z" fill="#C0D7E0" fill-opacity="0.25"/>
<path d="M8.52247 102.488C10.1959 102.488 11.5525 101.131 11.5525 99.4576C11.5525 97.7841 10.1959 96.4275 8.52247 96.4275C6.84903 96.4275 5.49243 97.7841 5.49243 99.4576C5.49243 101.131 6.84903 102.488 8.52247 102.488Z" fill="#C0D7E0" fill-opacity="0.25"/>
<path d="M8.52247 117.638C10.1959 117.638 11.5525 116.281 11.5525 114.608C11.5525 112.934 10.1959 111.578 8.52247 111.578C6.84903 111.578 5.49243 112.934 5.49243 114.608C5.49243 116.281 6.84903 117.638 8.52247 117.638Z" fill="#C0D7E0" fill-opacity="0.25"/>
<path d="M8.52247 132.788C10.1959 132.788 11.5525 131.431 11.5525 129.758C11.5525 128.084 10.1959 126.728 8.52247 126.728C6.84903 126.728 5.49243 128.084 5.49243 129.758C5.49243 131.431 6.84903 132.788 8.52247 132.788Z" fill="#C0D7E0" fill-opacity="0.25"/>
<path d="M8.52247 147.938C10.1959 147.938 11.5525 146.581 11.5525 144.908C11.5525 143.235 10.1959 141.878 8.52247 141.878C6.84903 141.878 5.49243 143.235 5.49243 144.908C5.49243 146.581 6.84903 147.938 8.52247 147.938Z" fill="#C0D7E0" fill-opacity="0.25"/>
<path d="M8.52247 163.088C10.1959 163.088 11.5525 161.732 11.5525 160.058C11.5525 158.385 10.1959 157.028 8.52247 157.028C6.84903 157.028 5.49243 158.385 5.49243 160.058C5.49243 161.732 6.84903 163.088 8.52247 163.088Z" fill="#C0D7E0" fill-opacity="0.25"/>
<path d="M8.52247 178.238C10.1959 178.238 11.5525 176.882 11.5525 175.208C11.5525 173.535 10.1959 172.178 8.52247 172.178C6.84903 172.178 5.49243 173.535 5.49243 175.208C5.49243 176.882 6.84903 178.238 8.52247 178.238Z" fill="#C0D7E0" fill-opacity="0.25"/>
<path d="M8.52247 193.389C10.1959 193.389 11.5525 192.032 11.5525 190.359C11.5525 188.685 10.1959 187.329 8.52247 187.329C6.84903 187.329 5.49243 188.685 5.49243 190.359C5.49243 192.032 6.84903 193.389 8.52247 193.389Z" fill="#C0D7E0" fill-opacity="0.25"/>
<path d="M8.52247 208.539C10.1959 208.539 11.5525 207.182 11.5525 205.509C11.5525 203.835 10.1959 202.479 8.52247 202.479C6.84903 202.479 5.49243 203.835 5.49243 205.509C5.49243 207.182 6.84903 208.539 8.52247 208.539Z" fill="#C0D7E0" fill-opacity="0.25"/>
<path d="M8.52247 223.689C10.1959 223.689 11.5525 222.332 11.5525 220.659C11.5525 218.986 10.1959 217.629 8.52247 217.629C6.84903 217.629 5.49243 218.986 5.49243 220.659C5.49243 222.332 6.84903 223.689 8.52247 223.689Z" fill="#C0D7E0" fill-opacity="0.25"/>
<path d="M8.52247 238.839C10.1959 238.839 11.5525 237.483 11.5525 235.809C11.5525 234.136 10.1959 232.779 8.52247 232.779C6.84903 232.779 5.49243 234.136 5.49243 235.809C5.49243 237.483 6.84903 238.839 8.52247 238.839Z" fill="#C0D7E0" fill-opacity="0.25"/>
<path d="M8.52247 253.989C10.1959 253.989 11.5525 252.633 11.5525 250.959C11.5525 249.286 10.1959 247.929 8.52247 247.929C6.84903 247.929 5.49243 249.286 5.49243 250.959C5.49243 252.633 6.84903 253.989 8.52247 253.989Z" fill="#C0D7E0" fill-opacity="0.25"/>
<path d="M8.52247 269.139C10.1959 269.139 11.5525 267.783 11.5525 266.109C11.5525 264.436 10.1959 263.079 8.52247 263.079C6.84903 263.079 5.49243 264.436 5.49243 266.109C5.49243 267.783 6.84903 269.139 8.52247 269.139Z" fill="#C0D7E0" fill-opacity="0.25"/>
</svg>
