<svg width="768" height="1118" viewBox="0 0 768 1118" fill="none" xmlns="http://www.w3.org/2000/svg">
<g opacity="0.05">
<path d="M325.803 519.027C369.501 457.765 413.32 396.588 456.846 335.143C467.566 320.029 467.08 301.751 468.257 284.357C469.847 260.376 469.3 236.259 470.958 212.266C477.563 117.18 559.632 43.2594 661.26 66.4244C756.807 88.2107 809.092 190.286 770.595 280.313C751.272 325.516 715.895 354.376 669.465 371.308C639.841 382.115 611.499 396.372 582.768 409.566C579.169 411.226 576.555 415.399 574.072 418.88C485.739 542.548 397.275 666.062 309.783 790.33C302.671 800.47 300.892 815.321 299.529 828.235C297.542 847.103 296.783 866.365 297.876 885.316C301.908 953.215 264.233 1015.51 201.755 1042.25C135.169 1070.76 55.3919 1050.14 13.997 990.612C-22.96 937.385 -26.0487 880.181 5.25319 822.755C27.9549 781.11 63.3747 756.084 109.322 743.638C133.726 737.017 156.997 725.723 180.262 715.451C186.362 712.739 191.535 706.587 195.656 700.894C239.195 640.363 282.345 579.615 325.643 518.913C325.723 518.97 325.763 518.998 325.803 519.027ZM219.265 786.801C156.259 742.161 71.9317 761.523 31.997 819.795C-10.7575 882.274 2.68046 968.05 69.0791 1011.07C127.018 1048.59 210.818 1036.4 254.506 967.702C291.778 909.101 278.594 826.946 219.265 786.801ZM548.527 325.192C609.597 371.107 693.167 355.431 734.536 297.941C779.901 234.849 764.169 153.051 704.272 109.3C642.574 64.2654 559.464 82.684 519.035 136.316C474.41 195.408 486.106 283.203 548.527 325.192Z" fill="#527DBF"/>
<path d="M219.264 786.801C278.581 826.878 291.765 909.032 254.505 967.702C210.886 1036.39 127.057 1048.62 69.078 1011.07C2.67941 968.051 -10.7871 882.314 31.996 819.795C71.9021 761.563 156.298 742.19 219.264 786.801ZM203.313 815.934C159.485 783.344 93.8391 790.735 58.7429 838.753C26.8263 882.398 37.4336 947.259 81.9584 978.957C127.083 1011.08 193.921 1000.5 225.87 953.254C254.513 910.897 247.889 847.308 203.313 815.934Z" fill="#F1F2F2"/>
<path d="M548.528 325.192C486.107 283.203 474.45 195.437 519.035 136.317C559.505 82.7126 642.575 64.2656 704.273 109.3C764.198 153.011 779.902 234.849 734.537 297.941C693.167 355.431 609.558 371.079 548.528 325.192ZM566.642 300.983C607.287 333.295 676.228 323.908 709.616 276.423C743.164 228.628 731.58 164.037 687.422 133.686C641.394 102.062 577.327 110.881 542.582 162.47C512.363 207.205 522.182 272.832 566.642 300.983Z" fill="#F1F2F2"/>
<path d="M203.313 815.934C247.889 847.307 254.513 910.896 225.869 953.253C193.921 1000.5 127.083 1011.08 81.9584 978.957C37.4336 947.258 26.8263 882.397 58.7429 838.752C93.8105 790.774 159.485 783.343 203.313 815.934Z" fill="#527DBF"/>
<path d="M566.642 300.983C522.183 272.832 512.403 207.234 542.611 162.43C577.396 110.87 641.424 102.023 687.451 133.647C731.61 163.997 743.194 228.589 709.646 276.383C676.229 323.909 607.259 333.336 566.642 300.983Z" fill="#527DBF"/>
</g>
</svg>
