<svg width="43" height="43" viewBox="0 0 43 43" fill="none" xmlns="http://www.w3.org/2000/svg">
<path d="M21.8845 42.4977C33.4825 42.4977 42.8845 33.0957 42.8845 21.4977C42.8845 9.8997 33.4825 0.497681 21.8845 0.497681C10.2865 0.497681 0.884521 9.8997 0.884521 21.4977C0.884521 33.0957 10.2865 42.4977 21.8845 42.4977Z" fill="#E4F5FD"/>
<path d="M21.8845 33.8029C28.6804 33.8029 34.1896 28.2937 34.1896 21.4978C34.1896 14.7018 28.6804 9.19263 21.8845 9.19263C15.0885 9.19263 9.57935 14.7018 9.57935 21.4978C9.57935 28.2937 15.0885 33.8029 21.8845 33.8029Z" fill="#AFD6FF" stroke="#003B96" stroke-width="1.5" stroke-miterlimit="10" stroke-linecap="round" stroke-linejoin="round"/>
<path d="M22.3043 15.1713V15.913C22.7958 15.9666 23.2069 16.0649 23.5643 16.2168C23.9129 16.3687 24.2167 16.5921 24.4758 16.9049C24.6814 17.1372 24.8422 17.3785 24.9494 17.6198C25.0567 17.87 25.1192 18.0934 25.1192 18.2989C25.1192 18.5223 25.0388 18.7279 24.869 18.8887C24.6992 19.0585 24.5026 19.1389 24.2614 19.1389C23.8146 19.1389 23.5286 18.8976 23.3946 18.4151C23.2426 17.8432 22.8852 17.4678 22.3043 17.2802V20.1308C22.8673 20.2827 23.3231 20.4257 23.6537 20.5508C23.9933 20.676 24.2882 20.8636 24.5563 21.1049C24.8422 21.3551 25.0567 21.6589 25.2086 22.0074C25.3605 22.356 25.4409 22.7402 25.4409 23.1512C25.4409 23.6695 25.3158 24.161 25.0745 24.6078C24.8333 25.0636 24.4758 25.43 23.9933 25.7159C23.5197 26.0019 22.9567 26.1717 22.3043 26.2253V27.9321C22.3043 28.2002 22.2775 28.3968 22.2239 28.5219C22.1703 28.647 22.0541 28.7096 21.8754 28.7096C21.7146 28.7096 21.5984 28.656 21.5269 28.5577C21.4643 28.4594 21.4286 28.2985 21.4286 28.093V26.2432C20.8924 26.1806 20.4277 26.0555 20.0256 25.8679C19.6235 25.6802 19.2929 25.4389 19.0248 25.1529C18.7567 24.867 18.5601 24.5721 18.435 24.2593C18.3099 23.9466 18.2473 23.6517 18.2473 23.3568C18.2473 23.1334 18.3367 22.9368 18.5065 22.767C18.6763 22.5972 18.8907 22.5079 19.1499 22.5079C19.3554 22.5079 19.5252 22.5525 19.6682 22.6508C19.8112 22.7491 19.9095 22.8832 19.9631 23.053C20.0882 23.4283 20.1954 23.7143 20.2848 23.9109C20.3741 24.1074 20.5171 24.2862 20.6958 24.4559C20.8835 24.6168 21.1248 24.7419 21.4286 24.8313V21.65C20.8209 21.4802 20.3026 21.2925 19.9005 21.087C19.4894 20.8815 19.1588 20.5866 18.8997 20.2023C18.6405 19.8181 18.5154 19.3266 18.5154 18.7279C18.5154 17.9415 18.7656 17.2981 19.266 16.7976C19.7665 16.2972 20.4903 16.0023 21.4286 15.9219V15.1981C21.4286 14.8138 21.5716 14.6262 21.8575 14.6262C22.1524 14.6172 22.3043 14.8049 22.3043 15.1713ZM21.4375 19.8717V17.2534C21.0533 17.3696 20.7584 17.5215 20.5439 17.7091C20.3294 17.8968 20.2222 18.1828 20.2222 18.5581C20.2222 18.9155 20.3205 19.1925 20.526 19.3802C20.7316 19.5679 21.0265 19.7198 21.4375 19.8717ZM22.3043 21.9002V24.8938C22.769 24.8044 23.1175 24.6168 23.3678 24.3398C23.618 24.0628 23.7431 23.741 23.7431 23.3657C23.7431 22.9725 23.618 22.6598 23.3767 22.4453C23.1354 22.2398 22.778 22.0521 22.3043 21.9002Z" fill="#003B96"/>
</svg>
