<svg width="21" height="21" viewBox="0 0 21 21" fill="none" xmlns="http://www.w3.org/2000/svg">
<path d="M16.3088 0.771729H4.64216C2.34133 0.771729 0.475494 2.63756 0.475494 4.9384V16.6051C0.475494 18.9059 2.34133 20.7717 4.64216 20.7717H16.3088C18.6105 20.7717 20.4755 18.9059 20.4755 16.6051V4.9384C20.4755 2.63756 18.6105 0.771729 16.3088 0.771729ZM7.14216 16.6051H4.64216V7.4384H7.14216V16.6051ZM5.89216 6.38173C5.08716 6.38173 4.43383 5.72339 4.43383 4.91173C4.43383 4.10006 5.08716 3.44173 5.89216 3.44173C6.69716 3.44173 7.35049 4.10006 7.35049 4.91173C7.35049 5.72339 6.69799 6.38173 5.89216 6.38173ZM17.1422 16.6051H14.6422V11.9351C14.6422 9.1284 11.3088 9.34089 11.3088 11.9351V16.6051H8.80883V7.4384H11.3088V8.90923C12.4722 6.75423 17.1422 6.59506 17.1422 10.9726V16.6051Z" fill="#707070"/>
</svg>
