<svg width="23" height="23" viewBox="0 0 23 23" fill="none" xmlns="http://www.w3.org/2000/svg">
<g clip-path="url(#clip0)">
<path d="M18.3056 0.750977H5.47225C2.94133 0.750977 0.888916 2.80339 0.888916 5.33431V18.1676C0.888916 20.6986 2.94133 22.751 5.47225 22.751H18.3056C20.8374 22.751 22.8889 20.6986 22.8889 18.1676V5.33431C22.8889 2.80339 20.8374 0.750977 18.3056 0.750977ZM8.22225 18.1676H5.47225V8.08431H8.22225V18.1676ZM6.84725 6.92198C5.96175 6.92198 5.24308 6.19781 5.24308 5.30498C5.24308 4.41214 5.96175 3.68798 6.84725 3.68798C7.73275 3.68798 8.45142 4.41214 8.45142 5.30498C8.45142 6.19781 7.73367 6.92198 6.84725 6.92198ZM19.2222 18.1676H16.4722V13.0306C16.4722 9.94331 12.8056 10.1771 12.8056 13.0306V18.1676H10.0556V8.08431H12.8056V9.70223C14.0852 7.33173 19.2222 7.15664 19.2222 11.9719V18.1676Z" fill="#E4F5FD"/>
</g>
<defs>
<clipPath id="clip0">
<rect x="0.888916" y="0.750977" width="22" height="22" fill="white"/>
</clipPath>
</defs>
</svg>
