<svg width="43" height="43" viewBox="0 0 43 43" fill="none" xmlns="http://www.w3.org/2000/svg">
<path d="M21.4922 42.4978C33.0902 42.4978 42.4922 33.0958 42.4922 21.4978C42.4922 9.89982 33.0902 0.497803 21.4922 0.497803C9.89421 0.497803 0.492188 9.89982 0.492188 21.4978C0.492188 33.0958 9.89421 42.4978 21.4922 42.4978Z" fill="#E4F5FD"/>
<path d="M22.2068 21.9451L11.9302 32.2217" stroke="#003B96" stroke-width="1.5" stroke-miterlimit="10" stroke-linecap="round" stroke-linejoin="round"/>
<path d="M27.1216 24.6258C31.3166 24.6258 34.7174 21.2251 34.7174 17.0301C34.7174 12.8351 31.3166 9.43433 27.1216 9.43433C22.9266 9.43433 19.5259 12.8351 19.5259 17.0301C19.5259 21.2251 22.9266 24.6258 27.1216 24.6258Z" fill="#AFD6FF" stroke="#003B96" stroke-width="1.5" stroke-miterlimit="10" stroke-linecap="round" stroke-linejoin="round"/>
<path d="M18.6323 25.5193L11.9302 32.2214" stroke="#003B96" stroke-width="4" stroke-miterlimit="10" stroke-linecap="round" stroke-linejoin="round"/>
</svg>
