<svg width="769" height="505" viewBox="0 0 769 505" fill="none" xmlns="http://www.w3.org/2000/svg">
<g opacity="0.05">
<path d="M403.579 210.346C448.249 231.176 492.879 252.093 537.646 272.791C548.659 277.891 560.372 275.396 571.715 274.078C587.349 272.239 602.815 269.008 618.465 267.212C680.491 260.117 737.893 304.147 735.105 372.362C732.479 436.497 672.981 482.353 610.407 468.306C578.989 461.258 556.18 441.919 539.734 414.038C529.238 396.25 516.673 379.699 504.746 362.77C503.248 360.651 500.248 359.465 497.71 358.281C407.522 316.155 317.417 273.925 226.943 232.412C219.563 229.041 209.787 229.668 201.307 230.332C188.919 231.304 176.423 233.115 164.349 236.081C121.102 246.782 76.4835 229.955 51.8077 192.909C25.4956 153.43 29.2528 99.5906 62.6518 65.8256C92.52 35.6713 128.991 26.8542 169.711 40.1587C199.241 49.8082 219.586 69.6321 233.086 97.7373C240.263 112.664 250.314 126.302 259.706 140.06C262.181 143.665 266.76 146.262 270.919 148.236C315.099 169.051 359.372 189.589 403.634 210.229C403.607 210.287 403.593 210.316 403.579 210.346ZM218.411 173.695C239.64 127.789 217.105 75.7922 174.81 57.0289C129.469 36.9518 75.8312 55.8446 56.0543 103.741C38.804 145.533 56.6578 198.047 106.114 217.983C148.303 234.992 199.638 216.695 218.411 173.695ZM554.998 330.647C532.717 375.458 552.788 427.407 594.75 447.188C640.797 468.873 691.599 448.978 712.626 405.181C734.265 360.071 712.483 308.745 673.117 289.109C629.734 267.423 574.588 285.435 554.998 330.647Z" fill="#527DBF"/>
<path d="M218.411 173.694C199.681 216.679 148.346 234.976 106.114 217.983C56.6733 198.09 38.7903 145.562 56.0542 103.74C75.8311 55.844 129.44 36.9376 174.81 57.0283C217.075 75.778 239.626 127.818 218.411 173.694ZM197.745 166.899C213.502 134.783 200.907 93.3878 165.793 76.5167C133.875 61.1713 93.3699 75.7445 78.2698 108.203C62.9656 141.099 77.7609 182.88 112.001 197.816C142.699 211.208 182.861 199.351 197.745 166.899Z" fill="#F1F2F2"/>
<path d="M554.998 330.648C574.589 285.435 629.721 267.452 673.117 289.109C712.47 308.774 734.265 360.071 712.626 405.181C691.629 448.992 640.798 468.873 594.751 447.188C552.788 427.408 532.731 375.429 554.998 330.648ZM572.751 339.423C556.793 369.457 571.067 412.736 605.634 428.57C640.419 444.471 680.635 429.301 694.91 397.24C709.782 363.822 696.456 323.614 659.084 307.395C626.667 293.273 585.574 307.43 572.751 339.423Z" fill="#F1F2F2"/>
<path d="M197.745 166.899C182.861 199.351 142.699 211.207 112.001 197.816C77.7614 182.88 62.9661 141.099 78.2703 108.203C93.3704 75.7442 133.876 61.171 165.794 76.5163C200.878 93.3738 213.503 134.782 197.745 166.899Z" fill="#527DBF"/>
<path d="M572.751 339.424C585.574 307.431 626.653 293.303 659.113 307.409C696.471 323.657 709.811 363.836 694.939 397.253C680.663 429.315 640.448 444.485 605.663 428.584C571.067 412.736 556.764 369.444 572.751 339.424Z" fill="#527DBF"/>
</g>
</svg>
