<svg width="129" height="125" viewBox="0 0 129 125" fill="none" xmlns="http://www.w3.org/2000/svg">
<path d="M31.7855 29.1138C48.2523 17.5006 69.8194 17.8407 87.3062 28.0491C87.6948 28.292 88.1806 27.8072 87.9377 27.4205C87.3548 26.5005 86.7719 25.5815 86.1404 24.7101C70.6937 3.0332 41.0147 -2.48389 19.9333 12.4197C-1.19658 27.3224 -5.76258 57.0354 9.73269 78.7143C10.3642 79.5847 11.0442 80.4562 11.7243 81.3276C12.0157 81.6657 12.5986 81.4238 12.5014 80.939C8.51833 61.1478 15.3188 40.7756 31.7855 29.1138Z" fill="#3EBDAE"/>
<path d="M56.8015 102.28C38.4403 93.9085 27.9482 75.0849 28.1425 54.906C28.1425 54.4222 27.511 54.2765 27.3167 54.7117C26.7824 55.6803 26.2967 56.6479 25.8595 57.6165C14.7359 81.8105 24.7909 110.119 48.3009 120.861C71.811 131.604 99.9357 120.716 111.059 96.5208C111.496 95.5046 111.934 94.537 112.322 93.5208C112.468 93.0856 111.934 92.698 111.594 93.037C96.2926 106.296 75.1141 110.65 56.8015 102.28Z" fill="#3EBDAE"/>
<path d="M107.853 44.1146C109.747 64.1487 98.6722 82.5856 80.9911 92.5531C80.6025 92.795 80.7482 93.4246 81.234 93.376C82.3026 93.3274 83.4198 93.2788 84.4885 93.1817C111.059 90.7141 130.683 67.8744 128.254 42.1784C125.825 16.533 102.315 -2.29058 75.6965 0.225578C74.5793 0.322727 73.5106 0.467479 72.442 0.660805C71.9562 0.757954 71.9077 1.38651 72.3448 1.53223C91.6289 8.01596 105.958 24.0815 107.853 44.1146Z" fill="#3EBDAE"/>
</svg>
