<svg width="769" height="505" viewBox="0 0 769 505" fill="none" xmlns="http://www.w3.org/2000/svg">
<path d="M403.579 210.346C448.249 231.176 492.879 252.093 537.646 272.791C548.659 277.891 560.372 275.396 571.715 274.078C587.349 272.239 602.815 269.008 618.465 267.212C680.491 260.117 737.893 304.147 735.105 372.362C732.479 436.497 672.981 482.353 610.407 468.306C578.989 461.258 556.18 441.919 539.734 414.038C529.238 396.25 516.673 379.699 504.746 362.77C503.248 360.651 500.248 359.465 497.71 358.281C407.522 316.155 317.417 273.925 226.943 232.412C219.563 229.041 209.787 229.668 201.307 230.332C188.919 231.304 176.423 233.115 164.349 236.081C121.102 246.782 76.4835 229.955 51.8077 192.909C25.4956 153.43 29.2528 99.5906 62.6518 65.8256C92.52 35.6713 128.991 26.8542 169.711 40.1587C199.241 49.8082 219.586 69.6321 233.086 97.7373C240.263 112.664 250.314 126.302 259.706 140.06C262.181 143.665 266.76 146.262 270.919 148.236C315.099 169.051 359.372 189.589 403.634 210.229C403.607 210.287 403.593 210.316 403.579 210.346ZM218.411 173.695C239.64 127.789 217.105 75.7922 174.81 57.0289C129.469 36.9518 75.8312 55.8446 56.0543 103.741C38.804 145.533 56.6578 198.047 106.114 217.983C148.303 234.992 199.638 216.695 218.411 173.695ZM554.998 330.647C532.717 375.458 552.788 427.407 594.75 447.188C640.797 468.873 691.599 448.978 712.626 405.181C734.265 360.071 712.483 308.745 673.117 289.109C629.734 267.423 574.588 285.435 554.998 330.647Z" fill="#527DBF"/>
</svg>
