<svg width="43" height="43" viewBox="0 0 43 43" fill="none" xmlns="http://www.w3.org/2000/svg">
<path d="M21.8843 42.4977C33.4823 42.4977 42.8843 33.0957 42.8843 21.4977C42.8843 9.8997 33.4823 0.497681 21.8843 0.497681C10.2863 0.497681 0.884277 9.8997 0.884277 21.4977C0.884277 33.0957 10.2863 42.4977 21.8843 42.4977Z" fill="#E4F5FD"/>
<path d="M31.4103 30.4687H12.3583C11.6971 30.4687 11.1609 29.9326 11.1609 29.2713V18.4585C11.1609 17.7972 11.6971 17.2611 12.3583 17.2611H31.4103C32.0715 17.2611 32.6077 17.7972 32.6077 18.4585V29.2713C32.6077 29.9326 32.0715 30.4687 31.4103 30.4687Z" fill="#AFD6FF" stroke="#003B96" stroke-width="1.5" stroke-miterlimit="10" stroke-linecap="round" stroke-linejoin="round"/>
<path d="M17.3984 29.8433V13.8118C17.3984 13.0969 17.9703 12.525 18.6852 12.525H25.0746C25.7895 12.525 26.3614 13.0969 26.3614 13.8118V29.8433" stroke="#003B96" stroke-width="1.5" stroke-miterlimit="10" stroke-linecap="round" stroke-linejoin="round"/>
</svg>
